<svg width="43" height="32" viewBox="0 0 43 32" fill="none" xmlns="http://www.w3.org/2000/svg">
<path d="M41.9911 9.33333H36.9629L35.5654 5.86667C34.1293 2.3025 30.7019 0 26.8327 0H16.1667C12.2984 0 8.87014 2.3025 7.43316 5.86667L6.03566 9.33333H1.00835C0.352429 9.33333 -0.128802 9.945 0.0307688 10.5758L0.534676 12.5758C0.646375 13.0208 1.0495 13.3333 1.51226 13.3333H3.19782C2.06991 14.3108 1.34345 15.7317 1.34345 17.3333V21.3333C1.34345 22.6767 1.86079 23.8892 2.6872 24.8275V29.3333C2.6872 30.8058 3.8907 32 5.3747 32H8.06221C9.54621 32 10.7497 30.8058 10.7497 29.3333V26.6667H32.2497V29.3333C32.2497 30.8058 33.4532 32 34.9372 32H37.6247C39.1088 32 40.3122 30.8058 40.3122 29.3333V24.8275C41.1387 23.89 41.656 22.6775 41.656 21.3333V17.3333C41.656 15.7317 40.9295 14.3108 39.8025 13.3333H41.488C41.9508 13.3333 42.3539 13.0208 42.4656 12.5758L42.9695 10.5758C43.1282 9.945 42.647 9.33333 41.9911 9.33333ZM12.4235 7.8475C13.0358 6.32917 14.5181 5.33333 16.1667 5.33333H26.8327C28.4814 5.33333 29.9637 6.32917 30.5759 7.8475L32.2497 12H10.7497L12.4235 7.8475ZM8.06221 21.3167C6.4497 21.3167 5.3747 20.2533 5.3747 18.6583C5.3747 17.0633 6.4497 16 8.06221 16C9.67471 16 12.0935 18.3925 12.0935 19.9875C12.0935 21.5825 9.67471 21.3167 8.06221 21.3167ZM34.9372 21.3167C33.3247 21.3167 30.906 21.5825 30.906 19.9875C30.906 18.3925 33.3247 16 34.9372 16C36.5497 16 37.6247 17.0633 37.6247 18.6583C37.6247 20.2533 36.5497 21.3167 34.9372 21.3167Z" fill="black"/>
</svg>
