<svg width="171" height="147" viewBox="0 0 171 147" fill="none" xmlns="http://www.w3.org/2000/svg">
<g clip-path="url(#clip0_4_293)">
<path d="M85.5 147C132.72 147 171 124.9 171 97.6385C171 70.3771 132.72 48.2773 85.5 48.2773C38.2797 48.2773 0 70.3771 0 97.6385C0 124.9 38.2797 147 85.5 147Z" fill="#F5F5F5"/>
<path d="M15.2533 82.0812L18.1846 80.3812C18.1846 80.3812 19.9506 73.1045 19.2508 66.5533C18.2688 57.3494 12.2195 53.8796 9.90386 54.6747C7.5882 55.4698 6.93234 58.1481 10.7466 63.6331C12.9963 66.8757 15.759 73.6065 15.2533 82.0812Z" fill="#FFBE93"/>
<g opacity="0.15">
<path d="M15.2533 82.0812L18.1846 80.3812C18.1846 80.3812 19.9506 73.1045 19.2508 66.5533C18.2688 57.3494 12.2195 53.8796 9.90386 54.6747C7.5882 55.4698 6.93234 58.1481 10.7466 63.6331C12.9963 66.8757 15.759 73.6065 15.2533 82.0812Z" fill="black"/>
</g>
<path d="M16.4734 78.5052H16.4478C16.3944 78.4954 16.347 78.4648 16.3161 78.4202C16.2852 78.3756 16.2733 78.3205 16.2829 78.267C17.8987 69.7703 14.9309 60.2256 11.2559 56.2502C11.227 56.2094 11.214 56.1594 11.2193 56.1097C11.2247 56.06 11.248 56.014 11.2849 55.9803C11.3218 55.9465 11.3697 55.9274 11.4197 55.9265C11.4697 55.9256 11.5182 55.943 11.5563 55.9754C15.2973 60.0058 18.3238 69.719 16.6859 78.3257C16.6796 78.3768 16.6541 78.4237 16.6148 78.457C16.5754 78.4902 16.5249 78.5074 16.4734 78.5052Z" fill="white"/>
<path d="M7.54422 86.533C7.07889 86.7675 5.84412 85.7123 5.4997 85.4521C4.91253 85.0025 4.45076 84.4095 4.15867 83.73C3.82825 82.9596 3.74628 82.1054 3.92417 81.2862C4.0167 80.8532 4.13912 80.4272 4.29057 80.0111C4.43347 79.6007 4.5727 79.1867 4.7156 78.7763C4.88159 78.3796 4.96512 77.9533 4.96109 77.5233C4.89513 76.6586 4.16599 76.021 3.49548 75.4678C2.76267 74.8596 2.00056 74.0608 2.05918 73.0312C2.14769 72.2315 2.49957 71.4839 3.05946 70.9061C3.58341 70.3052 4.19531 69.7849 4.67529 69.1474C5.04744 68.705 5.25919 68.1498 5.27619 67.5719C5.24613 67.2155 5.1439 66.869 4.97574 66.5533C4.64598 65.8608 4.19531 65.2233 3.98279 64.4905C3.77028 63.7577 3.84722 62.86 4.43713 62.3727C4.92078 61.9697 5.60962 61.9477 6.2325 62.0063C6.81541 62.1086 7.36919 62.3361 7.85567 62.6731C9.44585 63.6661 10.2849 65.652 11.985 66.4397C12.664 66.6891 13.3578 66.8959 14.0625 67.0589C14.7514 67.2788 15.4475 67.6745 15.737 68.334C16.3122 69.642 15.0481 71.1516 15.4292 72.5256C15.7663 73.742 16.8948 74.2587 17.503 75.3725C17.7455 75.8624 17.8251 76.417 17.7302 76.9553C17.6266 77.8673 17.3572 78.7527 16.9351 79.5678C16.4611 80.4052 15.9362 81.2128 15.3633 81.986C15.3633 81.986 7.61751 86.4963 7.54422 86.533Z" fill="#FFBE93"/>
<path d="M12.051 84.1844C12.024 84.1821 11.9977 84.1744 11.9737 84.1619C11.9497 84.1494 11.9284 84.1323 11.911 84.1115C11.8936 84.0908 11.8805 84.0667 11.8725 84.0409C11.8644 84.015 11.8616 83.9878 11.8641 83.9609C12.5969 75.9001 9.248 66.7402 6.60258 64.0178C6.58374 63.9991 6.5688 63.9768 6.5586 63.9523C6.5484 63.9278 6.54315 63.9015 6.54315 63.8749C6.54315 63.8484 6.5484 63.8221 6.5586 63.7975C6.5688 63.773 6.58374 63.7508 6.60258 63.732C6.62105 63.7127 6.64323 63.6974 6.66779 63.6869C6.69235 63.6764 6.71877 63.671 6.74548 63.671C6.77218 63.671 6.7986 63.6764 6.82316 63.6869C6.84772 63.6974 6.8699 63.7127 6.88837 63.732C9.58509 66.524 13.0183 75.8048 12.2635 83.9938C12.2597 84.047 12.2355 84.0966 12.1958 84.1321C12.1561 84.1677 12.1042 84.1864 12.051 84.1844Z" fill="white"/>
<path d="M11.2485 74.2257H11.1899C9.2975 73.6017 7.34287 73.1852 5.36045 72.9836C5.30661 72.978 5.25714 72.9514 5.22283 72.9095C5.18851 72.8677 5.17213 72.814 5.17725 72.7601C5.17906 72.7334 5.18626 72.7073 5.19842 72.6835C5.21058 72.6597 5.22744 72.6386 5.24799 72.6214C5.26854 72.6043 5.29235 72.5916 5.31797 72.5839C5.3436 72.5762 5.37052 72.5738 5.39709 72.5769C7.41449 72.7794 9.40367 73.2021 11.3291 73.8373C11.3546 73.8458 11.378 73.8595 11.398 73.8774C11.418 73.8953 11.4341 73.9171 11.4454 73.9414C11.4567 73.9657 11.463 73.9921 11.4638 74.0189C11.4646 74.0458 11.4599 74.0725 11.4501 74.0974C11.4341 74.1372 11.406 74.1709 11.3699 74.1939C11.3337 74.2169 11.2913 74.228 11.2485 74.2257Z" fill="white"/>
<path d="M152.577 83.2794L148.888 81.1652C148.888 81.1652 147.983 73.2657 148.584 67.1505C149.43 58.5548 154.981 48.2114 161.602 50.6406C168.223 53.0698 158.564 61.8231 156.417 69.1144C154.27 76.4057 152.577 83.2794 152.577 83.2794Z" fill="#FFBE93"/>
<path opacity="0.15" d="M152.577 83.2794L148.888 81.1652C148.888 81.1652 147.983 73.2657 148.584 67.1505C149.43 58.5548 154.981 48.2114 161.602 50.6406C168.223 53.0698 158.564 61.8231 156.417 69.1144C154.27 76.4057 152.577 83.2794 152.577 83.2794Z" fill="black"/>
<path d="M150.639 82.3853C150.699 82.3825 150.755 82.3563 150.795 82.3124C150.836 82.2685 150.857 82.2105 150.855 82.1508C150.207 63.0542 159.715 53.4436 159.81 53.352C159.851 53.309 159.874 53.2519 159.874 53.1926C159.874 53.1332 159.851 53.0761 159.81 53.0332C159.79 53.0121 159.765 52.9954 159.738 52.984C159.711 52.9726 159.682 52.9667 159.653 52.9667C159.623 52.9667 159.594 52.9726 159.567 52.984C159.54 52.9954 159.515 53.0121 159.495 53.0332C159.396 53.1285 149.749 62.8746 150.405 82.1692C150.405 82.1988 150.412 82.228 150.425 82.255C150.437 82.282 150.455 82.3063 150.476 82.3264C150.498 82.3466 150.524 82.3621 150.552 82.3723C150.58 82.3824 150.609 82.3868 150.639 82.3853Z" fill="white"/>
<path d="M154.897 84.6094L152.273 83.0925C152.273 83.0925 151.826 77.6735 154.472 71.0893C156.787 65.3552 162.532 60.5993 165.412 61.5996C168.292 62.5999 168.23 64.6444 166.823 66.7951C165.416 68.9459 156.861 74.0608 154.897 84.6094Z" fill="#FFBE93"/>
<path d="M153.512 84.0305C153.541 84.0305 153.57 84.0247 153.597 84.0134C153.624 84.0021 153.648 83.9856 153.668 83.9648C153.689 83.944 153.705 83.9193 153.716 83.8922C153.727 83.8651 153.732 83.8361 153.731 83.807C153.68 71.7158 165.02 63.5708 165.134 63.4865C165.182 63.4525 165.216 63.4006 165.226 63.3422C165.236 63.2838 165.223 63.2237 165.189 63.1751C165.155 63.1265 165.103 63.0934 165.045 63.0831C164.986 63.0728 164.926 63.0861 164.877 63.1201C164.76 63.2007 153.233 71.4997 153.284 83.807C153.285 83.8666 153.31 83.9234 153.352 83.9652C153.395 84.0071 153.452 84.0305 153.512 84.0305Z" fill="white"/>
<path d="M119.242 129.563C90.2962 116.416 65.0584 101.804 43.1146 85.595C40.8502 83.7153 41.4438 81.8467 43.481 80.6816C45.5182 79.5164 48.8818 79.5824 51.0325 80.8208L127.296 124.873C129.446 126.115 129.556 128.068 127.537 129.233C125.518 130.398 122.323 130.768 119.242 129.563Z" fill="#E0E0E0"/>
<path d="M80.6122 115.739C91.0094 115.739 99.438 110.871 99.438 104.867C99.438 98.8636 91.0094 93.9965 80.6122 93.9965C70.215 93.9965 61.7864 98.8636 61.7864 104.867C61.7864 110.871 70.215 115.739 80.6122 115.739Z" fill="#E0E0E0"/>
<path d="M86.8191 84.4628L83.2246 82.389C83.127 82.3331 83.0165 82.3036 82.904 82.3036C82.7916 82.3036 82.681 82.3331 82.5834 82.389L77.5784 85.2799C77.4806 85.3363 77.3993 85.4175 77.3427 85.5152C77.2861 85.613 77.2562 85.7239 77.256 85.8368V86.1592C77.2569 86.272 77.2872 86.3826 77.3437 86.4802C77.4002 86.5778 77.4811 86.6591 77.5784 86.7161L81.1765 88.7936C81.2747 88.8495 81.3858 88.8789 81.4989 88.8789C81.6119 88.8789 81.7231 88.8495 81.8213 88.7936L86.8191 85.9284C86.9164 85.8717 86.9972 85.7904 87.0531 85.6927C87.1091 85.5949 87.1383 85.4841 87.1378 85.3715V85.049C87.1428 84.9316 87.1158 84.815 87.0596 84.7118C87.0035 84.6085 86.9203 84.5225 86.8191 84.4628Z" fill="#FFBE93"/>
<path opacity="0.2" d="M86.8191 84.4628L83.2246 82.389C83.127 82.3331 83.0165 82.3036 82.904 82.3036C82.7916 82.3036 82.681 82.3331 82.5834 82.389L77.5784 85.2799C77.4806 85.3363 77.3993 85.4175 77.3427 85.5152C77.2861 85.613 77.2562 85.7239 77.256 85.8368V86.1592C77.2569 86.272 77.2872 86.3826 77.3437 86.4802C77.4002 86.5778 77.4811 86.6591 77.5784 86.7161L81.1765 88.7936C81.2747 88.8495 81.3858 88.8789 81.4989 88.8789C81.6119 88.8789 81.7231 88.8495 81.8213 88.7936L86.8191 85.9284C86.9164 85.8717 86.9972 85.7904 87.0531 85.6927C87.1091 85.5949 87.1383 85.4841 87.1378 85.3715V85.049C87.1428 84.9316 87.1158 84.815 87.0596 84.7118C87.0035 84.6085 86.9203 84.5225 86.8191 84.4628Z" fill="black"/>
<path d="M81.1985 87.7604C81.2899 87.8128 81.3935 87.8403 81.4989 87.8403C81.6043 87.8403 81.7079 87.8128 81.7994 87.7604L87.0536 84.7156C86.9969 84.6185 86.9161 84.5378 86.8191 84.4811L85.8151 83.9022L83.2247 82.4073C83.1271 82.3514 83.0165 82.322 82.9041 82.322C82.7916 82.322 82.681 82.3514 82.5835 82.4073L81.9752 82.7737L77.5784 85.3128C77.4806 85.3685 77.3996 85.4495 77.3439 85.5473L81.1985 87.7604Z" fill="#FFBE93"/>
<path d="M79.7731 79.4358L83.221 81.2092L87.6141 74.9438L82.5028 72.1518L79.7731 79.4358Z" fill="#FFA8A7"/>
<path d="M89.3509 89.8415C89.3062 90.2209 89.1173 90.5686 88.8233 90.8125C88.5485 91.0397 86.6249 91.1789 84.6206 90.0797C83.1451 89.2511 81.9181 88.043 81.0665 86.5806C80.5243 85.6903 79.7548 85.2066 78.7619 84.6643C77.7689 84.1221 76.6697 82.9862 76.6734 82.4037C76.677 81.8211 77.3182 81.1213 77.3182 81.1213L89.3509 89.8415Z" fill="#37474F"/>
<path d="M84.0784 79.4908L84.2579 79.5348C84.3582 79.5507 84.4535 79.5895 84.5364 79.6483C84.6215 79.7253 84.6816 79.8262 84.7086 79.9378C84.787 80.2907 84.8324 80.6501 84.8442 81.0113C84.9431 81.92 85.577 82.9313 86.3098 83.9425C86.8117 84.6204 87.3357 85.2139 87.8853 85.8515C88.4349 86.489 89.2886 87.1448 89.6697 87.7787C90.2193 88.7057 89.6697 90.1237 88.5008 90.2299C87.4859 90.3215 85.1593 89.8379 83.2613 88.1818C82.228 87.2804 81.5026 85.3788 79.9966 84.5178C79.0367 83.9682 77.2816 82.7994 76.9995 81.7405C76.9189 81.2898 77.7323 80.3775 78.4321 79.5824C79.1906 78.714 80.1982 77.2777 80.4876 77.5196C80.4524 77.5908 80.4341 77.6691 80.4341 77.7486C80.4341 77.828 80.4524 77.9064 80.4876 77.9776C80.568 78.1554 80.6573 78.329 80.7551 78.4979C80.878 78.8358 80.9376 79.1935 80.931 79.5531C80.9239 79.7115 80.9733 79.8673 81.0702 79.9928C81.2094 80.1356 81.3853 80.088 81.5648 80.0917C81.7921 80.0939 82.0108 80.1785 82.1804 80.3298C82.254 80.122 82.3116 79.9089 82.3526 79.6923C82.3506 79.6557 82.3561 79.619 82.3689 79.5846C82.3817 79.5502 82.4014 79.5188 82.4268 79.4923C82.4523 79.4658 82.4829 79.4449 82.5167 79.4308C82.5506 79.4166 82.587 79.4096 82.6237 79.4102C83.1089 79.3352 83.6044 79.3627 84.0784 79.4908Z" fill="#455A64"/>
<path d="M85.6392 82.9496C85.6319 82.7786 85.5818 82.6122 85.4935 82.4656C85.4051 82.319 85.2814 82.1969 85.1336 82.1105C84.7196 81.8101 83.7633 81.7661 83.0708 81.942C83.0054 81.9577 82.9449 81.9892 82.8946 82.0337C82.8443 82.0783 82.8056 82.1345 82.7821 82.1974C82.7586 82.2604 82.7509 82.3282 82.7597 82.3948C82.7685 82.4614 82.7935 82.5248 82.8326 82.5795C82.8821 82.6481 82.9517 82.6998 83.0317 82.7273C83.1117 82.7549 83.1983 82.757 83.2796 82.7334C84.0644 82.4961 84.9107 82.5737 85.6392 82.9496Z" fill="#F5F5F5"/>
<path d="M86.6725 84.4005C86.6397 84.2146 86.5627 84.0393 86.4479 83.8894C86.3331 83.7396 86.1839 83.6195 86.013 83.5395C86.013 83.5395 84.8112 83.0119 83.7559 83.349C83.6936 83.3659 83.6362 83.3975 83.5885 83.441C83.5408 83.4845 83.5042 83.5388 83.4816 83.5993C83.4591 83.6598 83.4512 83.7249 83.4588 83.789C83.4664 83.8531 83.4891 83.9146 83.5251 83.9682C83.5732 84.0343 83.6406 84.0838 83.718 84.1101C83.7954 84.1363 83.8791 84.1379 83.9574 84.1147C84.4024 83.9555 84.8775 83.8985 85.3476 83.9479C85.8176 83.9974 86.2704 84.1521 86.6725 84.4005Z" fill="#F5F5F5"/>
<path d="M87.889 85.8405C87.8365 85.6587 87.7455 85.4904 87.6222 85.3469C87.499 85.2034 87.3463 85.088 87.1745 85.0088C86.4811 84.7319 85.7179 84.6819 84.9944 84.8659C84.9322 84.8823 84.8748 84.9134 84.827 84.9566C84.7793 84.9998 84.7426 85.0537 84.72 85.114C84.6974 85.1743 84.6895 85.2391 84.6971 85.303C84.7047 85.3669 84.7275 85.4281 84.7636 85.4814C84.8109 85.5484 84.8783 85.5986 84.9559 85.6249C85.0336 85.6512 85.1176 85.6523 85.1959 85.628C85.6305 85.4518 86.1001 85.3793 86.5675 85.4162C87.035 85.4531 87.4874 85.5984 87.889 85.8405Z" fill="#F5F5F5"/>
<path d="M90.2632 45.0054C90.2632 45.0054 96.144 55.0154 97.9357 58.694C99.5186 61.9403 100.028 63.5378 95.6677 67.9529C91.3075 72.368 85.8078 77.8457 85.8078 77.8457C85.8078 77.8457 83.0085 77.9409 82.1987 75.4018C83.6094 71.6279 86.2035 64.8056 89.8675 63.1751L82.8216 54.0738L90.2632 45.0054Z" fill="#39566C"/>
<path d="M112.434 105.681C112.333 105.681 112.233 105.651 112.149 105.595C112.064 105.539 111.998 105.459 111.958 105.366L108.767 98.0195C108.756 97.9959 108.747 97.9714 108.741 97.9462L102.878 75.9367C102.859 75.87 102.853 75.8001 102.861 75.731C102.869 75.662 102.891 75.5953 102.925 75.5348C102.959 75.4743 103.005 75.4213 103.06 75.3788C103.115 75.3363 103.178 75.3052 103.245 75.2874C103.313 75.2696 103.383 75.2654 103.451 75.275C103.52 75.2846 103.586 75.3079 103.646 75.3435C103.706 75.379 103.758 75.4262 103.799 75.4821C103.84 75.5381 103.87 75.6017 103.886 75.6692L109.749 97.6531L112.922 104.981C112.949 105.044 112.963 105.111 112.965 105.18C112.966 105.248 112.953 105.316 112.928 105.38C112.903 105.444 112.865 105.502 112.818 105.551C112.77 105.6 112.713 105.639 112.65 105.666C112.58 105.686 112.507 105.691 112.434 105.681Z" fill="#FFBE93"/>
<path opacity="0.5" d="M112.434 105.681C112.333 105.681 112.233 105.651 112.149 105.595C112.064 105.539 111.998 105.459 111.958 105.366L108.767 98.0195C108.756 97.9959 108.747 97.9714 108.741 97.9462L102.878 75.9367C102.859 75.87 102.853 75.8001 102.861 75.731C102.869 75.662 102.891 75.5953 102.925 75.5348C102.959 75.4743 103.005 75.4213 103.06 75.3788C103.115 75.3363 103.178 75.3052 103.245 75.2874C103.313 75.2696 103.383 75.2654 103.451 75.275C103.52 75.2846 103.586 75.3079 103.646 75.3435C103.706 75.379 103.758 75.4262 103.799 75.4821C103.84 75.5381 103.87 75.6017 103.886 75.6692L109.749 97.6531L112.922 104.981C112.949 105.044 112.963 105.111 112.965 105.18C112.966 105.248 112.953 105.316 112.928 105.38C112.903 105.444 112.865 105.502 112.818 105.551C112.77 105.6 112.713 105.639 112.65 105.666C112.58 105.686 112.507 105.691 112.434 105.681Z" fill="black"/>
<path d="M114.918 86.2948L113.958 85.7379C111.599 84.3749 109.364 83.719 107.363 83.6897H107.187C106.843 83.6887 106.499 83.7083 106.158 83.7483C104.652 83.9109 103.194 84.3757 101.872 85.1148C100.55 85.8539 99.3906 86.8522 98.4633 88.0499C98.4267 88.0902 98.39 88.1341 98.3571 88.1781C98.3241 88.2221 98.2288 88.3393 98.1702 88.4236L98.053 88.5885C98.0017 88.6581 97.9577 88.7277 97.9101 88.7973C97.8258 88.9329 97.7378 89.0684 97.6572 89.2113L97.5693 89.3652C97.5327 89.4312 97.496 89.5008 97.4594 89.5741V89.5961C96.5638 91.2485 96.0965 93.099 96.1 94.9785V97.1549C96.1 106.758 102.838 118.428 111.152 123.224L112.112 123.781C114.471 125.144 116.703 125.8 118.707 125.829H119.359C119.471 125.834 119.583 125.824 119.693 125.8L119.858 125.782C119.888 125.783 119.919 125.783 119.949 125.782C121.507 125.609 123.013 125.115 124.369 124.329C125.725 123.543 126.903 122.483 127.827 121.216C127.904 121.11 127.981 121 128.054 120.89L128.083 120.853C128.168 120.725 128.252 120.593 128.332 120.458C129.425 118.684 130.002 116.642 130 114.559V112.36C129.97 102.757 123.239 91.0836 114.918 86.2948ZM111.621 120.253C104.604 116.2 98.914 106.329 98.914 98.2431C98.914 90.1566 104.604 86.8554 111.621 90.9151C118.637 94.9748 124.339 104.805 124.339 112.91C124.339 121.015 118.634 124.298 111.617 120.245L111.621 120.253Z" fill="#455A64"/>
<path d="M112.097 87.9179L111.148 87.361C107.037 84.9867 103.311 84.7413 100.592 86.2618C100.523 86.3021 100.453 86.3424 100.383 86.3901L100.332 86.4194L100.086 86.5769C100.01 86.6282 99.9289 86.6832 99.852 86.7418C99.6933 86.8546 99.5415 86.977 99.3976 87.1082L99.1815 87.3024C99.0341 87.4345 98.8946 87.5752 98.7638 87.7237C98.6942 87.797 98.6282 87.874 98.5659 87.9509C98.5036 88.0278 98.4377 88.1011 98.3754 88.1817C98.3131 88.2623 98.2471 88.343 98.1885 88.4272L98.0713 88.5921C98.02 88.6617 97.976 88.7313 97.9284 88.801C97.8441 88.9365 97.7562 89.0721 97.6756 89.215L97.5876 89.3689C97.551 89.4348 97.5143 89.5044 97.4777 89.5777L97.3751 89.7866C97.2444 90.0437 97.1282 90.3079 97.027 90.578C96.9684 90.7245 96.9098 90.8674 96.8621 91.0177V91.036C96.7705 91.3071 96.6863 91.5892 96.6093 91.8787C96.569 92.0326 96.5287 92.1901 96.4921 92.355C96.4554 92.5199 96.4115 92.7214 96.3748 92.9083C96.3673 92.9985 96.3526 93.0879 96.3309 93.1757C96.3015 93.3296 96.2832 93.4872 96.2612 93.6411C96.2393 93.795 96.2173 94.0075 96.199 94.1723V94.2566C96.199 94.4105 96.1733 94.5644 96.1623 94.7219V94.9088C96.1623 95.0774 96.1403 95.2532 96.1367 95.4291C96.133 95.605 96.1367 95.8468 96.1367 96.0593V97.1585C96.1367 106.762 102.875 118.432 111.188 123.228L112.148 123.785C114.563 125.177 116.842 125.84 118.865 125.84H119.381C119.493 125.845 119.605 125.835 119.715 125.811L119.88 125.792C119.991 125.783 120.103 125.769 120.213 125.749C120.311 125.743 120.408 125.726 120.502 125.697L120.785 125.639C120.964 125.595 121.151 125.547 121.312 125.492L121.532 125.422C121.616 125.393 121.697 125.367 121.774 125.334C121.851 125.302 121.909 125.283 121.975 125.25C122.118 125.192 122.261 125.129 122.4 125.056C122.47 125.027 122.54 124.986 122.609 124.95L122.664 124.917C122.693 124.906 122.72 124.891 122.745 124.873L122.877 124.8C125.551 123.206 127.197 119.857 127.197 115.108V114.009C127.145 104.388 120.407 92.7141 112.097 87.9179ZM111.617 120.245C104.601 116.193 98.9103 106.322 98.9103 98.2357C98.9103 90.1493 104.601 86.848 111.617 90.9077C118.634 94.9674 124.339 104.805 124.339 112.91C124.339 121.015 118.634 124.298 111.617 120.245Z" fill="#37474F"/>
<path d="M121.067 118.171C119.059 120.564 115.571 120.905 111.617 118.618C105.388 115.017 100.321 106.26 100.321 99.0528C100.321 95.8358 101.332 93.4725 103.007 92.1608C101.838 93.5421 101.175 95.6013 101.175 98.2394C101.175 105.443 106.235 114.203 112.471 117.805C115.911 119.795 118.997 119.791 121.067 118.171Z" fill="#FFBE93"/>
<path opacity="0.2" d="M121.067 118.171C119.059 120.564 115.571 120.905 111.617 118.618C105.388 115.017 100.321 106.26 100.321 99.0528C100.321 95.8358 101.332 93.4725 103.007 92.1608C101.838 93.5421 101.175 95.6013 101.175 98.2394C101.175 105.443 106.235 114.203 112.471 117.805C115.911 119.795 118.997 119.791 121.067 118.171Z" fill="black"/>
<path d="M111.617 90.9004C104.597 86.8481 98.9103 90.1347 98.9103 98.2284C98.9103 106.322 104.597 116.182 111.617 120.238C118.637 124.294 124.324 121.007 124.324 112.91C124.324 104.813 118.634 94.9528 111.617 90.9004ZM111.617 118.615C105.388 115.013 100.321 106.256 100.321 99.0528C100.321 91.8494 105.377 88.9292 111.617 92.5309C117.857 96.1326 122.91 104.89 122.91 112.093C122.91 119.296 117.853 122.202 111.617 118.615Z" fill="#FFBE93"/>
<path d="M122.529 108.51C122.503 108.385 122.477 108.257 122.448 108.143L112.614 105.49L121.407 104.706L121.276 104.369L112.39 105.164L119.623 100.987C119.568 100.888 119.506 100.79 119.447 100.687L112.218 104.864L117.322 97.6018L117.095 97.3197L112.039 104.505L114.647 94.7623C114.552 94.6743 114.457 94.5864 114.358 94.5021L111.793 104.083V92.6372L111.621 92.5309L111.445 92.4356V103.688L108.92 91.3511L108.554 91.2485L111.042 103.42L106.224 90.9994C106.103 90.9994 105.982 91.0177 105.857 91.0287L110.646 103.362L103.857 91.6186C103.754 91.6735 103.652 91.7285 103.553 91.7871L110.335 103.538L102.006 93.1721C101.933 93.2674 101.864 93.3663 101.794 93.4652L110.188 103.908L100.797 95.5793C100.761 95.7002 100.724 95.8248 100.691 95.9457L110.218 104.395L100.325 98.6864V99.0858L110.39 104.897L100.64 102.284C100.662 102.409 100.687 102.537 100.713 102.651L110.628 105.307L101.713 106.106C101.754 106.22 101.798 106.329 101.842 106.443L110.851 105.637L103.479 109.895L103.648 110.199L111.024 105.937L105.799 113.375L106.022 113.657L111.199 106.296L108.51 116.339L108.803 116.6L111.441 106.743V118.527L111.617 118.633L111.789 118.728V107.125L114.387 119.817L114.754 119.915L112.189 107.388L117.135 120.135C117.258 120.131 117.38 120.12 117.502 120.102L112.614 107.447L119.542 119.447C119.641 119.392 119.74 119.333 119.839 119.267L112.914 107.275L121.356 117.805C121.426 117.71 121.495 117.611 121.561 117.508L113.042 106.912L122.507 115.299C122.543 115.174 122.573 115.05 122.602 114.932L113.017 106.414L122.91 112.126V111.726L112.856 105.919L122.529 108.51Z" fill="#EBEBEB"/>
<path d="M112.269 100.313C111.068 99.617 109.987 99.5804 109.214 100.06C109.056 100.159 108.847 100.247 108.657 100.368C108.598 100.401 108.547 100.438 108.492 100.474L108.462 100.493C108.39 100.546 108.32 100.604 108.254 100.665L108.21 100.709C108.151 100.768 108.096 100.83 108.041 100.896L107.986 100.969C107.938 101.031 107.894 101.096 107.854 101.163L107.792 101.277C107.759 101.343 107.726 101.405 107.697 101.475C107.672 101.526 107.651 101.578 107.634 101.632C107.609 101.694 107.587 101.757 107.565 101.826C107.543 101.896 107.528 101.962 107.51 102.035C107.491 102.109 107.48 102.152 107.469 102.218C107.458 102.284 107.44 102.402 107.429 102.493L107.407 102.651C107.407 102.801 107.385 102.959 107.385 103.12C107.385 105.82 109.283 109.107 111.624 110.448C111.771 110.532 111.914 110.605 112.057 110.671C112.141 110.712 112.225 110.741 112.31 110.774C112.394 110.807 112.423 110.821 112.482 110.84C112.537 110.859 112.593 110.874 112.65 110.887C112.73 110.914 112.811 110.936 112.892 110.953H112.988C113.088 110.973 113.19 110.988 113.292 110.997H113.31C113.794 111.042 114.279 110.928 114.691 110.671C114.896 110.55 115.08 110.462 115.31 110.323C116.043 109.876 116.516 108.938 116.516 107.612C116.509 104.948 114.611 101.684 112.269 100.313ZM111.06 108.451C110.327 107.887 109.316 106.172 108.917 105.216C109.153 105.38 109.397 105.532 109.65 105.67C110.749 106.238 110.723 105.468 111.17 106.003C111.617 106.538 111.537 107.835 111.17 108.531C111.13 108.51 111.093 108.483 111.06 108.451ZM113.207 103.435C113.145 103.456 113.085 103.483 113.028 103.516L112.379 103.882C112.242 103.956 112.129 104.068 112.053 104.204C111.507 103.647 110.873 101.874 110.925 101.039C111.874 101.365 113.453 102.68 113.695 103.189C113.714 103.228 113.729 103.268 113.739 103.31C113.558 103.334 113.38 103.375 113.207 103.435ZM109.994 102.874C110.36 104.153 110.884 104.34 110.921 104.769C110.086 104.633 108.723 103.823 108.642 103.021C108.615 102.239 108.876 101.474 109.375 100.87C109.727 101.028 109.705 101.826 109.994 102.874ZM112.387 109.59C111.947 109.187 112.438 108.792 112.661 107.96C112.775 107.564 112.775 107.143 112.661 106.747C113.53 107.429 114.831 109.228 114.493 109.759L114.453 109.814C113.713 110.004 112.698 109.876 112.387 109.59ZM114.446 106.813C113.522 105.582 113.16 106.007 112.936 105.347C112.894 105.187 112.9 105.018 112.954 104.861C113.007 104.704 113.106 104.566 113.237 104.464C113.477 104.372 113.741 104.366 113.985 104.448C114.229 104.531 114.436 104.696 114.57 104.915C115.021 105.714 115.27 107.168 115.303 108.073C115.04 107.639 114.754 107.218 114.446 106.813Z" fill="#E0E0E0"/>
<path opacity="0.2" d="M112.269 100.313C111.068 99.617 109.987 99.5804 109.214 100.06C109.056 100.159 108.847 100.247 108.657 100.368C108.598 100.401 108.547 100.438 108.492 100.474L108.462 100.493C108.39 100.546 108.32 100.604 108.254 100.665L108.21 100.709C108.151 100.768 108.096 100.83 108.041 100.896L107.986 100.969C107.938 101.031 107.894 101.096 107.854 101.163L107.792 101.277C107.759 101.343 107.726 101.405 107.697 101.475C107.672 101.526 107.651 101.578 107.634 101.632C107.609 101.694 107.587 101.757 107.565 101.826C107.543 101.896 107.528 101.962 107.51 102.035C107.491 102.109 107.48 102.152 107.469 102.218C107.458 102.284 107.44 102.402 107.429 102.493L107.407 102.651C107.407 102.801 107.385 102.959 107.385 103.12C107.385 105.82 109.283 109.107 111.624 110.448C111.771 110.532 111.914 110.605 112.057 110.671C112.141 110.712 112.225 110.741 112.31 110.774C112.394 110.807 112.423 110.821 112.482 110.84C112.537 110.859 112.593 110.874 112.65 110.887C112.73 110.914 112.811 110.936 112.892 110.953H112.988C113.088 110.973 113.19 110.988 113.292 110.997H113.31C113.794 111.042 114.279 110.928 114.691 110.671C114.896 110.55 115.08 110.462 115.31 110.323C116.043 109.876 116.516 108.938 116.516 107.612C116.509 104.948 114.611 101.684 112.269 100.313ZM111.06 108.451C110.327 107.887 109.316 106.172 108.917 105.216C109.153 105.38 109.397 105.532 109.65 105.67C110.749 106.238 110.723 105.468 111.17 106.003C111.617 106.538 111.537 107.835 111.17 108.531C111.13 108.51 111.093 108.483 111.06 108.451ZM113.207 103.435C113.145 103.456 113.085 103.483 113.028 103.516L112.379 103.882C112.242 103.956 112.129 104.068 112.053 104.204C111.507 103.647 110.873 101.874 110.925 101.039C111.874 101.365 113.453 102.68 113.695 103.189C113.714 103.228 113.729 103.268 113.739 103.31C113.558 103.334 113.38 103.375 113.207 103.435ZM109.994 102.874C110.36 104.153 110.884 104.34 110.921 104.769C110.086 104.633 108.723 103.823 108.642 103.021C108.615 102.239 108.876 101.474 109.375 100.87C109.727 101.028 109.705 101.826 109.994 102.874ZM112.387 109.59C111.947 109.187 112.438 108.792 112.661 107.96C112.775 107.564 112.775 107.143 112.661 106.747C113.53 107.429 114.831 109.228 114.493 109.759L114.453 109.814C113.713 110.004 112.698 109.876 112.387 109.59ZM114.446 106.813C113.522 105.582 113.16 106.007 112.936 105.347C112.894 105.187 112.9 105.018 112.954 104.861C113.007 104.704 113.106 104.566 113.237 104.464C113.477 104.372 113.741 104.366 113.985 104.448C114.229 104.531 114.436 104.696 114.57 104.915C115.021 105.714 115.27 107.168 115.303 108.073C115.04 107.639 114.754 107.218 114.446 106.813Z" fill="black"/>
<path d="M111.617 100.68C109.276 99.3313 107.378 100.427 107.378 103.127C107.378 105.827 109.276 109.114 111.617 110.455C113.958 111.796 115.849 110.708 115.849 108.008C115.849 105.307 113.955 102.05 111.617 100.68ZM110.566 100.969C111.405 100.969 113.416 102.614 113.695 103.193C113.973 103.772 113.237 103.559 112.562 103.801C111.705 104.105 112.112 104.933 111.606 104.728C110.87 104.421 109.734 100.951 110.566 100.969ZM109.316 100.841C109.749 100.914 109.683 101.757 110.005 102.874C110.397 104.289 111.013 104.38 110.925 104.908C110.796 105.681 108.133 104.541 107.993 103.384C107.854 102.226 108.873 100.764 109.316 100.841ZM110.415 108.817C109.499 108.106 108.111 105.553 108.1 105.018C108.089 104.483 108.796 105.219 109.661 105.67C110.76 106.238 110.734 105.468 111.181 106.003C111.841 106.784 111.328 109.532 110.415 108.817ZM114.482 109.744C114.046 110.44 112.181 110.345 111.738 109.942C111.295 109.539 111.789 109.147 112.017 108.308C112.302 107.249 111.672 106.678 112.039 106.476C112.57 106.209 114.922 109.063 114.482 109.744ZM113.808 107.179C112.889 105.956 112.522 106.373 112.302 105.714C111.973 104.754 113.937 103.772 114.581 104.915C115.226 106.058 115.461 108.553 115.201 108.839C114.94 109.125 114.537 108.136 113.808 107.179Z" fill="#E0E0E0"/>
<path d="M111.617 107.07C112.35 107.484 112.911 107.147 112.911 106.337C112.887 105.887 112.757 105.449 112.532 105.059C112.308 104.669 111.994 104.337 111.617 104.091C110.884 103.677 110.32 104.014 110.32 104.824C110.344 105.274 110.474 105.712 110.7 106.102C110.925 106.492 111.239 106.824 111.617 107.07Z" fill="#455A64"/>
<path d="M59.8518 54.5024L58.8919 53.9455C56.5322 52.5825 54.3008 51.9267 52.2966 51.8974H52.1207C51.7779 51.8963 51.4353 51.9158 51.0948 51.956C49.5891 52.1179 48.1316 52.582 46.8094 53.3205C45.4873 54.059 44.3278 55.0567 43.4004 56.2538L43.2941 56.3857C43.2282 56.4663 43.1659 56.5469 43.1073 56.6312L42.99 56.7961C42.9387 56.8657 42.8947 56.9353 42.8471 57.0049C42.7628 57.1405 42.6749 57.2761 42.5943 57.419L42.5064 57.5729L42.3964 57.7817V57.8037C41.5005 59.456 41.0331 61.3065 41.0371 63.1861V65.3625C41.0371 74.9621 47.7752 86.6355 56.0889 91.4317L57.0489 91.9886C59.4085 93.3516 61.6399 94.0075 63.6441 94.0368H64.2963C64.4082 94.0416 64.5203 94.0317 64.6297 94.0075L64.7946 93.9892C64.8251 93.9912 64.8557 93.9912 64.8862 93.9892C66.4444 93.8171 67.9496 93.3222 69.3059 92.5362C70.6622 91.7502 71.8399 90.6902 72.7639 89.4238L72.9947 89.0977L73.0203 89.0574C73.1046 88.9329 73.1889 88.801 73.2732 88.6654C74.3626 86.8908 74.9385 84.8487 74.9366 82.7664V80.568C74.9146 70.972 68.1765 59.2986 59.8518 54.5024ZM56.5542 88.4602C49.5376 84.4079 43.8474 74.5371 43.8474 66.4507C43.8474 58.3643 49.5376 55.063 56.5542 59.1227C63.5708 63.1824 69.261 73.0275 69.261 81.1323C69.261 89.237 63.5781 92.5236 56.5542 88.4602Z" fill="#455A64"/>
<path d="M57.0415 56.1329L56.0816 55.576C51.9705 53.2017 48.2442 52.9562 45.5255 54.4768C45.4559 54.5171 45.3863 54.5574 45.3167 54.605L45.2654 54.6343L45.0199 54.7919C44.9429 54.8432 44.8623 54.8981 44.7854 54.9568C44.6273 55.0705 44.4757 55.1928 44.331 55.3232L44.1149 55.5174C43.9675 55.6495 43.828 55.7902 43.6972 55.9387C43.6275 56.012 43.5616 56.0889 43.4993 56.1659C43.437 56.2428 43.3711 56.3161 43.3088 56.3967C43.2465 56.4773 43.1805 56.5579 43.1219 56.6422L43.0047 56.8071C42.9534 56.8767 42.9094 56.9463 42.8618 57.0159C42.7775 57.1515 42.6896 57.2871 42.6089 57.4299L42.521 57.5838L42.4111 57.7927L42.3085 57.9979C42.1722 58.2561 42.0499 58.5215 41.9421 58.7929C41.8835 58.9395 41.8248 59.0824 41.7772 59.2326C41.6856 59.5038 41.6013 59.7859 41.5244 60.0717C41.4841 60.2292 41.4438 60.3868 41.4071 60.548C41.3705 60.7092 41.3265 60.9144 41.2899 61.1049C41.2824 61.1951 41.2677 61.2845 41.2459 61.3724C41.2166 61.5263 41.1983 61.6838 41.1763 61.8377C41.1543 61.9916 41.1323 62.1858 41.114 62.369V62.4533C41.114 62.6072 41.0884 62.761 41.0774 62.9149V63.1055C41.0774 63.274 41.0554 63.4499 41.0517 63.6257C41.0481 63.8016 41.0517 64.0434 41.0517 64.2559V65.3551C41.0517 74.9548 47.7899 86.6282 56.1035 91.4244L57.0635 91.9813C59.4781 93.3736 61.7571 94.0331 63.7833 94.0331H64.2963C64.4083 94.0379 64.5203 94.0281 64.6297 94.0038L64.7946 93.9855C64.9068 93.9801 65.0183 93.9654 65.128 93.9415L65.4175 93.8902L65.6996 93.8316C65.8792 93.7876 66.066 93.74 66.2272 93.685L66.4471 93.6154C66.5314 93.5861 66.612 93.5605 66.6889 93.5275C66.7576 93.5032 66.8249 93.4751 66.8904 93.4432C67.0333 93.3846 67.1762 93.3223 67.3155 93.249C67.3851 93.2197 67.4547 93.1794 67.5243 93.1428L67.5793 93.1098C67.608 93.0988 67.6351 93.084 67.6599 93.0658L67.7918 92.9925C70.4665 91.3987 72.1117 88.0498 72.1117 83.3013V82.2021C72.0897 72.5988 65.3479 60.929 57.0415 56.1329ZM56.5542 88.4602C49.5376 84.4078 43.8474 74.5371 43.8474 66.4507C43.8474 58.3643 49.5376 55.063 56.5542 59.1227C63.5708 63.1824 69.2611 73.0275 69.2611 81.1322C69.2611 89.237 63.5782 92.5236 56.5542 88.4602Z" fill="#37474F"/>
<path d="M66.0111 86.3827C64.0032 88.7716 60.515 89.1124 56.5615 86.8297C50.3327 83.228 45.2654 74.4711 45.2654 67.2641C45.2654 64.0471 46.2766 61.6838 47.9511 60.3721C46.7823 61.7535 46.1191 63.8126 46.1191 66.4507C46.1191 73.6541 51.1791 82.411 57.4153 86.0163C60.8484 88.0095 63.9409 88.0059 66.0111 86.3827Z" fill="#FFBE93"/>
<path opacity="0.2" d="M66.0111 86.3827C64.0032 88.7716 60.515 89.1124 56.5615 86.8297C50.3327 83.228 45.2654 74.4711 45.2654 67.2641C45.2654 64.0471 46.2766 61.6838 47.9511 60.3721C46.7823 61.7535 46.1191 63.8126 46.1191 66.4507C46.1191 73.6541 51.1791 82.411 57.4153 86.0163C60.8484 88.0095 63.9409 88.0059 66.0111 86.3827Z" fill="black"/>
<path d="M56.5542 59.1154C49.5339 55.063 43.8474 58.3459 43.8474 66.4433C43.8474 74.5407 49.5339 84.3969 56.5542 88.4529C63.5745 92.5089 69.261 89.2186 69.261 81.1249C69.261 73.0312 63.5781 63.1677 56.5542 59.1154ZM56.5542 86.8297C50.3254 83.228 45.258 74.4711 45.258 67.2677C45.258 60.0644 50.3254 57.1442 56.5542 60.7459C62.7831 64.3475 67.8467 73.1045 67.8467 80.3078C67.8467 87.5112 62.7831 90.4314 56.5542 86.8297Z" fill="#FFBE93"/>
<path d="M67.473 76.7245C67.4474 76.5963 67.4217 76.4717 67.3924 76.3581L57.5545 73.72L66.3481 72.9359C66.3042 72.8224 66.2639 72.7124 66.2162 72.5988L57.3346 73.3903L64.5638 69.217C64.5088 69.1181 64.4465 69.0191 64.3879 68.9165L57.1588 73.0898L62.2628 65.8315L62.0356 65.5493L56.9829 72.7381L59.5917 62.9956C59.4964 62.9076 59.4012 62.8197 59.3022 62.7354L56.7374 72.3167V60.8521L56.5652 60.7459L56.3893 60.6506V71.9027L53.8648 59.5661C53.7402 59.5258 53.6157 59.4928 53.4984 59.4635L55.9753 71.6389L51.1571 59.218C51.0342 59.2133 50.9113 59.2231 50.7907 59.2473L55.5759 71.5803L48.7938 59.8555C48.6912 59.9105 48.5886 59.9654 48.4897 60.0241L55.2718 71.7708L46.9508 61.3797C46.8775 61.475 46.8079 61.5739 46.7383 61.6729L55.1326 72.1152L45.7417 63.787C45.705 63.9079 45.6684 64.0325 45.6354 64.1534L55.1619 72.6025L45.269 66.894V67.2934L55.3304 73.1045L45.5805 70.4921C45.6024 70.6166 45.6281 70.7449 45.6537 70.8585L55.5686 73.5148L46.6613 74.3319C46.7016 74.4455 46.7456 74.5554 46.7896 74.669L55.7994 73.8629L48.4201 78.1205L48.5886 78.4246L55.9643 74.1634L50.7394 81.6012L50.9629 81.8834L56.1402 74.5224L53.4544 84.5361L53.7476 84.7962L56.3857 74.9401V86.7235L56.5615 86.8297L56.7337 86.925V75.3358L59.3315 88.0315L59.6979 88.1305L57.1331 75.6033L62.0796 88.3503C62.2022 88.3464 62.3246 88.3354 62.446 88.3173L57.5398 75.6693L64.4685 87.6688C64.5674 87.6138 64.6664 87.5516 64.7653 87.4893L57.8403 75.4971L66.3005 86.02C66.3701 85.9247 66.4397 85.8258 66.5057 85.7232L57.9868 75.1197L67.4547 83.5138C67.4913 83.3893 67.5206 83.2647 67.5499 83.1474L57.9612 74.6434L67.8541 80.3555V79.9561L57.7926 74.1304L67.473 76.7245Z" fill="#EBEBEB"/>
<path d="M57.2137 68.5282C56.0119 67.832 54.931 67.7954 54.1579 68.2717C54.0004 68.3743 53.7915 68.4622 53.601 68.5831C53.5424 68.6161 53.4911 68.6527 53.4361 68.6894L53.4068 68.7077C53.334 68.7611 53.2642 68.8186 53.198 68.8799L53.154 68.9239C53.0954 68.9825 53.0404 69.0411 52.9854 69.1071L52.9305 69.184C52.8824 69.2458 52.8383 69.3107 52.7986 69.3782L52.7363 69.4918C52.7033 69.5577 52.6703 69.62 52.641 69.6896C52.6159 69.7403 52.595 69.793 52.5787 69.8472C52.5531 69.9095 52.5311 69.9718 52.5091 70.0414C52.4882 70.11 52.471 70.1797 52.4578 70.2502C52.4432 70.3235 52.4249 70.3675 52.4139 70.4334C52.4029 70.4994 52.3845 70.6166 52.3736 70.7082L52.3516 70.8658C52.3516 71.016 52.3296 71.1736 52.3296 71.3348C52.3296 74.0351 54.2276 77.3217 56.5689 78.6627C56.7154 78.747 56.8583 78.8203 57.0012 78.8862C57.0836 78.924 57.168 78.957 57.254 78.9852C57.3101 79.0115 57.3676 79.0347 57.4262 79.0548C57.4827 79.074 57.5402 79.0899 57.5985 79.1024C57.6765 79.129 57.756 79.151 57.8366 79.1684H57.9319C58.0324 79.1881 58.1339 79.2028 58.236 79.2123H58.2543C58.7377 79.2604 59.2235 79.147 59.6357 78.8899C59.8408 78.769 60.024 78.681 60.2549 78.5418C60.9877 78.0948 61.4603 77.1568 61.4603 75.8305C61.453 73.1631 59.555 69.8802 57.2137 68.5282ZM56.0046 76.6659C55.2718 76.1016 54.2605 74.3869 53.8611 73.4306C54.0971 73.595 54.3418 73.7466 54.594 73.8849C55.6932 74.4528 55.6675 73.6834 56.1145 74.2183C56.5615 74.7533 56.4809 76.0503 56.1145 76.7465C56.0751 76.7236 56.0383 76.6966 56.0046 76.6659ZM58.1517 71.6389C58.0894 71.6599 58.0293 71.6869 57.9722 71.7195L57.3237 72.0859C57.1862 72.1597 57.0729 72.2717 56.9976 72.4083C56.4516 71.8514 55.8214 70.078 55.869 69.2426C56.818 69.5687 58.3972 70.8841 58.639 71.3934C58.6584 71.4318 58.6731 71.4724 58.683 71.5143C58.5022 71.5381 58.3242 71.5798 58.1517 71.6389ZM54.9384 71.0783C55.3048 72.357 55.8287 72.5439 55.8654 72.9726C55.03 72.837 53.667 72.0273 53.5863 71.2248C53.5599 70.4425 53.8205 69.6775 54.3192 69.0741C54.6709 69.239 54.6489 70.0414 54.9384 71.0893V71.0783ZM57.331 77.7944C56.8913 77.3913 57.3823 76.9956 57.6058 76.1639C57.7186 75.7663 57.7186 75.3451 57.6058 74.9475C58.4742 75.6326 59.7749 77.4316 59.4378 77.9629L59.3975 78.0179C58.6574 78.234 57.6534 78.0911 57.331 77.8054V77.7944ZM59.4012 75.0097C58.4815 73.7786 58.1151 74.2037 57.8916 73.5442C57.8496 73.3837 57.8558 73.2145 57.9092 73.0575C57.9626 72.9005 58.061 72.7627 58.192 72.6611C58.4319 72.5683 58.6968 72.5626 58.9405 72.6449C59.1842 72.7273 59.3913 72.8925 59.5257 73.1118C59.9764 73.9105 60.2256 75.3652 60.2585 76.2702C60.0277 75.9514 59.7529 75.4861 59.4012 75.0207V75.0097Z" fill="#E0E0E0"/>
<path opacity="0.2" d="M57.2137 68.5282C56.0119 67.832 54.931 67.7954 54.1579 68.2717C54.0004 68.3743 53.7915 68.4622 53.601 68.5831C53.5424 68.6161 53.4911 68.6527 53.4361 68.6894L53.4068 68.7077C53.334 68.7611 53.2642 68.8186 53.198 68.8799L53.154 68.9239C53.0954 68.9825 53.0404 69.0411 52.9854 69.1071L52.9305 69.184C52.8824 69.2458 52.8383 69.3107 52.7986 69.3782L52.7363 69.4918C52.7033 69.5577 52.6703 69.62 52.641 69.6896C52.6159 69.7403 52.595 69.793 52.5787 69.8472C52.5531 69.9095 52.5311 69.9718 52.5091 70.0414C52.4882 70.11 52.471 70.1797 52.4578 70.2502C52.4432 70.3235 52.4249 70.3675 52.4139 70.4334C52.4029 70.4994 52.3845 70.6166 52.3736 70.7082L52.3516 70.8658C52.3516 71.016 52.3296 71.1736 52.3296 71.3348C52.3296 74.0351 54.2276 77.3217 56.5689 78.6627C56.7154 78.747 56.8583 78.8203 57.0012 78.8862C57.0836 78.924 57.168 78.957 57.254 78.9852C57.3101 79.0115 57.3676 79.0347 57.4262 79.0548C57.4827 79.074 57.5402 79.0899 57.5985 79.1024C57.6765 79.129 57.756 79.151 57.8366 79.1684H57.9319C58.0324 79.1881 58.1339 79.2028 58.236 79.2123H58.2543C58.7377 79.2604 59.2235 79.147 59.6357 78.8899C59.8408 78.769 60.024 78.681 60.2549 78.5418C60.9877 78.0948 61.4603 77.1568 61.4603 75.8305C61.453 73.1631 59.555 69.8802 57.2137 68.5282ZM56.0046 76.6659C55.2718 76.1016 54.2605 74.3869 53.8611 73.4306C54.0971 73.595 54.3418 73.7466 54.594 73.8849C55.6932 74.4528 55.6675 73.6834 56.1145 74.2183C56.5615 74.7533 56.4809 76.0503 56.1145 76.7465C56.0751 76.7236 56.0383 76.6966 56.0046 76.6659ZM58.1517 71.6389C58.0894 71.6599 58.0293 71.6869 57.9722 71.7195L57.3237 72.0859C57.1862 72.1597 57.0729 72.2717 56.9976 72.4083C56.4516 71.8514 55.8214 70.078 55.869 69.2426C56.818 69.5687 58.3972 70.8841 58.639 71.3934C58.6584 71.4318 58.6731 71.4724 58.683 71.5143C58.5022 71.5381 58.3242 71.5798 58.1517 71.6389ZM54.9384 71.0783C55.3048 72.357 55.8287 72.5439 55.8654 72.9726C55.03 72.837 53.667 72.0273 53.5863 71.2248C53.5599 70.4425 53.8205 69.6775 54.3192 69.0741C54.6709 69.239 54.6489 70.0414 54.9384 71.0893V71.0783ZM57.331 77.7944C56.8913 77.3913 57.3823 76.9956 57.6058 76.1639C57.7186 75.7663 57.7186 75.3451 57.6058 74.9475C58.4742 75.6326 59.7749 77.4316 59.4378 77.9629L59.3975 78.0179C58.6574 78.234 57.6534 78.0911 57.331 77.8054V77.7944ZM59.4012 75.0097C58.4815 73.7786 58.1151 74.2037 57.8916 73.5442C57.8496 73.3837 57.8558 73.2145 57.9092 73.0575C57.9626 72.9005 58.061 72.7627 58.192 72.6611C58.4319 72.5683 58.6968 72.5626 58.9405 72.6449C59.1842 72.7273 59.3913 72.8925 59.5257 73.1118C59.9764 73.9105 60.2256 75.3652 60.2585 76.2702C60.0277 75.9514 59.7529 75.4861 59.4012 75.0207V75.0097Z" fill="black"/>
<path d="M56.5542 68.8946C54.2129 67.5462 52.3149 68.6417 52.3149 71.3421C52.3149 74.0425 54.2129 77.329 56.5542 78.6701C58.8955 80.0111 60.7862 78.9229 60.7862 76.2225C60.7862 73.5222 58.8992 70.2466 56.5542 68.8946ZM55.5026 69.184C56.3417 69.184 58.3533 70.8291 58.6317 71.408C58.9102 71.987 58.1737 71.7744 57.4995 72.0163C56.6422 72.3204 57.0489 73.1484 56.5432 72.9396C55.8214 72.6355 54.6782 69.1694 55.51 69.184H55.5026ZM54.2422 69.0558C54.6746 69.1291 54.6086 69.9718 54.9311 71.0893C55.3231 72.5036 55.9387 72.5952 55.8507 73.1228C55.7225 73.8959 53.0587 72.7381 52.9195 71.5986C52.7803 70.4591 53.8172 68.9788 54.2496 69.0741L54.2422 69.0558ZM55.3414 77.0323C54.4254 76.3214 53.0368 73.7677 53.0258 73.2327C53.0148 72.6978 53.7219 73.4342 54.5866 73.8849C55.6858 74.4528 55.6602 73.6834 56.1072 74.2183C56.7851 74.9988 56.2721 77.7467 55.3561 77.0323H55.3414ZM59.4122 77.9739C58.9761 78.6701 57.1112 78.5748 56.6678 78.1718C56.2245 77.7687 56.7191 77.3767 56.9463 76.5376C57.2321 75.4787 56.6019 74.9071 56.9683 74.7056C57.5142 74.4235 59.8518 77.2777 59.4268 77.9739H59.4122ZM58.7526 75.3835C57.833 74.156 57.4666 74.5774 57.2467 73.9179C56.917 72.9579 58.8809 71.976 59.5257 73.1191C60.1706 74.2623 60.4051 76.7575 60.145 77.0433C59.8848 77.329 59.4854 76.3508 58.7526 75.3835Z" fill="#E0E0E0"/>
<path d="M56.5542 75.3029C57.2687 75.7169 57.8476 75.3798 57.8476 74.5701C57.8237 74.1204 57.6941 73.6827 57.4694 73.2924C57.2447 72.9022 56.9312 72.5704 56.5542 72.324C55.8214 71.91 55.2572 72.2471 55.2572 73.0568C55.2812 73.5069 55.4112 73.9449 55.6366 74.3352C55.862 74.7255 56.1764 75.0571 56.5542 75.3029Z" fill="#455A64"/>
<path d="M103.82 75.4861C103.779 75.4309 103.727 75.3844 103.668 75.3494C103.609 75.3143 103.543 75.2913 103.475 75.2818C103.407 75.2722 103.338 75.2763 103.271 75.2938C103.204 75.3112 103.142 75.3417 103.087 75.3835L101.754 76.3801L101.515 75.4128L79.3884 92.0436C79.3884 92.0436 78.9634 92.2708 78.9377 92.2964L56.906 73.3866C56.8541 73.3417 56.7938 73.3074 56.7286 73.2858C56.6634 73.2643 56.5946 73.2558 56.5262 73.2609C56.4577 73.266 56.3909 73.2846 56.3296 73.3156C56.2684 73.3466 56.2139 73.3894 56.1692 73.4416C56.1245 73.4937 56.0906 73.5542 56.0694 73.6195C56.0482 73.6847 56.0401 73.7536 56.0455 73.822C56.051 73.8905 56.07 73.9572 56.1013 74.0183C56.1326 74.0793 56.1757 74.1336 56.2281 74.178L79.066 93.7803C79.1211 93.8255 79.1799 93.866 79.2419 93.9012C79.3811 93.9858 79.5406 94.0313 79.7035 94.0331C79.9308 94.0253 80.1488 93.9415 80.3227 93.795L102.006 77.5012L103.696 76.2372C103.755 76.1973 103.805 76.1459 103.844 76.0859C103.882 76.0259 103.908 75.9587 103.92 75.8884C103.931 75.8181 103.928 75.7462 103.911 75.677C103.894 75.6078 103.863 75.5428 103.82 75.4861Z" fill="#FFBE93"/>
<path d="M83.3492 81.931C81.2157 81.9218 79.0898 81.6761 77.0105 81.1982H76.9592L56.3857 74.2769C56.2794 74.2414 56.1875 74.1725 56.1236 74.0805C56.0596 73.9885 56.0271 73.8783 56.0308 73.7663C56.0345 73.6544 56.0743 73.5466 56.1441 73.459C56.214 73.3715 56.3103 73.3088 56.4187 73.2803L74.7717 68.3889C75.0502 68.312 75.3177 69.3232 75.0392 69.3965L58.3606 73.8373L77.2633 80.1869C83.5361 81.6012 89.5414 80.8501 93.7514 78.1241C97.3898 75.7682 99.7567 71.9943 100.783 66.9013C100.795 66.8333 100.821 66.7685 100.859 66.7106C100.897 66.6527 100.946 66.6029 101.003 66.5641C101.06 66.5254 101.125 66.4984 101.193 66.4847C101.26 66.4711 101.33 66.4711 101.398 66.4847C101.466 66.4983 101.53 66.5253 101.588 66.564C101.645 66.6028 101.694 66.6525 101.732 66.7104C101.77 66.7683 101.796 66.8331 101.808 66.9011C101.821 66.9691 101.82 67.0389 101.805 67.1065C100.706 72.4853 98.2032 76.4863 94.3193 78.9998C91.3368 80.9344 87.5152 81.931 83.3492 81.931Z" fill="#FFBE93"/>
<path d="M79.4873 93.9892C79.3666 93.9895 79.2495 93.9476 79.1565 93.8706C79.0635 93.7936 79.0003 93.6865 78.978 93.5678L70.4775 49.2483C70.4625 49.1171 70.4976 48.9851 70.5757 48.8787C70.6538 48.7723 70.7692 48.6993 70.8989 48.6743C71.0285 48.6493 71.1628 48.6742 71.2749 48.7439C71.387 48.8136 71.4686 48.9231 71.5034 49.0504L80.004 93.3516C80.0173 93.419 80.0171 93.4884 80.0034 93.5557C79.9898 93.623 79.9629 93.6869 79.9244 93.7438C79.8859 93.8007 79.8366 93.8494 79.7791 93.8871C79.7217 93.9248 79.6574 93.9508 79.5899 93.9635C79.5569 93.976 79.5224 93.9847 79.4873 93.9892Z" fill="#FFBE93"/>
<path d="M92.2382 84.679C92.1313 84.679 92.0271 84.6464 91.9393 84.5855C91.8516 84.5246 91.7845 84.4383 91.7472 84.3382L90.2559 80.3079C90.2086 80.1776 90.2148 80.034 90.2732 79.9083C90.3316 79.7827 90.4373 79.6852 90.5674 79.6373C90.6313 79.6134 90.6994 79.6024 90.7677 79.6049C90.8359 79.6074 90.903 79.6235 90.965 79.6521C91.027 79.6807 91.0827 79.7214 91.129 79.7717C91.1752 79.822 91.2109 79.8809 91.2342 79.9451L92.7255 83.9755C92.7542 84.0543 92.7636 84.1388 92.7529 84.222C92.7422 84.3051 92.7117 84.3845 92.664 84.4534C92.6162 84.5223 92.5526 84.5788 92.4785 84.6181C92.4044 84.6573 92.322 84.6782 92.2382 84.679Z" fill="#FFBE93"/>
<path d="M111.617 106.194C111.543 106.194 111.469 106.178 111.402 106.147C111.334 106.116 111.274 106.071 111.225 106.014L106.117 100.218C106.065 100.158 106.027 100.086 106.008 100.009L100.145 77.9995C100.126 77.9328 100.12 77.8629 100.128 77.7939C100.136 77.7249 100.158 77.6581 100.192 77.5976C100.226 77.5372 100.272 77.4841 100.327 77.4416C100.382 77.3991 100.445 77.3681 100.512 77.3502C100.579 77.3324 100.649 77.3282 100.718 77.3378C100.787 77.3475 100.853 77.3707 100.913 77.4063C100.972 77.4419 101.024 77.489 101.066 77.545C101.107 77.6009 101.136 77.6645 101.153 77.7321L106.982 99.6207L112.009 105.333C112.075 105.408 112.118 105.501 112.133 105.601C112.147 105.7 112.133 105.801 112.092 105.893C112.051 105.984 111.984 106.062 111.9 106.117C111.816 106.171 111.718 106.201 111.617 106.201V106.194Z" fill="#FFBE93"/>
<path d="M101.197 76.9443L99.9802 60.4234C99.9509 60.057 101.34 59.9398 101.369 60.3208L102.585 76.8417C102.611 77.2265 101.226 77.3107 101.197 76.9443Z" fill="#FFBE93"/>
<g opacity="0.4">
<path d="M103.82 75.4861C103.779 75.4309 103.727 75.3844 103.668 75.3494C103.609 75.3143 103.543 75.2913 103.475 75.2818C103.407 75.2722 103.338 75.2763 103.271 75.2938C103.204 75.3112 103.142 75.3417 103.087 75.3835L101.754 76.3801L101.515 75.4128L79.3884 92.0436C79.3884 92.0436 78.9634 92.2708 78.9377 92.2964L56.906 73.3866C56.8541 73.3417 56.7938 73.3074 56.7286 73.2858C56.6634 73.2643 56.5946 73.2558 56.5262 73.2609C56.4577 73.266 56.3909 73.2846 56.3296 73.3156C56.2684 73.3466 56.2139 73.3894 56.1692 73.4416C56.1245 73.4937 56.0906 73.5542 56.0694 73.6195C56.0482 73.6847 56.0401 73.7536 56.0455 73.822C56.051 73.8905 56.07 73.9572 56.1013 74.0183C56.1326 74.0793 56.1757 74.1336 56.2281 74.178L79.066 93.7803C79.1211 93.8255 79.1799 93.866 79.2419 93.9012C79.3811 93.9858 79.5406 94.0313 79.7035 94.0331C79.9308 94.0253 80.1488 93.9415 80.3227 93.795L102.006 77.5012L103.696 76.2372C103.755 76.1973 103.805 76.1459 103.844 76.0859C103.882 76.0259 103.908 75.9587 103.92 75.8884C103.931 75.8181 103.928 75.7462 103.911 75.677C103.894 75.6078 103.863 75.5428 103.82 75.4861Z" fill="black"/>
<path d="M83.3492 81.931C81.2157 81.9218 79.0898 81.6761 77.0105 81.1982H76.9592L56.3857 74.2769C56.2794 74.2414 56.1875 74.1725 56.1236 74.0805C56.0596 73.9885 56.0271 73.8783 56.0308 73.7663C56.0345 73.6544 56.0743 73.5466 56.1441 73.459C56.214 73.3715 56.3103 73.3088 56.4187 73.2803L74.7717 68.3889C75.0502 68.312 75.3177 69.3232 75.0392 69.3965L58.3606 73.8373L77.2633 80.1869C83.5361 81.6012 89.5414 80.8501 93.7514 78.1241C97.3898 75.7682 99.7567 71.9943 100.783 66.9013C100.795 66.8333 100.821 66.7685 100.859 66.7106C100.897 66.6527 100.946 66.6029 101.003 66.5641C101.06 66.5254 101.125 66.4984 101.193 66.4847C101.26 66.4711 101.33 66.4711 101.398 66.4847C101.466 66.4983 101.53 66.5253 101.588 66.564C101.645 66.6028 101.694 66.6525 101.732 66.7104C101.77 66.7683 101.796 66.8331 101.808 66.9011C101.821 66.9691 101.82 67.0389 101.805 67.1065C100.706 72.4853 98.2032 76.4863 94.3193 78.9998C91.3368 80.9344 87.5152 81.931 83.3492 81.931Z" fill="black"/>
<path d="M79.4873 93.9892C79.3666 93.9895 79.2495 93.9476 79.1565 93.8706C79.0635 93.7936 79.0003 93.6865 78.978 93.5678L70.4775 49.2483C70.4625 49.1171 70.4976 48.9851 70.5757 48.8787C70.6538 48.7723 70.7692 48.6993 70.8989 48.6743C71.0285 48.6493 71.1628 48.6742 71.2749 48.7439C71.387 48.8136 71.4686 48.9231 71.5034 49.0504L80.004 93.3516C80.0173 93.419 80.0171 93.4884 80.0034 93.5557C79.9898 93.623 79.9629 93.6869 79.9244 93.7438C79.8859 93.8007 79.8366 93.8494 79.7791 93.8871C79.7217 93.9248 79.6574 93.9508 79.5899 93.9635C79.5569 93.976 79.5224 93.9847 79.4873 93.9892Z" fill="black"/>
<path d="M92.2382 84.679C92.1313 84.679 92.0271 84.6464 91.9393 84.5855C91.8516 84.5246 91.7845 84.4383 91.7472 84.3382L90.2559 80.3079C90.2086 80.1776 90.2148 80.034 90.2732 79.9083C90.3316 79.7827 90.4373 79.6852 90.5674 79.6373C90.6313 79.6134 90.6994 79.6024 90.7677 79.6049C90.8359 79.6074 90.903 79.6235 90.965 79.6521C91.027 79.6807 91.0827 79.7214 91.129 79.7717C91.1752 79.822 91.2109 79.8809 91.2342 79.9451L92.7255 83.9755C92.7542 84.0543 92.7636 84.1388 92.7529 84.222C92.7422 84.3051 92.7117 84.3845 92.664 84.4534C92.6162 84.5223 92.5526 84.5788 92.4785 84.6181C92.4044 84.6573 92.322 84.6782 92.2382 84.679Z" fill="black"/>
<path d="M111.617 106.194C111.543 106.194 111.469 106.178 111.402 106.147C111.334 106.116 111.274 106.071 111.225 106.014L106.117 100.218C106.065 100.158 106.027 100.086 106.008 100.009L100.145 77.9995C100.126 77.9328 100.12 77.8629 100.128 77.7939C100.136 77.7249 100.158 77.6581 100.192 77.5976C100.226 77.5372 100.272 77.4841 100.327 77.4416C100.382 77.3991 100.445 77.3681 100.512 77.3502C100.579 77.3324 100.649 77.3282 100.718 77.3378C100.787 77.3475 100.853 77.3707 100.913 77.4063C100.972 77.4419 101.024 77.489 101.066 77.545C101.107 77.6009 101.136 77.6645 101.153 77.7321L106.982 99.6207L112.009 105.333C112.075 105.408 112.118 105.501 112.133 105.601C112.147 105.7 112.133 105.801 112.092 105.893C112.051 105.984 111.984 106.062 111.9 106.117C111.816 106.171 111.718 106.201 111.617 106.201V106.194Z" fill="black"/>
<path d="M101.197 76.9443L99.9802 60.4234C99.9509 60.057 101.34 59.9398 101.369 60.3208L102.585 76.8417C102.611 77.2265 101.226 77.3107 101.197 76.9443Z" fill="black"/>
</g>
<path d="M100.944 73.4709C100.944 73.4709 100.999 74.6653 100.973 75.3432C100.948 76.021 99.7421 76.9077 100.127 78.1388C100.512 79.3699 101.021 81.2715 101.021 81.2715C101.111 81.3102 101.208 81.3305 101.306 81.3312C101.404 81.3318 101.501 81.3128 101.591 81.2752C101.682 81.2376 101.764 81.1823 101.833 81.1124C101.902 81.0425 101.956 80.9596 101.992 80.8685L101.49 78.9778C101.416 78.7036 101.426 78.4134 101.518 78.1449C101.611 77.8764 101.782 77.642 102.01 77.4719L102.215 77.3181C102.311 77.2471 102.422 77.2004 102.54 77.1821C102.657 77.1638 102.778 77.1744 102.89 77.213C103.003 77.2516 103.104 77.3171 103.186 77.4037C103.267 77.4903 103.327 77.5955 103.358 77.7101L103.904 79.7583C104.003 79.7827 104.106 79.7871 104.206 79.7712C104.307 79.7554 104.403 79.7196 104.489 79.666C104.575 79.6124 104.65 79.542 104.709 79.4591C104.768 79.3761 104.809 79.2823 104.831 79.183C104.831 79.183 104.15 76.4753 103.846 75.4824C103.608 74.6983 102.442 75.0207 102.38 73.9948L102.292 72.8407C102.329 73.3756 101.226 73.9215 100.944 73.4709Z" fill="#37474F"/>
<path opacity="0.15" d="M101.369 60.3209C101.34 59.9545 99.9509 60.0424 99.9802 60.4234L100.347 65.2965C100.772 65.6119 101.265 65.8228 101.787 65.9121L101.369 60.3209Z" fill="black"/>
<path d="M80.2458 88.1268C79.044 87.4343 77.9631 87.394 77.19 87.874C77.0325 87.9766 76.8236 88.0645 76.6331 88.1854C76.576 88.2174 76.5209 88.2529 76.4682 88.2917L76.4389 88.31C76.3652 88.3622 76.2954 88.4198 76.23 88.4822L76.1861 88.5225C76.1274 88.5811 76.0725 88.6434 76.0175 88.7094L75.9626 88.7863C75.9144 88.8481 75.8704 88.913 75.8307 88.9805L75.7684 89.0941L75.6694 89.2883C75.6475 89.3396 75.6291 89.3945 75.6108 89.4495C75.5925 89.5044 75.5632 89.5741 75.5412 89.64C75.5192 89.706 75.5046 89.7793 75.4862 89.8489C75.4679 89.9185 75.4569 89.9698 75.4459 90.0321C75.4349 90.0944 75.4166 90.2153 75.4056 90.3105C75.3946 90.4058 75.3873 90.4131 75.3836 90.4644C75.3836 90.6183 75.3617 90.7722 75.3617 90.9371C75.3617 93.6374 77.2596 96.9203 79.6009 98.265C79.7475 98.3493 79.8904 98.4262 80.0333 98.4922L80.2861 98.5911C80.3411 98.6131 80.3997 98.6424 80.4583 98.6607L80.6269 98.7084L80.8687 98.7743H80.964C81.0645 98.7941 81.166 98.8088 81.2681 98.8183C81.7515 98.8664 82.2372 98.753 82.6494 98.4959C82.8546 98.3749 83.0378 98.287 83.2686 98.1295C84.0014 97.6824 84.4741 96.7408 84.4741 95.4181C84.4851 92.7544 82.5871 89.4678 80.2458 88.1268ZM79.0367 96.2682C78.3039 95.7002 77.2926 93.9892 76.8932 93.0329C77.1293 93.196 77.3739 93.3465 77.626 93.4835C78.7252 94.0551 78.6996 93.282 79.1466 93.817C79.5936 94.3519 79.513 95.6673 79.1466 96.3451C79.1063 96.3207 79.0693 96.2912 79.0367 96.2572V96.2682ZM81.1838 91.2485C81.1214 91.2707 81.0612 91.2989 81.0043 91.3328L80.3557 91.6992C80.218 91.7743 80.1048 91.8875 80.0296 92.0253C79.4837 91.4683 78.8498 89.695 78.9011 88.8596C79.8501 89.182 81.4293 90.501 81.6711 91.0103C81.691 91.0485 81.7058 91.0892 81.7151 91.1313C81.5348 91.1486 81.3568 91.1842 81.1838 91.2375V91.2485ZM77.9704 90.6916C78.3368 91.9703 78.8608 92.1572 78.8938 92.5822C78.062 92.4503 76.6954 91.6406 76.6184 90.8345C76.5925 90.0533 76.8531 89.2897 77.3512 88.6874C77.703 88.8303 77.6773 89.6327 77.9704 90.6916ZM80.3704 97.393C79.9307 96.99 80.4217 96.5979 80.6452 95.7625C80.7562 95.3659 80.7562 94.9464 80.6452 94.5497C81.5136 95.2349 82.8143 97.0303 82.4772 97.5652C82.4649 97.5832 82.4515 97.6003 82.4369 97.6165C81.6894 97.807 80.6745 97.6788 80.3704 97.393ZM82.4406 94.6084C81.5172 93.3809 81.1545 93.8023 80.931 93.1428C80.8891 92.9823 80.8952 92.8131 80.9486 92.6561C81.002 92.4992 81.1004 92.3613 81.2314 92.2598C81.4709 92.1666 81.7355 92.1603 81.9791 92.242C82.2228 92.3237 82.4301 92.4881 82.5651 92.7068C83.0158 93.5055 83.265 94.9638 83.2979 95.8651C83.0561 95.5427 82.785 95.0884 82.4332 94.6084H82.4406Z" fill="#E0E0E0"/>
<path opacity="0.2" d="M80.2458 88.1268C79.044 87.4343 77.9631 87.394 77.19 87.874C77.0325 87.9766 76.8236 88.0645 76.6331 88.1854C76.576 88.2174 76.5209 88.2529 76.4682 88.2917L76.4389 88.31C76.3652 88.3622 76.2954 88.4198 76.23 88.4822L76.1861 88.5225C76.1274 88.5811 76.0725 88.6434 76.0175 88.7094L75.9626 88.7863C75.9144 88.8481 75.8704 88.913 75.8307 88.9805L75.7684 89.0941L75.6694 89.2883C75.6475 89.3396 75.6291 89.3945 75.6108 89.4495C75.5925 89.5044 75.5632 89.5741 75.5412 89.64C75.5192 89.706 75.5046 89.7793 75.4862 89.8489C75.4679 89.9185 75.4569 89.9698 75.4459 90.0321C75.4349 90.0944 75.4166 90.2153 75.4056 90.3105C75.3946 90.4058 75.3873 90.4131 75.3836 90.4644C75.3836 90.6183 75.3617 90.7722 75.3617 90.9371C75.3617 93.6374 77.2596 96.9203 79.6009 98.265C79.7475 98.3493 79.8904 98.4262 80.0333 98.4922L80.2861 98.5911C80.3411 98.6131 80.3997 98.6424 80.4583 98.6607L80.6269 98.7084L80.8687 98.7743H80.964C81.0645 98.7941 81.166 98.8088 81.2681 98.8183C81.7515 98.8664 82.2372 98.753 82.6494 98.4959C82.8546 98.3749 83.0378 98.287 83.2686 98.1295C84.0014 97.6824 84.4741 96.7408 84.4741 95.4181C84.4851 92.7544 82.5871 89.4678 80.2458 88.1268ZM79.0367 96.2682C78.3039 95.7002 77.2926 93.9892 76.8932 93.0329C77.1293 93.196 77.3739 93.3465 77.626 93.4835C78.7252 94.0551 78.6996 93.282 79.1466 93.817C79.5936 94.3519 79.513 95.6673 79.1466 96.3451C79.1063 96.3207 79.0693 96.2912 79.0367 96.2572V96.2682ZM81.1838 91.2485C81.1214 91.2707 81.0612 91.2989 81.0043 91.3328L80.3557 91.6992C80.218 91.7743 80.1048 91.8875 80.0296 92.0253C79.4837 91.4683 78.8498 89.695 78.9011 88.8596C79.8501 89.182 81.4293 90.501 81.6711 91.0103C81.691 91.0485 81.7058 91.0892 81.7151 91.1313C81.5348 91.1486 81.3568 91.1842 81.1838 91.2375V91.2485ZM77.9704 90.6916C78.3368 91.9703 78.8608 92.1572 78.8938 92.5822C78.062 92.4503 76.6954 91.6406 76.6184 90.8345C76.5925 90.0533 76.8531 89.2897 77.3512 88.6874C77.703 88.8303 77.6773 89.6327 77.9704 90.6916ZM80.3704 97.393C79.9307 96.99 80.4217 96.5979 80.6452 95.7625C80.7562 95.3659 80.7562 94.9464 80.6452 94.5497C81.5136 95.2349 82.8143 97.0303 82.4772 97.5652C82.4649 97.5832 82.4515 97.6003 82.4369 97.6165C81.6894 97.807 80.6745 97.6788 80.3704 97.393ZM82.4406 94.6084C81.5172 93.3809 81.1545 93.8023 80.931 93.1428C80.8891 92.9823 80.8952 92.8131 80.9486 92.6561C81.002 92.4992 81.1004 92.3613 81.2314 92.2598C81.4709 92.1666 81.7355 92.1603 81.9791 92.242C82.2228 92.3237 82.4301 92.4881 82.5651 92.7068C83.0158 93.5055 83.265 94.9638 83.2979 95.8651C83.0561 95.5427 82.785 95.0884 82.4332 94.6084H82.4406Z" fill="black"/>
<path d="M79.5936 88.4932C77.2523 87.1449 75.3543 88.2404 75.3543 90.9407C75.3543 93.6411 77.2523 96.924 79.5936 98.2687C81.9349 99.6134 83.8255 98.5252 83.8255 95.8248C83.8255 93.1245 81.9312 89.8379 79.5936 88.4932ZM78.542 88.7827C79.3811 88.7827 81.3926 90.4241 81.6711 91.0067C81.9496 91.5893 81.2131 91.3731 80.5389 91.6149C79.6779 91.9153 80.0846 92.7471 79.5826 92.5382C78.8461 92.2268 77.7103 88.7607 78.5383 88.7753L78.542 88.7827ZM77.2816 88.6544C77.7139 88.7277 77.648 89.5704 77.9704 90.6879C78.3625 92.1022 78.978 92.1902 78.8901 92.7178C78.7619 93.4945 76.0944 92.3514 75.9589 91.1972C75.8233 90.0431 76.8492 88.5701 77.2816 88.6471V88.6544ZM78.3808 96.6309C77.4648 95.9164 76.0761 93.3663 76.0651 92.8313C76.0541 92.2964 76.7613 93.0329 77.626 93.4799C78.7252 94.0514 78.6996 93.2783 79.1466 93.8133C79.8171 94.5901 79.3041 97.338 78.3881 96.6236L78.3808 96.6309ZM82.4515 97.5725C82.0155 98.2687 80.1469 98.1734 79.7072 97.7704C79.2675 97.3674 79.7585 96.9753 79.9856 96.1363C80.2714 95.0774 79.6412 94.5058 80.0076 94.3043C80.5462 94.0111 82.8985 96.8691 82.4589 97.5652L82.4515 97.5725ZM81.7773 94.9821C80.8577 93.7547 80.4913 94.176 80.2714 93.5165C79.9417 92.5565 81.9056 91.5709 82.5505 92.7141C83.1953 93.8573 83.4298 96.3561 83.1697 96.6382C82.9095 96.9204 82.5138 95.9421 81.7847 94.9748L81.7773 94.9821Z" fill="#E0E0E0"/>
<path d="M79.5936 94.8758C80.3264 95.2862 80.887 94.9528 80.887 94.1247C80.8625 93.6757 80.7327 93.2387 80.508 92.8491C80.2833 92.4596 79.97 92.1284 79.5936 91.8824C78.8608 91.4683 78.2965 91.8054 78.2965 92.6152C78.3183 93.0678 78.4473 93.5087 78.6728 93.9017C78.8983 94.2948 79.2139 94.6286 79.5936 94.8758Z" fill="#455A64"/>
<path d="M75.314 100.218C75.2605 100.218 75.2077 100.206 75.1601 100.181C75.119 100.161 75.0822 100.133 75.0519 100.099C75.0216 100.065 74.9985 100.025 74.9838 99.9817C74.9691 99.9383 74.9632 99.8925 74.9665 99.8469C74.9697 99.8013 74.982 99.7568 75.0026 99.716L77.8642 93.9159L79.3701 93.0475C79.45 93.0054 79.5432 92.996 79.6299 93.0213C79.7166 93.0466 79.7901 93.1047 79.8348 93.1832C79.8795 93.2617 79.892 93.3545 79.8695 93.442C79.8471 93.5295 79.7915 93.6048 79.7145 93.6521L78.3955 94.4142L75.6255 100.024C75.5971 100.082 75.5529 100.131 75.4978 100.166C75.4427 100.2 75.379 100.218 75.314 100.218Z" fill="#39566C"/>
<path d="M77.8495 101.266L74.2588 99.192C74.1605 99.1361 74.0494 99.1068 73.9363 99.1068C73.8233 99.1068 73.7122 99.1361 73.6139 99.192L68.6125 102.083C68.5142 102.139 68.4325 102.22 68.3759 102.318C68.3192 102.416 68.2896 102.527 68.2901 102.64V102.962C68.2903 103.075 68.3203 103.186 68.3769 103.284C68.4334 103.382 68.5147 103.463 68.6125 103.519L72.2106 105.597C72.3088 105.653 72.42 105.682 72.533 105.682C72.6461 105.682 72.7572 105.653 72.8555 105.597L77.8532 102.702C77.9506 102.645 78.0313 102.564 78.0872 102.466C78.1432 102.369 78.1724 102.258 78.1719 102.145V101.826C78.1723 101.713 78.1427 101.601 78.0861 101.503C78.0295 101.404 77.9479 101.323 77.8495 101.266Z" fill="#FFBE93"/>
<path opacity="0.2" d="M77.8495 101.266L74.2588 99.192C74.1605 99.1361 74.0494 99.1068 73.9363 99.1068C73.8233 99.1068 73.7122 99.1361 73.6139 99.192L68.6125 102.083C68.5142 102.139 68.4325 102.22 68.3759 102.318C68.3192 102.416 68.2896 102.527 68.2901 102.64V102.962C68.2903 103.075 68.3203 103.186 68.3769 103.284C68.4334 103.382 68.5147 103.463 68.6125 103.519L72.2106 105.597C72.3088 105.653 72.42 105.682 72.533 105.682C72.6461 105.682 72.7572 105.653 72.8555 105.597L77.8532 102.702C77.9506 102.645 78.0313 102.564 78.0872 102.466C78.1432 102.369 78.1724 102.258 78.1719 102.145V101.826C78.1723 101.713 78.1427 101.601 78.0861 101.503C78.0295 101.404 77.9479 101.323 77.8495 101.266Z" fill="black"/>
<path d="M72.2326 104.545C72.324 104.597 72.4276 104.625 72.533 104.625C72.6384 104.625 72.742 104.597 72.8335 104.545L78.0877 101.504C78.0318 101.404 77.9494 101.322 77.8495 101.266L76.8492 100.687L74.2588 99.192C74.1605 99.1361 74.0494 99.1068 73.9364 99.1068C73.8233 99.1068 73.7122 99.1361 73.6139 99.192L73.0094 99.5584L68.6125 102.098C68.5153 102.155 68.4335 102.236 68.3744 102.332L72.2326 104.545Z" fill="#FFBE93"/>
<path d="M86.2035 57.2028C85.1519 55.4954 82.6824 53.0039 82.6824 53.0039C82.6824 53.0039 76.3179 44.4375 69.261 48.5118C68.6077 48.8576 68.0451 49.3528 67.6192 49.957C67.1933 50.5612 66.916 51.2574 66.8098 51.9889C66.7254 52.495 66.7081 53.0099 66.7585 53.5205C66.8092 54.3117 67.1152 55.0651 67.6305 55.6676C68.5612 56.9536 71.1883 58.0089 74.3394 58.804C74.5629 58.8626 74.79 58.9139 75.0172 58.9688C76.1421 59.2253 77.2743 59.4451 78.4028 59.6723C79.5313 59.8995 80.6452 60.1303 81.7517 60.4051C82.2024 60.526 82.653 60.6579 83.0927 60.8228C83.2723 60.8888 83.4591 60.962 83.6277 61.0426C83.8304 61.1895 84.0631 61.2897 84.3092 61.3358C84.6223 61.3305 84.9326 61.2761 85.2289 61.1746C85.359 61.1231 85.4821 61.0554 85.5953 60.973C85.9964 60.6571 86.2958 60.2303 86.4563 59.7456C86.6024 59.329 86.6555 58.8855 86.6118 58.4462C86.5681 58.0069 86.4288 57.5825 86.2035 57.2028Z" fill="#9A4A4D"/>
<path d="M69.2611 48.5118C67.1213 49.7466 65.9634 52.0219 67.6306 54.3449C68.5612 55.6273 71.1883 56.6825 74.3394 57.4813C77.4905 58.28 82.8692 58.9945 84.1993 60.079C85.5293 61.1636 87.4346 59.2143 86.2035 57.2028C85.1519 55.4954 82.6824 53.0039 82.6824 53.0039C82.6824 53.0039 76.318 44.4375 69.2611 48.5118Z" fill="#B16668"/>
<path d="M71.5657 96.5833L75.5778 97.0632L77.223 89.8855L72.3315 90.1933L71.5657 96.5833Z" fill="#FFA8A7"/>
<path d="M80.6525 105.347C80.702 105.648 80.6408 105.957 80.4803 106.216C80.2898 106.443 79.8831 106.883 78.4065 106.949C77.2888 107.029 76.1702 106.807 75.1675 106.307C74.1892 105.802 73.3354 105.208 73.035 104.127C72.7932 103.255 72.621 102.171 71.8515 101.493C71.0821 100.815 70.6057 100.691 70.3859 100.027C70.1441 99.2506 70.6314 97.5359 70.6314 97.5359L80.6525 105.347Z" fill="#37474F"/>
<path d="M76.1897 96.7811C76.1609 97.1218 76.1818 97.465 76.252 97.7997C76.5348 98.8525 77.0257 99.8379 77.6956 100.698C77.9025 100.992 78.1355 101.267 78.3918 101.519C78.9194 102.013 79.6083 102.317 80.0992 102.849C80.3384 103.111 80.5215 103.419 80.6375 103.754C80.7534 104.089 80.7996 104.444 80.7734 104.798C80.7675 104.999 80.7203 105.197 80.6345 105.379C80.5488 105.561 80.4264 105.724 80.2751 105.857C80.0894 105.985 79.8802 106.074 79.6595 106.121C78.1572 106.482 76.5732 106.247 75.2407 105.465C74.5722 105.116 74.0187 104.582 73.6469 103.926C73.2805 103.193 72.9141 101.918 72.4744 101.233C72.108 100.676 71.5254 100.306 71.0674 99.8185C70.0671 98.7487 70.5471 97.2244 71.0344 96.0153C71.2909 95.3815 71.5804 94.6633 71.8039 94.7512C71.7675 94.8627 71.7645 94.9824 71.795 95.0957C71.8256 95.2089 71.8885 95.3107 71.9761 95.3888C72.2472 95.7149 72.2106 96.1546 72.5037 96.455C72.435 96.1577 72.3933 95.8548 72.3791 95.55C72.3744 95.4264 72.4147 95.3053 72.4927 95.2092C72.6131 95.1264 72.7511 95.0725 72.8958 95.0517C73.4008 94.9466 73.9151 94.8926 74.431 94.8905C74.9252 94.8654 75.4203 94.9211 75.8966 95.0554C76.037 95.0978 76.1577 95.1887 76.2374 95.3118C76.3086 95.4454 76.3368 95.5977 76.318 95.7478C76.296 95.9494 76.219 96.455 76.1897 96.7811Z" fill="#455A64"/>
<path d="M77.3622 100.218C76.9042 99.8515 75.8673 99.8515 75.303 99.9065C74.7267 99.9479 74.1705 100.136 73.6872 100.452C73.616 100.502 73.5294 100.525 73.4428 100.517C73.3562 100.509 73.2753 100.471 73.2145 100.408C73.1783 100.373 73.1503 100.331 73.1324 100.283C73.1146 100.236 73.1073 100.186 73.1111 100.135C73.115 100.085 73.1299 100.036 73.1547 99.992C73.1795 99.9481 73.2137 99.9101 73.2548 99.8808C73.7917 99.4953 74.427 99.2704 75.0869 99.2323C76.4829 99.148 76.8859 99.3935 76.8859 99.3935C76.8859 99.3935 77.5051 99.8076 77.3622 100.218Z" fill="#F5F5F5"/>
<path d="M78.5787 101.684C77.9888 101.354 76.8529 101.431 76.2886 101.508C75.7248 101.577 75.1898 101.796 74.7388 102.142C74.6694 102.195 74.5832 102.222 74.4959 102.217C74.4085 102.212 74.3257 102.176 74.2624 102.116C74.2278 102.08 74.2008 102.038 74.183 101.991C74.1653 101.945 74.1572 101.895 74.1592 101.846C74.1613 101.796 74.1735 101.747 74.195 101.702C74.2165 101.657 74.2469 101.617 74.2844 101.585C74.8126 101.164 75.4466 100.898 76.1164 100.815C77.5051 100.683 77.8752 100.958 77.8752 100.958C78.0398 101.018 78.1887 101.114 78.3105 101.24C78.4324 101.365 78.5241 101.517 78.5787 101.684Z" fill="#F5F5F5"/>
<path d="M74.6398 97.6531C75.2358 97.6253 75.8289 97.7515 76.3619 98.0195C76.5891 98.1844 76.7027 98.5874 76.5341 98.668C76.0704 98.4127 75.5503 98.2767 75.0209 98.2723C74.496 98.2597 73.9729 98.3378 73.4747 98.5032C73.3501 98.5435 73.1999 98.5984 73.0716 98.6534C73.0299 98.6703 72.9851 98.6786 72.9401 98.6778C72.895 98.6769 72.8506 98.667 72.8095 98.6485C72.7684 98.63 72.7315 98.6033 72.701 98.5702C72.6705 98.537 72.647 98.498 72.632 98.4555C72.6104 98.3844 72.6157 98.3079 72.6468 98.2404C72.6778 98.1729 72.7325 98.1191 72.8005 98.0891C73.3757 97.815 74.0027 97.6664 74.6398 97.6531Z" fill="#F5F5F5"/>
<path d="M90.2633 45.0054L71.2799 45.1556C70.1274 48.8715 70.1274 52.8494 71.2799 56.5653C73.0204 62.1125 76.6038 72.0053 76.6038 72.0053C75.1891 74.0377 74.1378 76.3002 73.4967 78.692C72.4817 82.5759 71.8332 92.8387 71.8332 92.8387C71.8332 92.8387 74.5263 94.5681 76.4389 93.729C76.4389 93.729 82.3929 78.8129 84.0711 73.8006C85.7492 68.7883 83.9172 53.9199 83.9172 53.9199C83.9172 53.9199 89.164 48.8636 90.2633 45.0054Z" fill="#37474F"/>
<path d="M79.4031 64.234C79.8501 65.2013 81.2168 67.5022 81.9679 68.1618C83.254 69.3013 84.3385 68.8946 84.3385 68.8946L83.9721 66.3298L81.748 63.8969L79.4031 64.234Z" fill="#F28F8F"/>
<path d="M90.4355 19.9145C92.9343 20.1709 94.4952 22.296 96.2979 26.1432C98.1006 29.9904 102.589 38.8243 102.589 38.8243L114.442 46.885L114.97 51.0436L114.237 51.7764L112.039 50.6772L100.156 44.3642C99.0936 43.7909 98.1782 42.9795 97.4814 41.9936C96.1 39.7366 90.6809 29.2759 90.6809 29.2759L90.4355 19.9145Z" fill="#FFA8A7"/>
<path d="M90.4354 19.9145C90.4354 19.9145 91.2672 19.6507 92.6851 20.6473C94.1031 21.6439 94.9862 23.1791 96.6496 26.5096C98.3131 29.8402 99.9802 33.244 99.9802 33.244C99.9802 33.244 98.5146 36.2595 94.3303 36.908L90.3622 30.1516L90.4354 19.9145Z" fill="#FFBE93"/>
<path opacity="0.3" d="M90.4354 19.9145C90.4354 19.9145 91.2672 19.6507 92.6851 20.6473C94.1031 21.6439 94.9862 23.1791 96.6496 26.5096C98.3131 29.8402 99.9802 33.244 99.9802 33.244C99.9802 33.244 98.5146 36.2595 94.3303 36.908L90.3622 30.1516L90.4354 19.9145Z" fill="black"/>
<path d="M115.563 52.4579L114.464 50.5453L119.147 47.845C119.236 47.8013 119.335 47.7826 119.434 47.791C119.532 47.7994 119.627 47.8345 119.707 47.8926C119.934 48.0418 120.123 48.2422 120.259 48.4776C120.394 48.7131 120.473 48.977 120.488 49.2483C120.497 49.3427 120.481 49.4379 120.443 49.5245C120.404 49.6112 120.344 49.6865 120.268 49.7429L115.563 52.4579Z" fill="#455A64"/>
<path d="M115.79 51.9523C115.79 52.4506 115.424 52.6521 115.006 52.403C114.78 52.2544 114.591 52.0546 114.455 51.8198C114.32 51.585 114.241 51.3217 114.226 51.051C114.226 50.5527 114.592 50.3512 115.006 50.6003C115.234 50.7481 115.424 50.9475 115.56 51.1825C115.697 51.4174 115.775 51.6812 115.79 51.9523Z" fill="#37474F"/>
<path d="M112.845 45.8005C114.024 46.2731 117.886 46.3647 119.015 47.2331C120.143 48.1015 120.528 50.3475 119.975 51.2964C119.422 52.2454 117.296 53.2677 116.443 53.0442C115.589 52.8207 115.567 52.4469 115.567 52.4469L116.234 52.0805C116.234 52.0805 116.703 49.9738 115.354 50.0397L114.446 50.5417L113.431 49.164L112.845 45.8005Z" fill="#FFA8A7"/>
<path d="M115.344 51.6885C115.346 51.7603 115.326 51.831 115.285 51.89L115.164 51.956L109.052 55.4844C108.703 55.6875 108.412 55.9789 108.211 56.3292C108.009 56.6796 107.902 57.0769 107.902 57.4813C107.901 58.0681 107.745 58.6442 107.451 59.1522C107.157 59.6601 106.735 60.0821 106.227 60.3758L101.988 62.8233L101.468 61.9183L105.703 59.4708C106.053 59.2694 106.343 58.9795 106.545 58.6302C106.747 58.281 106.854 57.8847 106.854 57.4813C106.855 56.8944 107.01 56.3181 107.303 55.8097C107.597 55.3013 108.018 54.8784 108.525 54.583L114.669 51.04L114.732 51.0033C114.77 50.9921 114.811 50.9896 114.851 50.9959C114.891 51.0022 114.929 51.0173 114.962 51.04C115.072 51.111 115.164 51.2066 115.23 51.3191C115.296 51.4317 115.335 51.5582 115.344 51.6885Z" fill="#E0E0E0"/>
<path d="M75.8013 25.7072C73.8411 31.5036 71.2799 45.1556 71.2799 45.1556C73.6506 48.3103 85.0127 50.7359 90.2632 45.0054C91.8715 39.7555 93.0636 34.387 93.8283 28.9498C94.3889 24.9011 94.3047 21.6219 90.8568 19.9694L84.9944 19.1817L80.1249 19.68C77.6737 20.7828 76.5378 23.5235 75.8013 25.7072Z" fill="#F0F0F0"/>
<path opacity="0.1" d="M71.5438 45.4634C74.0829 48.1308 82.9022 50.0727 88.3983 46.5626C87.3659 47.0756 86.2262 47.3352 85.0735 47.3199C83.9208 47.3046 82.7884 47.0149 81.77 46.4747C80.0663 45.5477 78.9194 40.8065 78.9194 40.8065L81.1362 27.6528L74.3504 30.8295C72.7712 37.1791 71.2726 45.163 71.2726 45.163C71.3459 45.2582 71.4302 45.3571 71.5181 45.4524C71.5276 45.4532 71.5366 45.457 71.5438 45.4634Z" fill="black"/>
<path d="M97.5669 7.19145C97.9441 4.08381 95.7306 1.25881 92.6229 0.881646C89.5152 0.504479 86.6902 2.71797 86.313 5.82561C85.9359 8.93326 88.1494 11.7583 91.2571 12.1354C94.3647 12.5126 97.1898 10.2991 97.5669 7.19145Z" fill="#39566C"/>
<path d="M81.9972 10.1609C81.9972 10.1609 82.7483 14.5101 83.0964 15.2319C83.3262 15.6794 83.72 16.0207 84.1956 16.1845L84.2469 13.1508L81.9972 10.1609Z" fill="#39566C"/>
<path d="M83.3822 4.02745C83.0623 3.97918 82.7356 4.00459 82.427 4.10174C82.1184 4.19889 81.8361 4.36521 81.6015 4.58804C80.8137 5.32083 81.1471 7.76471 81.9972 10.1683L83.7193 10.4357L83.3822 4.02745Z" fill="#39566C"/>
<path d="M84.2359 10.4504C83.8695 10.6446 83.4115 9.95944 83.0012 9.49778C82.5908 9.03611 81.2204 8.36927 80.4657 9.80921C79.7109 11.2492 80.9493 13.3046 82.0339 13.6894C83.9062 14.3562 84.2323 13.1544 84.2323 13.1544L84.1224 19.9768C85.6832 21.86 91.6116 23.4905 90.2889 20.0281L90.3622 17.9506C91.2119 18.0765 92.0683 18.1524 92.927 18.1777C93.8906 18.1594 94.9642 17.4853 95.6054 15.3565C96.4042 12.6928 96.4811 9.27061 96.0781 5.83013C95.5175 1.15123 89.9188 0.814141 86.5589 2.75605C83.199 4.69796 84.2359 10.4504 84.2359 10.4504Z" fill="#FFA8A7"/>
<path d="M84.2139 11.033C84.0601 10.9487 83.4189 9.90081 83.0012 9.49411C82.4259 8.92619 83.3676 4.02745 83.3676 4.02745C83.3676 4.02745 82.8399 2.78169 84.0417 1.55792C84.6395 0.921703 85.3953 0.455294 86.232 0.206211C87.0687 -0.0428724 87.9565 -0.0657316 88.805 0.139963C90.5087 0.506361 92.2492 0.975351 93.9786 0.575978C94.8262 0.332641 95.6892 0.146578 96.5617 0.0190509C96.6138 -0.000697715 96.6704 -0.00539042 96.725 0.00550722C96.7796 0.0164049 96.8301 0.0424532 96.8706 0.0806754C96.9111 0.118898 96.94 0.167751 96.9541 0.221647C96.9682 0.275543 96.9668 0.332307 96.9501 0.385449C96.9367 0.957085 96.7402 1.50933 96.3895 1.96096L97.4704 1.6825C97.542 1.65298 97.6223 1.65298 97.6939 1.6825C97.7251 1.70958 97.7496 1.74352 97.7655 1.78166C97.7814 1.8198 97.7882 1.86111 97.7855 1.90234C97.8121 2.28658 97.7518 2.67188 97.609 3.02962C97.4663 3.38737 97.2448 3.70838 96.9611 3.96882C95.7739 5.04603 94.4989 5.37213 92.9307 5.43441C90.8482 5.57074 88.7575 5.36403 86.7421 4.82253C86.1009 4.71261 85.9397 5.32816 85.5293 7.02092C85.1336 8.51949 85.566 11.7401 84.2139 11.033Z" fill="#39566C"/>
<path d="M83.3712 4.41217L81.3194 3.20672C81.3926 3.06782 81.4934 2.94532 81.6157 2.84673C81.7379 2.74814 81.879 2.67553 82.0302 2.63334C82.1815 2.59116 82.3397 2.58028 82.4954 2.60138C82.651 2.62248 82.8006 2.67511 82.9352 2.75605C83.2051 2.92464 83.4006 3.18989 83.4816 3.49766C83.5626 3.80542 83.5231 4.13251 83.3712 4.41217Z" fill="#39566C"/>
<path d="M90.3622 17.9616C90.3622 17.9616 87.2771 17.2288 86.2145 16.5986C85.5876 16.2404 85.0832 15.7016 84.7672 15.0524C84.9073 15.6952 85.1752 16.3032 85.555 16.8404C86.3098 17.8846 90.3182 18.7896 90.3182 18.7896L90.3622 17.9616Z" fill="#F28F8F"/>
<path d="M90.2889 9.91912C90.2788 10.0407 90.2332 10.1566 90.1578 10.2525C90.0823 10.3484 89.9804 10.42 89.8646 10.4585C89.7489 10.4969 89.6244 10.5006 89.5066 10.4689C89.3887 10.4373 89.2828 10.3717 89.2019 10.2804C89.121 10.1891 89.0687 10.076 89.0515 9.95528C89.0343 9.83451 89.0529 9.71135 89.1051 9.60107C89.1573 9.49079 89.2406 9.39826 89.3449 9.33495C89.4492 9.27164 89.5698 9.24035 89.6917 9.24495C89.7753 9.24961 89.8572 9.2708 89.9325 9.30728C90.0079 9.34377 90.0753 9.39483 90.1309 9.45752C90.1864 9.5202 90.2289 9.59327 90.2561 9.6725C90.2832 9.75173 90.2944 9.83556 90.2889 9.91912Z" fill="#39566C"/>
<path d="M89.7393 7.60716L88.3799 8.28866C88.2923 8.10071 88.2815 7.88595 88.35 7.69018C88.4184 7.49442 88.5607 7.33314 88.7463 7.24076C88.8352 7.19744 88.932 7.17257 89.0307 7.16763C89.1295 7.16269 89.2282 7.1778 89.321 7.21203C89.4138 7.24626 89.4987 7.29892 89.5706 7.36682C89.6424 7.43473 89.6998 7.51648 89.7393 7.60716Z" fill="#39566C"/>
<path d="M89.8969 14.2097L91.3002 14.7996C91.2672 14.8951 91.2147 14.9828 91.1462 15.0571C91.0777 15.1314 90.9945 15.1907 90.9019 15.2313C90.8094 15.2719 90.7094 15.2929 90.6083 15.293C90.5072 15.2931 90.4072 15.2723 90.3146 15.2319C90.1267 15.1481 89.9784 14.995 89.9006 14.8046C89.8228 14.6142 89.8214 14.401 89.8969 14.2097Z" fill="#F28F8F"/>
<path d="M95.9901 8.47185L94.6601 7.68776C94.7062 7.59828 94.7703 7.51927 94.8484 7.45566C94.9264 7.39205 95.0167 7.3452 95.1137 7.31804C95.2106 7.29088 95.3121 7.284 95.4118 7.2978C95.5116 7.31161 95.6074 7.34582 95.6933 7.3983C95.8701 7.50592 95.9992 7.67686 96.0543 7.87631C96.1094 8.07576 96.0865 8.28873 95.9901 8.47185Z" fill="#39566C"/>
<path d="M95.3929 10.0437C95.3835 10.1655 95.3384 10.2818 95.2634 10.3782C95.1883 10.4746 95.0866 10.5468 94.9709 10.5858C94.8551 10.6249 94.7304 10.629 94.6124 10.5977C94.4943 10.5664 94.388 10.5011 94.3067 10.4099C94.2255 10.3187 94.1729 10.2056 94.1554 10.0847C94.1379 9.96379 94.1564 9.84042 94.2085 9.72993C94.2606 9.61945 94.344 9.52672 94.4484 9.46329C94.5528 9.39986 94.6736 9.36853 94.7957 9.3732C94.8789 9.37787 94.9605 9.39894 95.0356 9.4352C95.1108 9.47145 95.178 9.52218 95.2335 9.58447C95.289 9.64676 95.3316 9.71939 95.359 9.7982C95.3863 9.877 95.3978 9.96043 95.3929 10.0437Z" fill="#39566C"/>
<path d="M92.0257 9.27426L91.9414 12.9969L93.8284 12.865L92.0257 9.27426Z" fill="#F28F8F"/>
<path d="M105.114 61.5556C105.09 61.3672 105.017 61.1881 104.904 61.0359C104.79 60.8837 104.639 60.7636 104.465 60.6872L101.732 59.1117L98.9103 60.7385V62.369L101.644 63.9482C102.093 64.1878 102.594 64.3173 103.103 64.3262C103.613 64.3351 104.117 64.2232 104.575 63.9995C104.734 63.9291 104.87 63.8156 104.968 63.6718C105.066 63.5281 105.121 63.3598 105.128 63.1861C105.128 63.1861 105.125 61.856 105.114 61.5556Z" fill="#37474F"/>
<path d="M101.732 59.1117L104.465 60.6872C105.293 61.1672 105.337 61.922 104.557 62.369C104.099 62.5927 103.594 62.7047 103.085 62.6958C102.575 62.6868 102.075 62.5573 101.625 62.3177L98.8957 60.7385L101.732 59.1117Z" fill="#455A64"/>
<path d="M101.336 63.0322C101.339 63.1097 101.313 63.1856 101.263 63.2447L101.186 63.2887L97.7708 65.2635C97.0563 65.6776 96.5617 65.5603 96.2759 65.3955C95.9901 65.2306 95.5761 64.7762 95.5761 63.743C95.5761 63.2154 95.4478 63.0102 95.3965 63.0102C95.2363 63.0145 95.0798 63.0599 94.9422 63.1421L85.0493 68.8506L84.5291 67.9456L94.4219 62.2408C95.1364 61.8304 95.6274 61.9403 95.9168 62.1089C96.2063 62.2774 96.6203 62.7281 96.6203 63.7577C96.6203 64.2889 96.7486 64.4904 96.7962 64.4904C96.9557 64.4858 97.1112 64.439 97.2469 64.3549L100.687 62.369L100.735 62.3434C100.774 62.3296 100.815 62.3254 100.856 62.3312C100.897 62.3369 100.936 62.3524 100.97 62.3763C101.078 62.449 101.168 62.5463 101.231 62.6603C101.295 62.7743 101.331 62.9017 101.336 63.0322Z" fill="#E0E0E0"/>
<path d="M84.1114 70.0707L83.0121 68.1581L87.6984 65.4577C87.7877 65.4146 87.8871 65.3965 87.9858 65.4056C88.0846 65.4146 88.1791 65.4504 88.259 65.509C88.4864 65.657 88.6756 65.8566 88.8112 66.0915C88.9469 66.3265 89.0251 66.5901 89.0395 66.861C89.0486 66.9556 89.0336 67.051 88.9958 67.1381C88.9579 67.2253 88.8986 67.3014 88.8233 67.3593L84.1114 70.0707Z" fill="#455A64"/>
<path d="M84.3385 69.5651C84.3385 70.0634 83.9721 70.2649 83.5581 70.0158C83.3307 69.8678 83.1415 69.6682 83.0059 69.4333C82.8702 69.1983 82.792 68.9346 82.7776 68.6637C82.7776 68.1654 83.144 67.9639 83.5581 68.2131C83.7855 68.361 83.9747 68.5606 84.1103 68.7956C84.2459 69.0305 84.3241 69.2942 84.3385 69.5651Z" fill="#39566C"/>
<path d="M83.0048 60.3721C82.4002 57.7451 80.0992 47.3357 79.8464 45.2546C79.7072 44.1114 81.2021 32.1045 81.9642 27.3011C82.7263 22.4976 82.3306 19.4381 80.1322 19.6617C77.9338 19.8852 76.0468 21.5413 75.2481 26.4876C74.4493 31.434 72.9837 44.4192 73.5077 47.0792C73.9217 49.164 78.2086 62.9003 80.026 65.2196C81.5905 67.2421 83.0048 60.3721 83.0048 60.3721Z" fill="#FFA8A7"/>
<path d="M83.0048 60.3721C83.8109 61.5409 86.8923 63.6257 88.0245 64.4941C89.1567 65.3625 89.5634 67.766 89.0065 68.7187C88.4495 69.6713 85.991 70.8071 85.1373 70.5836C84.2835 70.3601 84.2616 69.9901 84.2616 69.9901L84.9321 69.6237C85.3828 69.3452 85.2032 67.7514 84.049 67.5828L82.9205 68.2424C82.3526 68.1581 81.1765 67.0003 80.8137 65.9267L83.0048 60.3721Z" fill="#FFA8A7"/>
<path d="M81.2387 19.5627C81.2387 19.5627 78.139 18.6797 76.318 22.0652C74.4969 25.4507 73.7018 36.025 73.7018 36.025C73.7018 36.025 74.5849 36.908 77.4685 37.2524C80.352 37.5968 81.3193 36.6589 81.3193 36.6589C81.3193 36.6589 82.8985 25.579 82.8179 23.245C82.7373 20.9111 81.9239 19.9768 81.2387 19.5627Z" fill="#FFBE93"/>
<path opacity="0.2" d="M81.2387 19.5627C81.2387 19.5627 78.139 18.6797 76.318 22.0652C74.4969 25.4507 73.7018 36.025 73.7018 36.025C73.7018 36.025 74.5849 36.908 77.4685 37.2524C80.352 37.5968 81.3193 36.6589 81.3193 36.6589C81.3193 36.6589 82.8985 25.579 82.8179 23.245C82.7373 20.9111 81.9239 19.9768 81.2387 19.5627Z" fill="black"/>
</g>
<defs>
<clipPath id="clip0_4_293">
<rect width="171" height="147" fill="white"/>
</clipPath>
</defs>
</svg>
