<svg width="183" height="183" viewBox="0 0 183 183" fill="none" xmlns="http://www.w3.org/2000/svg">
<path d="M91.5183 162.456C138.885 162.456 177.283 140.566 177.283 113.562C177.283 86.5591 138.885 64.6685 91.5183 64.6685C44.1517 64.6685 5.75352 86.5591 5.75352 113.562C5.75352 140.566 44.1517 162.456 91.5183 162.456Z" fill="#F5F5F5"/>
<path d="M137.44 145.412C148.388 145.412 157.263 140.288 157.263 133.967C157.263 127.646 148.388 122.522 137.44 122.522C126.493 122.522 117.618 127.646 117.618 133.967C117.618 140.288 126.493 145.412 137.44 145.412Z" fill="#E0E0E0"/>
<path d="M117.31 62.8861L160.008 87.5875C166.032 91.0754 166.029 96.7192 160.008 100.196L79.6233 146.47C49.4759 163.928 -9.12804 122.68 15.028 109.196L95.4857 62.8715C101.514 59.3908 111.286 59.3982 117.31 62.8861Z" fill="#E0E0E0"/>
<path d="M118.061 36.0766C115.982 35.5386 107.114 32.5667 96.6862 38.4227C94.2157 39.8098 89.2345 42.7049 83.0637 46.321C83.0637 46.321 75.8864 53.791 66.7767 58.5527C49.5418 67.5636 37.8883 72.9475 37.8883 72.9475C38.2149 73.2098 38.5872 73.4095 38.9863 73.5367C44.1103 75.6046 56.2579 86.7896 64.6063 83.8067C74.3309 80.3333 118.061 36.0766 118.061 36.0766Z" fill="#FF7B23"/>
<path opacity="0.5" d="M45.0912 69.7596C45.0912 69.7596 65.5469 60.7926 68.4237 58.9992C70.6606 57.6348 72.7754 56.0796 74.7445 54.351C75.7071 53.4287 75.4765 56.5141 70.4367 59.3249C63.684 63.113 45.0912 69.7596 45.0912 69.7596Z" fill="white"/>
<path d="M75.923 48.2864C75.923 49.1721 76.0036 50.3945 76.0841 51.9976C76.1939 54.146 75.8864 55.2623 74.8836 56.9167C74.4224 57.6743 73.4196 58.8052 71.5896 59.9362C61.466 66.1582 37.8883 72.9475 37.8883 72.9475L38.9644 73.5367L67.1134 70.3964L79.3671 62.3444L79.6526 49.0806L77.753 48.0704L75.923 48.2864Z" fill="#37474F"/>
<path d="M79.6562 49.0806V49.754C79.4074 50.4275 78.9791 51.3535 78.3899 51.7085C78.0752 51.8985 77.7144 51.9985 77.3468 51.9976C76.6733 51.9976 76.0841 51.6536 76.0511 51.1009C76.0511 50.9545 76.0511 50.8045 76.0255 50.6617C75.9633 49.6113 75.9413 48.9159 75.9413 48.2864L77.7713 48.0704L79.6562 49.0806Z" fill="#FF7B23"/>
<path opacity="0.3" d="M79.6562 49.0806V49.754C79.4074 50.4275 78.9791 51.3535 78.3899 51.7085C78.0752 51.8985 77.7144 51.9985 77.3468 51.9976C76.6733 51.9976 76.0841 51.6536 76.0511 51.1009C76.0511 50.9545 76.0511 50.8045 76.0255 50.6617C75.9633 49.6113 75.9413 48.9159 75.9413 48.2864L77.7713 48.0704L79.6562 49.0806Z" fill="black"/>
<path d="M122.445 40.2234C120.414 35.4142 116.684 35.4215 110.532 36.2962C109.818 36.395 94.1242 39.6781 85.3402 43.0416C78.7046 45.5816 76.7502 47.5068 76.2232 47.7996C74.9934 48.5097 77.0284 49.6809 78.3752 49.044C78.3752 50.0834 78.4045 50.9765 78.3752 51.7671C78.2105 56.5251 77.4273 57.2571 75.1471 59.819C74.2065 60.8768 71.3956 62.2969 69.8584 63.1606C66.989 64.771 67.1317 63.5083 59.5153 66.4546C56.2505 67.7173 40.5674 73.5989 38.8875 73.5843L80.6298 99.7277L93.8058 109.591L154.426 61.1879L122.445 40.2234Z" fill="#FF7B23"/>
<path d="M78.4521 49.0111L83.3382 45.7244L123.609 67.7027L117.19 71.4066L117.197 96.2397L78.4521 73.8625V49.0111Z" fill="#FF7B23"/>
<path opacity="0.25" d="M78.4521 49.0111L83.3382 45.7244L124.744 66.2497L135.003 67.6002L132.349 75.784L117.197 96.2397L78.4521 73.8625V49.0111Z" fill="black"/>
<path opacity="0.5" d="M89.7212 41.9729C86.4968 42.9647 84.3228 43.5796 85.1316 44.0152C85.9405 44.4507 106.645 38.796 110.689 38.064C114.734 37.332 117.863 37.0026 112.841 35.868C108.358 34.8688 105.485 35.1909 102.817 36.1205C100.149 37.0502 95.1051 39.8062 95.1051 39.8062C95.1051 39.8062 108.047 36.6183 108.534 36.5561C109.02 36.4939 110.243 36.5561 107.201 37.4162C104.16 38.2763 92.964 40.992 89.7212 41.9729Z" fill="white"/>
<path opacity="0.3" d="M67.8857 86.9726C67.8857 86.9726 68.5335 73.6392 69.0276 63.6035C65.7958 65.2651 66.5022 63.7426 59.5921 66.4107C56.7483 67.5087 44.4727 72.1166 40.2527 73.2732L38.9644 73.5367L63.4534 88.8685L67.8857 86.9726Z" fill="black"/>
<path d="M90.2044 85.1426L85.3951 85.0474L78.0751 80.8567C77.392 80.5143 76.645 80.3182 75.8818 80.281C75.1186 80.2438 74.356 80.3663 73.6429 80.6408L64.782 84.6448L58.7027 84.524V88.0742C58.7027 88.4732 58.9846 88.8831 59.5628 89.2162L75.4838 98.4101C76.1285 98.7426 76.8532 98.8883 77.5762 98.8308C78.2993 98.7732 78.9918 98.5147 79.5757 98.0843L89.4577 90.0543C89.6748 89.8984 89.8535 89.6951 89.9804 89.4598C90.1072 89.2245 90.1788 88.9635 90.1897 88.6964L90.2044 85.1426Z" fill="#37474F"/>
<path d="M59.5628 85.666L75.4838 94.8599C76.1287 95.1916 76.8533 95.3368 77.5761 95.2793C78.299 95.2217 78.9915 94.9637 79.5757 94.5341L89.4577 86.5041C90.5264 85.6403 90.424 84.3813 89.2308 83.6969L78.0715 77.3065C77.3884 76.9641 76.6413 76.768 75.8781 76.7308C75.1149 76.6936 74.3523 76.8161 73.6392 77.0906L59.669 83.3968C58.4209 83.9604 58.3697 84.9779 59.5628 85.666Z" fill="#455A64"/>
<path d="M90.208 85.1462V88.6855C90.208 88.6855 90.208 88.6855 90.1897 88.6855C90.1796 88.9532 90.1084 89.2151 89.9815 89.4511C89.8546 89.687 89.6755 89.8909 89.4577 90.047L79.5757 98.0734C79.0152 98.4979 78.3443 98.752 77.6432 98.8054V95.2588C78.3448 95.2076 79.0163 94.9532 79.5757 94.5268L89.4577 86.4968C89.6765 86.3428 89.8576 86.1413 89.9875 85.9074C90.1174 85.6736 90.1928 85.4133 90.208 85.1462Z" fill="#263238"/>
<path d="M91.7416 84.0922C91.7652 84.2506 91.7461 84.4125 91.6862 84.5611C91.6264 84.7098 91.528 84.8397 91.4012 84.9376L87.3459 87.2764C87.4788 87.1845 87.5824 87.0562 87.6441 86.9068C87.7058 86.7575 87.723 86.5935 87.6936 86.4346L86.8152 66.612C86.7701 66.1601 86.6245 65.724 86.3889 65.3358C86.1533 64.9476 85.8337 64.617 85.4537 64.3684L75.8974 58.8528C75.7507 58.754 75.581 58.6946 75.4047 58.6805C75.2284 58.6664 75.0514 58.698 74.8909 58.7723L78.9169 56.4519C79.0793 56.3703 79.2605 56.3335 79.4419 56.345C79.6233 56.3566 79.7983 56.4162 79.949 56.5177L89.498 62.0334C89.8785 62.2806 90.1984 62.6103 90.4341 62.9981C90.6698 63.3858 90.8152 63.8217 90.8595 64.2733L91.7416 84.0922Z" fill="#263238"/>
<path d="M75.9011 58.8601L85.4537 64.3757C85.8328 64.6236 86.1518 64.953 86.3874 65.3399C86.6229 65.7268 86.7691 66.1614 86.8152 66.612L87.6936 86.4272C87.7302 87.2544 87.1812 87.5875 86.4638 87.1592L72.8633 79.3085C72.4971 79.0722 72.2032 78.7394 72.0139 78.3468C71.8247 77.9542 71.7475 77.517 71.7909 77.0833L74.3858 59.5738C74.394 59.4018 74.4489 59.2353 74.5445 59.0922C74.6402 58.949 74.773 58.8346 74.9288 58.7612C75.0845 58.6878 75.2574 58.6583 75.4287 58.6757C75.6 58.6931 75.7633 58.7569 75.9011 58.8601Z" fill="#37474F"/>
<path d="M90.4386 63.0106L86.4126 65.3456C86.1814 64.9516 85.8588 64.6189 85.472 64.3758L75.9157 58.8601C75.769 58.7613 75.5993 58.702 75.423 58.6879C75.2467 58.6737 75.0697 58.7054 74.9092 58.7796L78.9352 56.4592C79.0976 56.3776 79.2788 56.3408 79.4602 56.3524C79.6416 56.3639 79.8166 56.4235 79.9673 56.5251L89.5163 62.0407C89.8972 62.2851 90.2136 62.6178 90.4386 63.0106Z" fill="#455A64"/>
<path d="M88.7696 60.1301V55.1965C88.7696 51.6499 86.5041 47.4629 83.7115 45.8488C82.4305 45.1168 81.263 45.0473 80.3699 45.5304L77.2882 47.3238L78.6571 49.9407V54.2961C78.6815 54.7447 78.8112 55.1812 79.0357 55.5703C79.2601 55.9594 79.573 56.2903 79.949 56.536L83.0308 58.3148L85.3475 62.747L88.3963 60.9756C88.5283 60.8808 88.6325 60.7524 88.6981 60.6037C88.7637 60.4551 88.7884 60.2916 88.7696 60.1301Z" fill="#263238"/>
<path d="M83.7115 52.876L87.679 50.5849C86.753 48.5609 85.3219 46.7785 83.7115 45.8488C82.4305 45.1168 81.263 45.0473 80.3699 45.5304L77.2882 47.3238L78.6571 49.9407V50.7971L83.7115 52.876Z" fill="#455A64"/>
<path d="M85.7355 61.8943V56.9642C85.7355 53.414 83.47 49.2307 80.6774 47.6166C77.8848 46.0025 75.6156 47.5727 75.6156 51.1229V56.0529C75.6402 56.5023 75.7703 56.9397 75.9954 57.3295C76.2205 57.7192 76.5343 58.0505 76.9112 58.2965L84.4399 62.6409C85.1572 63.0545 85.7355 62.7214 85.7355 61.8943Z" fill="#37474F"/>
<path d="M76.1866 63.0582C75.0138 67.4298 74.4509 71.9426 74.5139 76.4684C74.5452 76.9316 74.6692 77.3837 74.8786 77.798C75.088 78.2124 75.3784 78.5804 75.7327 78.8803C78.0933 80.6317 80.6478 82.1054 83.3455 83.2723C83.4997 83.3616 83.6754 83.4071 83.8535 83.4038C84.0316 83.4005 84.2055 83.3485 84.3562 83.2535C84.507 83.1586 84.6289 83.0242 84.7088 82.8649C84.7887 82.7057 84.8235 82.5276 84.8095 82.35C85.0511 76.9808 85.1316 71.9739 84.8571 67.8088C84.7453 66.8715 84.2791 66.0125 83.5541 65.4079C81.822 64.1428 79.9594 63.0667 77.9983 62.1981C77.8249 62.1153 77.6352 62.0723 77.4431 62.0721C77.251 62.0719 77.0613 62.1145 76.8877 62.1969C76.7142 62.2793 76.5612 62.3994 76.4399 62.5484C76.3186 62.6973 76.2321 62.8715 76.1866 63.0582Z" fill="#FF7B23"/>
<path opacity="0.15" d="M84.6924 82.8002C84.7529 82.6548 84.7876 82.5 84.7949 82.3427C85.0364 76.9735 85.117 71.9666 84.8425 67.8015C84.7932 67.3387 84.6513 66.8906 84.4252 66.4839C83.8945 65.7299 83.6932 72.0727 83.7115 75.9413C83.7298 79.81 83.7628 83.6273 84.3959 83.1881C84.4219 83.1707 84.4464 83.1511 84.4691 83.1296C84.5534 83.0268 84.6281 82.9165 84.6924 82.8002Z" fill="black"/>
<g opacity="0.15">
<path d="M75.396 76.128C75.396 76.128 75.5131 76.1975 75.7034 76.3256C75.8938 76.4537 76.1756 76.6294 76.505 76.8454C77.1638 77.2772 78.0458 77.8336 78.9535 78.3496C79.8612 78.8657 80.7835 79.3488 81.4826 79.7001C81.8486 79.8758 82.1267 80.0332 82.339 80.1284C82.5513 80.2235 82.6611 80.2967 82.6611 80.2967C82.6611 80.2967 82.5293 80.2748 82.2951 80.2199C82.0609 80.165 81.7424 80.0918 81.3655 79.9637C80.9885 79.8356 80.5493 79.6782 80.0918 79.4842C79.8649 79.3781 79.627 79.2793 79.3927 79.1548C79.1585 79.0304 78.9279 78.9059 78.6937 78.7888C78.2362 78.5143 77.786 78.2325 77.3797 77.936C77.0126 77.669 76.6595 77.3832 76.322 77.0796C76.0219 76.8161 75.7949 76.5708 75.6302 76.4061C75.4655 76.2414 75.396 76.128 75.396 76.128Z" fill="black"/>
<path d="M75.396 73.6392C75.396 73.6392 75.5131 73.7087 75.7034 73.8368C75.8938 73.9649 76.1756 74.1406 76.505 74.3566C77.1638 74.7884 78.0458 75.3411 78.9535 75.8571C79.8612 76.3732 80.7835 76.8563 81.4826 77.2114C81.8486 77.3834 82.1267 77.5408 82.339 77.6396C82.5513 77.7384 82.6611 77.8079 82.6611 77.8079L82.2951 77.7311C82.0682 77.6725 81.7424 77.5993 81.3655 77.4749C80.9327 77.3365 80.5075 77.1752 80.0918 76.9918C79.8649 76.8856 79.627 76.7868 79.3927 76.6624C79.1585 76.5379 78.9279 76.4171 78.6937 76.2964C78.2362 76.0255 77.786 75.74 77.3797 75.4472C76.9735 75.1544 76.6148 74.858 76.322 74.5908C76.0292 74.3236 75.7949 74.0821 75.6302 73.9174C75.4655 73.7527 75.396 73.6392 75.396 73.6392Z" fill="black"/>
<path d="M75.9194 71.5676C75.9194 71.5676 76.0255 71.6298 76.2049 71.747C76.3842 71.8641 76.6441 72.0215 76.9369 72.2191C77.5481 72.6144 78.3643 73.1158 79.2061 73.5696C80.0479 74.0235 80.9153 74.4371 81.5704 74.7555L82.361 75.1471L82.6574 75.3008C82.6574 75.3008 82.5367 75.2825 82.328 75.2386C82.1194 75.1947 81.8193 75.1251 81.4679 75.0227C81.0649 74.9073 80.6679 74.7717 80.2784 74.6164C80.0662 74.5249 79.8429 74.4444 79.627 74.3346C79.411 74.2248 79.1878 74.1186 78.9682 74.0052C78.7486 73.8917 78.5399 73.7636 78.335 73.6392C78.13 73.5147 77.936 73.372 77.7457 73.2439C77.4041 72.9979 77.0766 72.7327 76.7648 72.4497C76.4903 72.2045 76.2817 71.9776 76.1353 71.8238C75.9889 71.6701 75.9194 71.5676 75.9194 71.5676Z" fill="black"/>
<path d="M76.128 69.2325L76.4062 69.4009C76.5745 69.5217 76.8307 69.6681 77.1382 69.8584C77.7274 70.2244 78.5143 70.7222 79.3342 71.1467C80.154 71.5713 80.9958 71.9666 81.629 72.2703L82.3939 72.6363C82.5806 72.7278 82.6831 72.7864 82.6831 72.7864L82.3646 72.7278C82.1633 72.6803 81.8705 72.6217 81.5302 72.5265C81.1898 72.4314 80.7982 72.3069 80.3773 72.1605C80.1723 72.0764 79.9527 71.9995 79.7441 71.897C79.5355 71.7945 79.3159 71.6957 79.1036 71.5896C78.8913 71.4834 78.6863 71.3553 78.4887 71.2236C78.2911 71.0918 78.0971 70.9674 77.9141 70.8576C77.5833 70.6215 77.2668 70.3661 76.9661 70.0926C76.7026 69.8547 76.5013 69.6315 76.3622 69.4851C76.2232 69.3387 76.128 69.2325 76.128 69.2325Z" fill="black"/>
<path d="M76.494 67.0036L76.7575 67.161L77.4346 67.5892C78.1042 68.0212 78.7956 68.4182 79.5062 68.7787C80.2784 69.1703 81.0836 69.5107 81.7022 69.7962C82.3207 70.0817 82.694 70.2939 82.694 70.2939C82.3243 70.2362 81.9578 70.1593 81.596 70.0634C80.8018 69.8643 80.0303 69.5834 79.2939 69.2252C79.0926 69.1191 78.895 69.0129 78.7046 68.8995C78.5143 68.786 78.3386 68.6579 78.163 68.5335C77.8513 68.3086 77.5542 68.0641 77.2736 67.8015C76.9942 67.5553 76.7336 67.2886 76.494 67.0036Z" fill="black"/>
<path d="M77.3138 64.8589C77.3138 64.8589 77.6542 65.0528 78.141 65.3603C78.6278 65.6677 79.2719 66.0484 79.9417 66.3961C80.6115 66.7438 81.2959 67.0695 81.812 67.3294C82.328 67.5892 82.6648 67.7869 82.6648 67.7869C82.3422 67.7462 82.023 67.6826 81.7095 67.5965C81.0177 67.4177 80.3476 67.1636 79.7111 66.8389C79.5391 66.7401 79.3671 66.6449 79.2024 66.5461C79.0377 66.4473 78.884 66.3338 78.7339 66.2277C78.4619 66.0326 78.2049 65.8173 77.9653 65.5835C77.728 65.3609 77.51 65.1185 77.3138 64.8589Z" fill="black"/>
</g>
<path d="M72.102 81.0837C69.5912 81.5302 67.1061 82.8148 64.6429 84.6631C64.4919 84.7633 64.3681 84.8993 64.2824 85.0589C64.1967 85.2186 64.1519 85.3969 64.1519 85.5781C64.1519 85.7593 64.1967 85.9377 64.2824 86.0974C64.3681 86.257 64.4919 86.393 64.6429 86.4931C67.624 88.6759 70.8405 90.5174 74.2321 91.9831C75.1115 92.3186 76.0878 92.2922 76.9478 91.9099C79.0532 90.8455 80.9886 89.4739 82.6904 87.84C82.8265 87.7071 82.9312 87.5456 82.9969 87.367C83.0626 87.1885 83.0876 86.9976 83.07 86.8082C83.0525 86.6188 82.9929 86.4357 82.8955 86.2723C82.7982 86.1089 82.6656 85.9692 82.5074 85.8636C80.1671 84.126 77.6452 82.6472 74.9861 81.4533C74.0696 81.0954 73.0791 80.9685 72.102 81.0837Z" fill="#FF7B23"/>
<g opacity="0.2">
<path d="M65.9935 85.5891C65.9935 85.5891 66.1508 85.6294 66.418 85.7135C66.6852 85.7977 67.0768 85.9185 67.516 86.0795C68.6265 86.5008 69.7032 87.0062 70.7368 87.5911C71.7664 88.1751 72.7458 88.8435 73.6648 89.5895C74.0834 89.9284 74.4841 90.2888 74.8653 90.6692L73.4965 89.8201C72.6803 89.3113 71.5896 88.6489 70.477 88.023C69.3643 87.3971 68.237 86.7896 67.3843 86.3394L66.3558 85.7904C66.1325 85.6696 65.9935 85.5891 65.9935 85.5891Z" fill="black"/>
<path d="M68.3871 84.2093L68.8117 84.3337C69.0788 84.4216 69.4705 84.5423 69.9097 84.6997C71.0201 85.1196 72.0968 85.6237 73.1305 86.2076C74.1593 86.7929 75.1385 87.4612 76.0585 88.206C76.477 88.5514 76.8777 88.9179 77.2589 89.304L75.8901 88.4549C75.0739 87.9425 73.9832 87.2837 72.8706 86.6578C71.758 86.032 70.6307 85.4244 69.7779 84.9742L68.7494 84.4252C68.5262 84.2935 68.3871 84.2093 68.3871 84.2093Z" fill="black"/>
<path d="M70.444 83.0417C70.444 83.0417 70.5977 83.082 70.8686 83.1662C71.1394 83.2504 71.5274 83.3711 71.9666 83.5322C73.0767 83.9528 74.1534 84.4569 75.1874 85.0401C76.2165 85.6249 77.1958 86.2932 78.1154 87.0385C78.5344 87.3833 78.9351 87.7498 79.3159 88.1365C79.3159 88.1365 78.7669 87.7998 77.947 87.2874C77.1272 86.775 76.0365 86.1198 74.9275 85.4903C73.8185 84.8608 72.6876 84.2605 71.8348 83.8104L70.8064 83.2614L70.444 83.0417Z" fill="black"/>
<path d="M72.6839 82.0828C72.6839 82.0828 72.8303 82.1194 73.0792 82.1963C73.3281 82.2731 73.6831 82.3793 74.0967 82.5367C75.1186 82.9162 76.1087 83.3764 77.0576 83.9128C78.0074 84.4447 78.9098 85.0569 79.7551 85.7428C80.1384 86.0576 80.5049 86.3924 80.8531 86.7457C80.8531 86.7457 80.725 86.6725 80.4871 86.5334C80.2492 86.3943 79.949 86.2076 79.5721 85.9771C78.8401 85.5122 77.8189 84.9083 76.7978 84.3337C75.7766 83.7591 74.7445 83.2028 73.9649 82.7855L73.0243 82.2731C72.812 82.1597 72.6839 82.0828 72.6839 82.0828Z" fill="black"/>
</g>
<path d="M112.157 98.0148L107.348 97.9197L100.028 93.729C99.3445 93.3871 98.5973 93.1916 97.8341 93.1551C97.0709 93.1185 96.3084 93.2417 95.5955 93.5167L86.742 97.5171L80.6664 97.3963V100.946C80.6664 101.345 80.9482 101.755 81.5265 102.088L97.4475 111.282C98.0921 111.615 98.8168 111.761 99.5399 111.703C100.263 111.645 100.955 111.387 101.539 110.957L111.421 102.93C111.638 102.773 111.817 102.569 111.943 102.333C112.07 102.098 112.142 101.836 112.153 101.569L112.157 98.0148Z" fill="#37474F"/>
<path d="M81.5155 98.5382L97.4365 107.732C98.0811 108.065 98.8059 108.21 99.5289 108.153C100.252 108.095 100.945 107.837 101.528 107.406L111.41 99.38C112.479 98.5126 112.377 97.2535 111.183 96.5691L100.028 90.1787C99.3445 89.8369 98.5973 89.6414 97.8341 89.6049C97.0709 89.5683 96.3084 89.6915 95.5955 89.9665L81.618 96.258C80.3736 96.8326 80.3224 97.8501 81.5155 98.5382Z" fill="#455A64"/>
<path d="M112.161 98.0185V101.561C112.151 101.829 112.079 102.091 111.952 102.327C111.826 102.563 111.646 102.767 111.429 102.923L101.547 110.949C100.986 111.374 100.315 111.628 99.6142 111.681V108.135C100.315 108.081 100.986 107.827 101.547 107.403L111.429 99.3507C111.642 99.1967 111.818 98.9973 111.945 98.7669C112.071 98.5365 112.145 98.2809 112.161 98.0185Z" fill="#263238"/>
<path d="M113.694 96.968C113.719 97.126 113.701 97.2878 113.641 97.4361C113.581 97.5844 113.482 97.7136 113.354 97.8098L109.299 100.149C109.434 100.058 109.541 99.931 109.606 99.7817C109.671 99.6323 109.691 99.4674 109.665 99.3068L108.783 79.4952C108.737 79.0433 108.592 78.6072 108.356 78.219C108.121 77.8308 107.801 77.5002 107.421 77.2516L97.8501 71.736C97.7042 71.6367 97.5349 71.5774 97.3589 71.5639C97.183 71.5504 97.0066 71.5832 96.8473 71.6591L100.873 69.3387C101.036 69.2572 101.217 69.2203 101.398 69.2319C101.58 69.2435 101.755 69.3031 101.905 69.4046L111.454 74.9202C111.835 75.167 112.155 75.4967 112.391 75.8845C112.627 76.2723 112.772 76.7084 112.816 77.1601L113.694 96.968Z" fill="#263238"/>
<path d="M97.8538 71.736L107.406 77.2516C107.786 77.4998 108.105 77.8298 108.341 78.2174C108.576 78.6049 108.722 79.0403 108.768 79.4915L109.646 99.3068C109.683 100.134 109.134 100.467 108.42 100.039L94.8196 92.1881C94.4524 91.9525 94.1576 91.62 93.9677 91.2272C93.7777 90.8345 93.7002 90.3969 93.7436 89.9628L96.3385 72.468C96.3435 72.2944 96.396 72.1256 96.4904 71.9799C96.5848 71.8341 96.7174 71.7171 96.8737 71.6416C97.0301 71.5661 97.2041 71.5349 97.377 71.5516C97.5498 71.5682 97.7147 71.632 97.8538 71.736Z" fill="#37474F"/>
<path d="M112.395 75.8828L108.336 78.2215C108.106 77.8257 107.783 77.4916 107.395 77.2479L97.8501 71.736C97.7042 71.6367 97.5349 71.5774 97.3589 71.5639C97.183 71.5504 97.0066 71.5832 96.8473 71.6591L100.873 69.3387C101.036 69.2572 101.217 69.2203 101.398 69.2319C101.58 69.2435 101.755 69.3031 101.905 69.4046L111.454 74.9202C111.84 75.1616 112.162 75.4916 112.395 75.8828Z" fill="#455A64"/>
<path d="M110.726 73.0024V68.076C110.726 64.5295 108.46 60.3424 105.664 58.732C104.383 58 103.216 57.9268 102.323 58.41L99.2372 60.2034L100.606 62.8239V67.161C100.63 67.61 100.76 68.047 100.986 68.4362C101.211 68.8254 101.525 69.156 101.902 69.4009L104.98 71.1797L107.297 75.612L110.345 73.8405C110.477 73.7469 110.582 73.62 110.649 73.4728C110.716 73.3256 110.742 73.1633 110.726 73.0024Z" fill="#263238"/>
<path d="M105.664 65.7482L109.632 63.4571C108.706 61.4368 107.275 59.6507 105.664 58.7247C104.383 57.9927 103.216 57.9195 102.323 58.4026L99.2372 60.196L100.606 62.8166V63.6694L105.664 65.7482Z" fill="#455A64"/>
<path d="M107.688 74.7665V69.8365C107.688 66.2863 105.423 62.1029 102.63 60.4888C99.8375 58.8748 97.5719 60.4449 97.5719 63.9951V68.9251C97.5958 69.3743 97.7253 69.8115 97.9498 70.2013C98.1742 70.5912 98.4874 70.9226 98.8639 71.1687L106.396 75.5168C107.11 75.9267 107.688 75.5936 107.688 74.7665Z" fill="#37474F"/>
<path d="M98.1429 75.9304C96.9669 80.3027 96.4028 84.817 96.4666 89.3443C96.4982 89.8068 96.6223 90.2584 96.8317 90.672C97.041 91.0857 97.3314 91.4532 97.6854 91.7525C100.046 93.5039 102.6 94.9776 105.298 96.1445C105.452 96.2323 105.627 96.2766 105.805 96.2728C105.982 96.269 106.155 96.2172 106.305 96.123C106.455 96.0288 106.577 95.8956 106.657 95.7376C106.738 95.5796 106.774 95.4028 106.762 95.2259C107 89.853 107.084 84.8461 106.806 80.681C106.694 79.7437 106.228 78.8847 105.503 78.2801C103.772 77.0142 101.909 75.9381 99.9473 75.0703C99.7742 74.9889 99.5853 74.9469 99.3941 74.9474C99.2028 74.9479 99.0141 74.9908 98.8415 75.0731C98.6688 75.1554 98.5166 75.275 98.3958 75.4232C98.275 75.5715 98.1886 75.7447 98.1429 75.9304Z" fill="#FF7B23"/>
<path opacity="0.15" d="M106.645 95.6724C106.708 95.529 106.744 95.3751 106.751 95.2186C106.989 89.8457 107.073 84.8388 106.795 80.6737C106.749 80.2102 106.607 79.7614 106.378 79.3561C105.847 78.6022 105.646 84.9486 105.664 88.8172C105.683 92.6858 105.719 96.5032 106.352 96.0604L106.425 96.0018C106.507 95.8979 106.581 95.7878 106.645 95.6724Z" fill="black"/>
<g opacity="0.15">
<path d="M97.356 89.0149L97.6634 89.2125C97.8538 89.3443 98.1319 89.5163 98.4613 89.7322C99.1238 90.1641 100.006 90.7204 100.91 91.2365C101.814 91.7525 102.74 92.2357 103.443 92.587C103.809 92.7627 104.087 92.9201 104.295 93.0152C104.504 93.1104 104.617 93.1836 104.617 93.1836C104.617 93.1836 104.489 93.1616 104.251 93.1067C104.014 93.0518 103.699 92.9786 103.322 92.8505C102.889 92.7135 102.464 92.5534 102.048 92.3711C101.821 92.2649 101.583 92.1661 101.353 92.0417C101.122 91.9172 100.884 91.7965 100.65 91.6757C100.193 91.4048 99.7423 91.1194 99.3397 90.8229C98.9715 90.5558 98.6172 90.27 98.2783 89.9665C97.9782 89.7029 97.7513 89.4577 97.5902 89.293C97.4292 89.1283 97.356 89.0149 97.356 89.0149Z" fill="black"/>
<path d="M97.356 86.5114L97.6634 86.7091C97.8538 86.8408 98.1319 87.0128 98.4613 87.2288C99.1238 87.6607 100.006 88.2133 100.91 88.7294C101.814 89.2454 102.74 89.7286 103.443 90.0836C103.809 90.2593 104.087 90.4166 104.295 90.5118C104.504 90.607 104.617 90.6802 104.617 90.6802L104.251 90.6033C104.025 90.5447 103.699 90.4715 103.322 90.3471C102.889 90.2087 102.464 90.0474 102.048 89.864C101.821 89.7578 101.583 89.6627 101.353 89.5382C101.122 89.4138 100.884 89.2894 100.65 89.1722C100.193 88.9014 99.7423 88.6159 99.3397 88.3231C98.9371 88.0303 98.5748 87.7339 98.2783 87.4667C97.9819 87.1995 97.7513 86.9579 97.5902 86.7932C97.4292 86.6285 97.356 86.5114 97.356 86.5114Z" fill="black"/>
<path d="M97.8721 84.4398C97.8721 84.4398 97.9782 84.5021 98.1575 84.6192C98.3369 84.7363 98.5967 84.8973 98.8895 85.095C99.4971 85.4866 100.313 85.988 101.155 86.4419C101.997 86.8957 102.864 87.3093 103.519 87.6277L104.31 88.0193L104.606 88.173C104.606 88.173 104.486 88.173 104.277 88.1108C104.068 88.0486 103.768 88.001 103.417 87.8949C103.014 87.7796 102.617 87.644 102.227 87.4886C102.015 87.3971 101.792 87.3166 101.576 87.2068C101.36 87.097 101.137 86.9909 100.917 86.8811C100.698 86.7713 100.489 86.6358 100.284 86.5151C100.079 86.3943 99.8851 86.2479 99.6948 86.1198C99.3522 85.8749 99.0247 85.6097 98.7139 85.3256C98.443 85.0803 98.2307 84.8534 98.0843 84.6997C97.9379 84.546 97.8721 84.4398 97.8721 84.4398Z" fill="black"/>
<path d="M98.088 82.1048C98.088 82.1048 98.1905 82.1633 98.3662 82.2768C98.5418 82.3902 98.7907 82.5403 99.0982 82.7306C99.6874 83.0966 100.474 83.5944 101.294 84.0189C102.114 84.4435 102.952 84.8388 103.589 85.1426L104.354 85.5086C104.537 85.6001 104.639 85.6586 104.639 85.6586L104.321 85.6001C104.12 85.5525 103.827 85.4976 103.486 85.3988C103.146 85.2999 102.754 85.1792 102.334 85.0328C102.129 84.9486 101.913 84.8717 101.7 84.7692C101.488 84.6668 101.272 84.5679 101.06 84.4618C100.848 84.3557 100.643 84.2276 100.445 84.0958C100.247 83.964 100.053 83.8396 99.8704 83.7298C99.5408 83.4924 99.2255 83.2357 98.9261 82.9612C98.6626 82.7233 98.4613 82.5 98.3186 82.3536C98.1758 82.2072 98.088 82.1048 98.088 82.1048Z" fill="black"/>
<path d="M98.454 79.8759L98.7175 80.0332C98.8786 80.1394 99.1128 80.2858 99.3946 80.4615C100.063 80.8948 100.753 81.2931 101.463 81.6546C102.235 82.0426 103.04 82.3866 103.64 82.6684C104.24 82.9503 104.632 83.1662 104.632 83.1662C104.262 83.1087 103.896 83.0318 103.534 82.9356C102.739 82.7366 101.966 82.4557 101.228 82.0975C101.031 81.9913 100.829 81.8852 100.639 81.7717C100.449 81.6583 100.273 81.5302 100.097 81.4057C99.7848 81.1819 99.4877 80.9374 99.208 80.6737C98.9366 80.4274 98.6846 80.1607 98.454 79.8759Z" fill="black"/>
<path d="M99.2665 77.7311C99.2665 77.7311 99.6106 77.9251 100.094 78.2325C100.577 78.5399 101.225 78.9242 101.894 79.2683C102.564 79.6123 103.249 79.9417 103.765 80.2016C104.281 80.4614 104.617 80.6627 104.617 80.6627C104.296 80.6193 103.978 80.5545 103.666 80.4688C102.973 80.29 102.302 80.0359 101.664 79.7111C101.492 79.616 101.32 79.5208 101.155 79.4183C100.99 79.3159 100.837 79.2061 100.687 79.0999C100.414 78.905 100.157 78.6897 99.918 78.4558C99.6819 78.2319 99.4641 77.9896 99.2665 77.7311Z" fill="black"/>
</g>
<path d="M94.062 93.9559C91.5512 94.406 89.0698 95.687 86.6029 97.5353C86.4519 97.6355 86.3281 97.7715 86.2424 97.9311C86.1567 98.0908 86.1119 98.2692 86.1119 98.4503C86.1119 98.6315 86.1567 98.8099 86.2424 98.9696C86.3281 99.1292 86.4519 99.2652 86.6029 99.3653C89.5836 101.549 92.8002 103.39 96.1921 104.855C97.0698 105.192 98.0449 105.167 98.9042 104.786C101.006 103.712 102.938 102.333 104.636 100.694C104.772 100.561 104.878 100.4 104.944 100.221C105.01 100.043 105.035 99.8515 105.018 99.6619C105 99.4723 104.94 99.289 104.842 99.1256C104.745 98.9621 104.612 98.8227 104.453 98.7175C102.112 96.9799 99.5906 95.5012 96.9314 94.3072C96.0175 93.9597 95.0328 93.8391 94.062 93.9559Z" fill="#FF7B23"/>
<g opacity="0.2">
<path d="M87.9461 98.454C87.9461 98.454 88.1035 98.4943 88.3744 98.5784C88.6452 98.6626 89.0295 98.7834 89.4724 98.9444C90.5819 99.3636 91.6575 99.8677 92.6895 100.452C93.7191 101.036 94.6985 101.705 95.6175 102.451C96.0366 102.79 96.4385 103.151 96.8216 103.53L95.4528 102.681C94.6366 102.173 93.5423 101.51 92.4296 100.884C91.317 100.258 90.1897 99.6545 89.3406 99.2043L88.3121 98.6517C88.0852 98.5419 87.9461 98.454 87.9461 98.454Z" fill="black"/>
<path d="M90.3398 97.0815L90.768 97.2096C91.0352 97.2938 91.4231 97.4146 91.866 97.5756C92.9764 97.9955 94.0532 98.4996 95.0868 99.0835C96.1156 99.6688 97.0949 100.337 98.0148 101.082C98.4333 101.427 98.834 101.794 99.2153 102.18L97.8464 101.331C97.0303 100.822 95.9396 100.16 94.8269 99.5337C93.7143 98.9079 92.587 98.3003 91.7379 97.8501L90.7058 97.3011C90.4789 97.1657 90.3398 97.0815 90.3398 97.0815Z" fill="black"/>
<path d="M92.3967 95.914L92.8213 96.0384C93.0921 96.1262 93.4801 96.247 93.9193 96.4044C95.0297 96.8243 96.1064 97.3284 97.1401 97.9123C98.1689 98.4975 99.1481 99.1659 100.068 99.9107C100.487 100.256 100.887 100.623 101.269 101.009L99.918 100.16C99.1018 99.6472 98.0111 98.9884 96.8985 98.3588C95.7859 97.7293 94.6586 97.1291 93.8058 96.6789L92.7773 96.1299C92.5358 95.9981 92.3967 95.914 92.3967 95.914Z" fill="black"/>
<path d="M94.6366 94.955C94.6366 94.955 94.783 94.9916 95.0319 95.0685C95.2808 95.1454 95.6358 95.2515 96.053 95.4089C97.0734 95.7892 98.0622 96.2493 99.0103 96.785C99.9601 97.3169 100.863 97.9291 101.708 98.615C102.091 98.9298 102.458 99.2646 102.806 99.6179C102.806 99.6179 102.678 99.5447 102.458 99.4093L101.547 98.8493C100.793 98.3845 99.7899 97.7842 98.7688 97.2059C97.7476 96.6277 96.7192 96.075 95.9396 95.6578L94.999 95.1454C94.7647 95.0319 94.6366 94.955 94.6366 94.955Z" fill="black"/>
</g>
<path d="M160.795 84.2496L144.365 74.7628L153.493 69.4924L162.376 75.1032L160.795 84.2496Z" fill="#FF7B23"/>
<path opacity="0.35" d="M160.795 84.2496L144.365 74.7628L153.493 69.4924L162.376 75.1032L160.795 84.2496Z" fill="black"/>
<path d="M153.866 81.984L156.227 77.2992L150.613 74.0491C148.827 73.0243 146.448 73.1378 143.838 74.6457C138.293 77.8482 133.799 86.1052 133.795 93.0921C133.795 96.7521 135.028 99.3141 137.001 100.5L137.082 100.548L142.839 103.871L145.328 98.9298C150.06 95.3394 153.683 88.228 153.866 81.984Z" fill="#37474F"/>
<path d="M153.866 81.984L156.227 77.2992L150.613 74.0491C148.827 73.0243 146.448 73.1378 143.838 74.6457C138.293 77.8482 133.799 86.1052 133.795 93.0921C133.795 96.7521 135.028 99.3141 137.001 100.5L137.082 100.548L142.839 103.871L145.328 98.9298C150.06 95.3394 153.683 88.228 153.866 81.984Z" fill="#263238"/>
<path d="M159.719 84.8791C159.719 90.9035 156.377 97.8721 151.901 101.715C151.899 101.721 151.899 101.727 151.901 101.733C151.218 102.324 150.483 102.852 149.705 103.311C144.16 106.513 139.662 103.446 139.666 96.4593C139.666 91.1853 142.228 85.1755 145.888 81.1752C145.899 81.1659 145.909 81.1548 145.917 81.1422C147.011 79.9202 148.285 78.8713 149.694 78.0312C155.224 74.8287 159.719 77.8958 159.719 84.8791Z" fill="#37474F"/>
<path d="M149.694 82.2475C153.222 80.2089 156.084 82.3317 156.084 86.9872C156.084 91.6427 153.208 97.0705 149.694 99.1091C146.18 101.148 143.304 99.025 143.304 94.3511C143.304 89.6773 146.151 84.2825 149.694 82.2475Z" fill="#455A64"/>
<path d="M152.556 89.3662C152.333 91.683 150.858 94.1499 149.262 94.8745C148.992 95.0287 148.682 95.0982 148.372 95.0741C148.062 95.05 147.766 94.9333 147.524 94.7391C146.96 94.267 146.664 93.2751 146.792 91.9868C147.015 89.67 148.483 87.2032 150.086 86.4968C150.445 86.3117 150.857 86.2549 151.253 86.3358C152.175 86.5407 152.721 87.679 152.556 89.3662Z" fill="#FAFAFA"/>
<path d="M151.985 89.0734C151.758 91.3902 150.287 93.857 148.691 94.5634C148.333 94.7471 147.922 94.8039 147.527 94.7245C146.964 94.2523 146.667 93.2605 146.795 91.9721C147.019 89.6554 148.486 87.1885 150.089 86.4821C150.449 86.2971 150.861 86.2403 151.257 86.3211C151.817 86.7969 152.11 87.7741 151.985 89.0734Z" fill="#E0E0E0"/>
<path d="M159.719 84.8791C159.719 90.9035 156.377 97.8721 151.901 101.715C154.551 98.8274 157.296 93.9962 158.269 89.3919C159.119 85.3659 158.8 79.5831 155.341 78.1227C151.883 76.6624 147.326 79.7405 145.88 81.1422C146.986 79.9173 148.272 78.8682 149.694 78.0312C155.224 74.8287 159.719 77.8958 159.719 84.8791Z" fill="#455A64"/>
<path d="M162.445 61.488C160.41 56.6788 151.923 51.6829 148.3 53.4982C147.172 54.0582 143.966 56.0017 139.925 58.3294C139.925 58.3294 126.636 66.3814 125.41 67.0768C125.41 67.0768 131.76 66.9707 133.202 67.4904C134.644 68.0101 134.359 69.1155 134.263 69.5254L133.531 71.8824C131.877 79.9344 119.364 83.2284 116.695 86.204C115.755 87.2617 114.983 87.6387 113.456 88.5171C111.93 89.3955 102.421 94.7062 101.067 95.4894C98.626 96.8985 94.6732 98.6956 94.6732 98.6956V122.328L136.426 98.3881C136.427 97.7402 136.461 97.0927 136.529 96.4483C137.261 88.7623 142.905 79.8539 148.944 76.3696C155.495 72.5851 160.809 76.1207 160.809 84.2679L161.871 83.6566C165.659 81.3655 164.477 66.2753 162.445 61.488Z" fill="#FF7B23"/>
<path d="M139.289 67.161C136.727 67.161 136.62 68.4969 135.782 71.1394C135.124 73.2183 134.106 75.063 135.347 74.4334C136.588 73.8039 140.855 69.2582 141.649 68.4713C143.289 66.8536 140.46 67.161 139.289 67.161Z" fill="black"/>
<path d="M151.777 53.2859C150.426 52.9858 149.196 53.0041 148.278 53.4653C147.15 54.0289 143.94 55.976 139.9 58.3038L134.461 61.4368L105.474 44.7362C105.474 44.7362 116.717 38.9973 120.707 37.4564C124.696 35.9156 150.649 50.2957 151.777 53.2859Z" fill="#FF7B23"/>
<path opacity="0.5" d="M95.4491 100.203L117.826 87.3935C118.054 87.5652 118.235 87.7911 118.353 88.0506C118.472 88.3101 118.523 88.595 118.503 88.8795L95.4491 100.203Z" fill="white"/>
<path d="M114.514 92.4882C114.493 92.4994 114.47 92.5051 114.446 92.5048C114.423 92.5045 114.4 92.4982 114.379 92.4865C114.359 92.4748 114.341 92.4581 114.329 92.4379C114.317 92.4177 114.31 92.3947 114.309 92.3711V91.7306C114.309 91.2475 115.041 90.4349 115.927 89.9225L117.244 89.1613C118.137 88.6452 118.862 88.6196 118.862 89.1027V89.6261C118.862 89.7338 118.834 89.8396 118.78 89.9328C118.726 90.026 118.648 90.1033 118.555 90.1568L114.514 92.4882Z" fill="#37474F"/>
<path opacity="0.5" d="M130.377 79.9966C129.227 80.8567 122.691 84.7546 121.776 85.3366C122.305 85.8513 122.698 86.4905 122.917 87.1958C122.917 87.1958 146.151 73.7856 151.831 68.7641C157.512 63.7426 160.615 59.0651 156.223 56.6312C154.891 55.8992 153.661 54.8963 152.04 55.4966C151.923 55.5351 151.815 55.596 151.722 55.6759C151.58 55.8399 151.488 56.0402 151.454 56.2542C150.166 61.2501 146.078 64.9906 142.78 68.7641C139.548 72.468 134.435 76.9588 130.377 79.9966Z" fill="white"/>
<path opacity="0.15" d="M87.668 44.4031C87.668 44.4031 115.195 36.6513 117.149 37.8151C119.104 38.979 93.1104 50.4348 93.1104 50.4348L87.668 44.4031Z" fill="black"/>
<path opacity="0.15" d="M98.088 116.297C97.1035 116.82 96.9058 114.708 96.3422 110.598C95.7785 106.488 95.8371 99.5996 95.8371 99.5996C95.16 102.681 95.4418 110.148 95.8371 114.931C96.2324 119.715 97.1327 119.268 98.088 118.558L120.264 104.943L98.088 116.297Z" fill="black"/>
<path opacity="0.15" d="M119.217 86.376C119.217 86.376 120.498 87.8693 120.498 91.134C120.498 95.0356 120.538 104.31 120.538 104.31C120.538 104.31 121.27 93.9925 121.699 90.768C122.127 87.5436 120.495 85.7062 120.495 85.7062L119.217 86.376Z" fill="black"/>
<path opacity="0.15" d="M144.365 78.9279C144.365 78.9279 143.794 76.1463 142.993 75.1032C142.191 74.0601 137.938 73.5404 137.938 73.5404C137.938 73.5404 141.272 74.6896 142.195 75.6742C143.117 76.6587 144.365 78.9279 144.365 78.9279Z" fill="black"/>
<path opacity="0.15" d="M156.765 75.1032C156.765 75.1032 161.003 72.6766 161.915 71.0772C162.826 69.4778 163.21 64.1598 163.21 64.1598C163.21 64.1598 163.576 70.272 162.504 71.736C161.432 73.2 156.765 75.1032 156.765 75.1032Z" fill="black"/>
<path d="M146.565 62.6338C142.971 59.197 138.579 56.7082 134.37 54.106C130.161 51.5037 125.999 48.982 121.761 46.5334C118.269 44.5058 114.763 42.5074 111.147 40.6774C110.183 40.1772 109.192 39.7312 108.179 39.3415L107.794 39.2061H107.747C107.245 39.0487 106.616 38.8657 105.887 38.6791C102.158 37.7092 95.8005 36.527 90.2153 36.8783C85.3475 37.1858 60.767 48.938 58.0513 52.0783C56.787 53.5054 55.5959 54.9957 54.4828 56.5435C54.4828 56.5435 57.8353 53.9559 59.4787 54.5525C60.8036 55.0356 70.2903 63.5963 76.6807 66.9965C84.3081 71.0225 94.8452 75.0119 97.4658 76.1977C100.086 77.3836 98.4577 80.5531 98.4577 80.5531C99.6691 78.6316 100.262 77.5483 101.752 76.2965C104.489 73.9944 115.488 68.2738 115.66 68.186C117.183 67.3981 118.853 66.9357 120.564 66.8281L132.024 67.1941L145.101 64.4089C145.792 64.3837 146.466 64.1835 147.059 63.8269C147.234 63.3804 146.89 62.9522 146.565 62.6338Z" fill="#FF7B23"/>
<path opacity="0.5" d="M100.445 77.1858C103.806 74.478 107.369 72.0309 111.103 69.8658C117.53 66.1033 119.21 65.4189 125.853 65.3896C130.918 65.3676 135.998 65.525 141.067 65.5726C141.297 65.5933 141.527 65.5542 141.737 65.4591C141.84 65.4077 141.92 65.3189 141.96 65.2108C142 65.1028 141.998 64.9835 141.953 64.8772C141.862 64.7577 141.733 64.6725 141.587 64.6356C138.088 63.3985 132.583 62.9703 129.268 61.2904C126.42 59.8447 123.642 58.2636 120.85 56.6788C113.222 52.327 106.034 48.2022 98.465 43.1587C91.4048 38.4593 90.3691 36.999 87.485 37.4967C79.4513 40.0148 60.401 49.3222 58.0366 52.0672L58.0073 52.1038L58.0366 53.4836C58.0366 53.4836 58.4502 53.8496 59.1822 54.4755C59.2782 54.4875 59.3727 54.5095 59.464 54.5413C60.6645 54.9805 68.5664 62.0517 74.8067 65.8873C75.4289 66.2533 76.0548 66.6193 76.6807 66.9634C83.2687 70.4331 91.9868 73.8735 95.9506 75.5168C98.6663 76.5599 100.445 77.1858 100.445 77.1858Z" fill="white"/>
<path opacity="0.15" d="M141.979 64.244C139.952 64.0227 137.939 63.6953 135.947 63.2631C133.692 62.7946 131.332 62.3481 129.257 61.2977C126.409 59.852 123.631 58.2709 120.839 56.6861C113.215 52.3344 106.023 48.2095 98.454 43.1661C91.3975 38.4703 90.3581 37.0063 87.474 37.504C88.3542 37.198 89.2646 36.987 90.1897 36.8745C96.8692 36.4573 104.65 38.2287 107.721 39.2023C108.89 39.6125 110.027 40.1104 111.121 40.6919C114.737 42.489 118.244 44.5056 121.735 46.5479C125.974 49.0123 130.176 51.5365 134.344 54.1204C138.553 56.7227 142.945 59.2115 146.539 62.6482C146.865 62.9593 147.209 63.3802 147.04 63.8085C146.074 64.438 144.845 64.4489 143.692 64.3904C143.135 64.3465 142.553 64.3026 141.979 64.244Z" fill="black"/>
<path d="M134.384 56.1408C125.483 51.0168 119.144 47.0823 112.234 43.0892C109.716 41.6252 107.344 40.5565 104.021 40.0368C102.293 39.7659 99.4239 39.2572 97.8721 39.2828C95.2405 39.3816 96.774 40.8786 102.041 43.9164C107.308 46.9542 121.68 55.7016 124.733 57.4584C127.785 59.2152 132.419 61.6161 138.45 62.5824C144.482 63.5486 149.039 64.6027 134.384 56.1408Z" fill="#455A64"/>
<path d="M134.937 67.0549C133.202 65.9788 126.23 65.8946 123.02 65.7482C119.905 65.6055 117.76 66.085 115.667 67.2122C115.524 67.2854 115.381 67.3623 115.242 67.4465C113.551 68.4493 104.577 73.7453 101.938 75.2203C99.2995 76.6953 98.9005 78.5546 97.6195 81.2191C96.3385 83.8835 89.0661 98.82 88.6708 100.884C88.2755 102.948 99.186 97.356 99.186 97.356L115.235 88.0852C115.861 87.7192 116.033 87.6167 116.791 87.1373C117.548 86.6578 127.386 80.6481 131.134 77.5664C133.004 76.0328 133.531 74.9495 134.249 72.2484C135.109 69.0313 136.024 67.7283 134.937 67.0549ZM115.678 86.3943C114.452 87.1556 111.286 88.7587 106.502 91.5915C100.372 95.2295 91.3207 99.4276 91.2584 99.4532C93.1507 94.7794 98.5089 83.5468 99.4971 81.1532C100.485 78.7595 101.455 77.1052 102.744 76.3952C105.584 74.8067 114.382 69.8621 116.081 68.8519C116.166 68.8006 116.264 68.772 116.364 68.7689C116.464 68.7657 116.563 68.7881 116.652 68.8339C116.741 68.8796 116.817 68.9473 116.873 69.0305C116.928 69.1137 116.962 69.2097 116.97 69.3094C116.992 69.5254 117.003 69.7852 117.003 70.0963V83.9714C117.043 84.4605 116.939 84.9507 116.703 85.3814C116.468 85.812 116.111 86.1641 115.678 86.3943ZM133.956 68.3981C133.652 69.701 132.47 75.0995 130.86 76.4062C129.612 77.42 122.518 81.8376 119.905 83.5651C118.873 84.2495 118.661 83.3345 118.661 82.2146C118.661 79.3781 118.661 73.4306 118.661 70.078C118.599 68.3029 119.049 67.6002 120.491 67.3513C122.288 67.0439 134.322 66.7584 133.956 68.3981Z" fill="#263238"/>
<path opacity="0.5" d="M115.678 86.3943C114.452 87.1556 111.286 88.7587 106.502 91.5915C100.372 95.2295 91.3207 99.4276 91.2584 99.4532C93.1507 94.7794 98.5089 83.5468 99.4971 81.1532C100.485 78.7595 101.455 77.1052 102.744 76.3952C105.584 74.8067 114.382 69.8621 116.081 68.8519C116.166 68.8006 116.264 68.772 116.364 68.7689C116.464 68.7657 116.563 68.7881 116.652 68.8339C116.741 68.8796 116.817 68.9473 116.873 69.0305C116.928 69.1137 116.962 69.2097 116.97 69.3094C116.992 69.5254 117.003 69.7852 117.003 70.0963V83.9714C117.043 84.4605 116.939 84.9507 116.703 85.3814C116.468 85.812 116.111 86.1641 115.678 86.3943Z" fill="black"/>
<path opacity="0.5" d="M133.956 68.3981C133.652 69.7011 132.47 75.0996 130.86 76.4062C129.612 77.42 122.519 81.8376 119.905 83.5652C118.873 84.2496 118.661 83.3346 118.661 82.2146C118.661 79.3781 118.661 73.4306 118.661 70.0781C118.599 68.303 119.049 67.6002 120.491 67.3514C122.288 67.0439 134.322 66.7584 133.956 68.3981Z" fill="black"/>
<path d="M86.6359 99.9802C82.4818 96.8912 73.3061 90.2629 63.7352 84.6778C51.7048 77.6579 38.99 73.544 38.9644 73.5367C39.3084 74.836 41.3617 76.9003 44.125 79.1438C46.0794 80.7396 48.2864 82.3683 50.8337 84.0812C56.8581 88.2829 62.564 91.1852 64.6319 92.4187C74.9861 98.0331 85.5232 102.399 87.2617 100.332C87.2617 100.332 86.6395 99.9875 86.6359 99.9802Z" fill="#455A64"/>
<path d="M87.2617 100.332C86.7676 100.024 70.3928 89.9299 62.8276 85.3805C55.6247 81.047 40.7724 74.3529 38.968 73.5367C47.5845 76.3898 55.8841 80.1232 63.7352 84.6778C73.3061 90.2629 83.1113 97.2389 87.2617 100.332Z" fill="#37474F"/>
<path d="M41.4898 69.1228L41.1238 70.66C40.2746 72.2521 38.3971 74.2577 37.7236 74.093C37.1197 73.9466 36.7501 73.0682 36.5634 71.9849C36.4728 71.4673 36.4202 70.9437 36.406 70.4184C36.3475 68.7128 37.1051 64.7417 39.4694 63.684C39.7064 63.5818 39.9696 63.5572 40.2214 63.6137C40.4732 63.6703 40.7007 63.805 40.8712 63.9988C41.1868 64.3153 41.4216 64.7033 41.5556 65.1297C41.9473 66.3082 41.5447 69.0605 41.4898 69.1228Z" fill="#FF7B23"/>
<path opacity="0.3" d="M41.4898 69.1228C41.3653 69.7596 41.1238 70.66 41.1238 70.66C40.2746 72.2521 38.3971 74.2577 37.7236 74.093C37.1197 73.9466 36.7501 73.0682 36.5634 71.9849C36.4728 71.4673 36.4202 70.9437 36.406 70.4184C36.3475 68.7128 37.1051 64.7417 39.4694 63.684C39.7064 63.5818 39.9696 63.5572 40.2214 63.6137C40.4732 63.6703 40.7007 63.805 40.8712 63.9988C41.1868 64.3153 41.4216 64.7033 41.5556 65.1297C41.9473 66.3082 41.5447 69.0605 41.4898 69.1228Z" fill="black"/>
<path d="M41.1201 70.66C40.271 72.2521 38.3934 74.2577 37.72 74.093C37.1161 73.9466 36.7464 73.0682 36.5597 71.9849C36.4691 71.4673 36.4165 70.9437 36.4024 70.4184C36.3438 68.7128 37.1014 64.7417 39.4658 63.684C39.7027 63.5818 39.966 63.5572 40.2178 63.6137C40.4696 63.6703 40.697 63.805 40.8676 63.9988L40.5455 64.7308C38.8912 65.4335 38.4446 67.9882 38.5984 69.928C38.7521 71.8678 40.1722 71.6628 41.1201 70.66Z" fill="#FF7B23"/>
<path opacity="0.35" d="M41.1201 70.66C40.271 72.2521 38.3934 74.2577 37.72 74.093C37.1161 73.9466 36.7464 73.0682 36.5597 71.9849C36.4691 71.4673 36.4165 70.9437 36.4024 70.4184C36.3438 68.7128 37.1014 64.7417 39.4658 63.684C39.7027 63.5818 39.966 63.5572 40.2178 63.6137C40.4696 63.6703 40.697 63.805 40.8676 63.9988L40.5455 64.7308C38.8912 65.4335 38.4446 67.9882 38.5984 69.928C38.7521 71.8678 40.1722 71.6628 41.1201 70.66Z" fill="black"/>
<path d="M41.5483 65.1151C40.9517 64.4819 39.4658 64.4489 38.2177 66.1655C36.9697 67.882 36.5597 70.8283 36.5561 71.9702C36.4654 71.4526 36.4128 70.9291 36.3987 70.4038C36.3401 68.6982 37.0978 64.7271 39.4621 63.6694C40.4503 63.2302 41.2665 64.2403 41.5483 65.1151Z" fill="#37474F"/>
<path d="M94.6549 122.31L78.2252 112.82L87.3532 107.553L94.6549 111.784V122.31Z" fill="#FF7B23"/>
<path opacity="0.35" d="M94.6549 122.31L78.2252 112.82L87.3532 107.553L94.6549 111.784V122.31Z" fill="black"/>
<path d="M87.8912 119.949L90.2519 115.264L84.6375 112.014C82.8514 110.989 80.4724 111.103 77.8628 112.611C72.3179 115.813 67.8198 124.07 67.8198 131.057C67.8198 134.717 69.0532 137.279 71.026 138.465L71.1065 138.513L76.86 141.843L79.3488 136.902C84.0702 133.294 87.7082 126.182 87.8912 119.949Z" fill="#37474F"/>
<path d="M87.8912 119.949L90.2519 115.264L84.6375 112.014C82.8514 110.989 80.4724 111.103 77.8628 112.611C72.3179 115.813 67.8198 124.07 67.8198 131.057C67.8198 134.717 69.0532 137.279 71.026 138.465L71.1065 138.513L76.86 141.843L79.3488 136.902C84.0702 133.294 87.7082 126.182 87.8912 119.949Z" fill="#263238"/>
<path d="M93.7436 122.833C93.7436 128.858 90.402 135.826 85.9258 139.669C85.9216 139.671 85.9177 139.673 85.9145 139.676C85.9114 139.679 85.909 139.683 85.9075 139.688C85.2242 140.278 84.4892 140.806 83.7115 141.265C78.1666 144.468 73.6648 141.4 73.6721 134.414C73.6721 129.139 76.2341 123.13 79.8941 119.129C79.9057 119.12 79.9156 119.109 79.9234 119.096C81.0235 117.867 82.3046 116.813 83.7225 115.971C89.2491 112.783 93.7436 115.85 93.7436 122.833Z" fill="#37474F"/>
<path d="M83.7042 120.202C87.2324 118.163 90.0946 120.286 90.0946 124.941C90.0946 129.597 87.2324 135.025 83.7042 137.063C80.176 139.102 77.3138 136.979 77.3138 132.305C77.3138 127.632 80.176 122.244 83.7042 120.202Z" fill="#455A64"/>
<path d="M86.5919 127.342C86.3467 129.659 84.8571 132.1 83.265 132.832C82.9941 132.986 82.6833 133.054 82.3732 133.027C82.063 133.001 81.768 132.882 81.5265 132.686C80.9665 132.207 80.681 131.222 80.8165 129.926C81.058 127.613 82.5476 125.168 84.1434 124.436C84.5042 124.255 84.9156 124.201 85.3109 124.283C86.2333 124.513 86.7676 125.659 86.5919 127.342Z" fill="#FAFAFA"/>
<path d="M86.01 127.046C85.7684 129.359 84.2752 131.804 82.6831 132.536C82.3215 132.714 81.911 132.768 81.5155 132.69C80.9555 132.21 80.6701 131.226 80.8055 129.93C81.047 127.617 82.5367 125.172 84.1324 124.44C84.4932 124.259 84.9046 124.205 85.3 124.286C85.8709 124.769 86.1564 125.747 86.01 127.046Z" fill="#E0E0E0"/>
<path d="M93.7436 122.833C93.7436 128.858 90.402 135.826 85.9258 139.669C88.5757 136.782 91.3207 131.95 92.2942 127.346C93.1433 123.32 92.8213 117.537 89.3662 116.077C85.9112 114.617 81.3508 117.695 79.9051 119.096C81.0052 117.867 82.2863 116.813 83.7042 115.971C89.2491 112.783 93.7436 115.85 93.7436 122.833Z" fill="#455A64"/>
<path d="M94.6879 98.6809C94.6879 98.6809 93.7326 98.5016 93.9559 97.6708C93.9559 97.6708 88.3597 100.233 87.1849 100.621C84.6229 101.466 74.9861 98.0404 64.6319 92.4187C62.564 91.1853 56.8581 88.2865 50.8374 84.0812C48.2754 82.3683 46.0794 80.7396 44.1213 79.1439C42.4611 77.8064 40.9395 76.3056 39.5792 74.664C39.2498 74.2614 38.5654 73.1524 38.968 72.2484C18.4354 86.8555 7.17726 92.9018 9.5892 109.558C9.5892 109.558 9.66972 110.781 10.1126 113.244C10.7933 117.003 12.799 123.393 17.9633 127.039C22.7213 130.384 23.0324 130.629 29.463 134.099C35.8936 137.568 44.5568 140.097 52.9968 139.83C62.5128 139.523 70.832 135.896 71.0918 133.693C71.2084 132.707 71.3856 131.729 71.6225 130.764C72.2447 128.264 73.1896 125.855 74.4334 123.598C76.333 120.14 78.8693 117.109 81.6985 115.147C82.0645 114.887 82.4305 114.65 82.8221 114.415C88.9343 110.887 93.9705 113.727 94.6183 120.736C94.6659 121.245 94.6879 121.772 94.6879 122.321V98.6809Z" fill="#FF7B23"/>
<path d="M38.4849 135.171C32.563 133.707 28.2625 131.365 24.0608 128.887C19.8592 126.409 17.1251 124.096 15.5623 122.131C14.0983 120.271 13.1833 117.863 14.0983 118.2C15.6502 119.536 19.0027 122.376 21.1402 123.668C27.5378 127.547 34.3162 132.353 44.7728 132.532C45.4463 132.505 46.1207 132.556 46.7821 132.686C49.3478 133.447 42.5109 136.174 38.4849 135.171Z" fill="#455A64"/>
<path d="M60.024 130.417C59.4421 130.336 57.989 130.724 55.5222 131.434C53.0554 132.144 52.4551 132.21 51.5401 132.84C50.7679 133.374 48.7 135.058 47.7008 135.574C46.1197 136.39 47.7008 136.979 52.1294 136.983C56.558 136.986 58.0513 135.662 59.0834 134.304C60.1155 132.946 61.3416 130.6 60.024 130.417Z" fill="#455A64"/>
<path d="M9.70266 110.62C9.78318 111.231 9.90762 112.084 10.1126 113.237C10.4586 115.104 10.9946 116.932 11.712 118.69C11.9231 118.939 12.2098 119.111 12.5282 119.181C13.2821 119.129 12.638 117.826 12.0963 115.887C11.5546 113.947 10.1968 112.062 9.70266 110.62Z" fill="#455A64"/>
<path opacity="0.85" d="M21.8831 105.251C27.75 109.491 34.0411 113.11 40.6553 116.051C41.6325 116.494 42.1193 117.669 41.4934 118.533C40.5406 119.816 39.3301 120.885 37.9396 121.673C36.9953 122.185 35.2934 122.039 34.2796 121.644C28.6432 119.501 23.9437 116.817 20.1812 113.592C19.3651 112.893 18.4135 111.469 18.3805 110.397C18.3182 108.724 18.5562 107.055 19.0832 105.467C19.4858 104.464 21.0194 104.614 21.8831 105.251Z" fill="white"/>
<path d="M36.3401 120.831C35.7833 120.831 35.2304 120.739 34.7041 120.557C29.2141 118.471 24.5879 115.828 20.9498 112.706C20.2508 112.106 19.5737 110.964 19.5554 110.356C19.5005 108.856 19.7073 107.357 20.1666 105.928C20.3496 105.562 20.9645 106.019 21.1914 106.188C27.1257 110.477 33.4877 114.14 40.1758 117.12C40.2747 117.164 40.3633 117.227 40.4358 117.308C40.5084 117.388 40.5632 117.482 40.5967 117.585C40.6119 117.63 40.6155 117.678 40.6072 117.725C40.5989 117.771 40.5789 117.815 40.5491 117.852C39.6983 118.996 38.6189 119.951 37.3796 120.656C37.0508 120.792 36.6954 120.852 36.3401 120.831Z" fill="#FF7B23"/>
<path opacity="0.35" d="M36.3401 120.831C35.7833 120.831 35.2304 120.739 34.7041 120.557C29.2141 118.471 24.5879 115.828 20.9498 112.706C20.2508 112.106 19.5737 110.964 19.5554 110.356C19.5005 108.856 19.7073 107.357 20.1666 105.928C20.3496 105.562 20.9645 106.019 21.1914 106.188C27.1257 110.477 33.4877 114.14 40.1758 117.12C40.2747 117.164 40.3633 117.227 40.4358 117.308C40.5084 117.388 40.5632 117.482 40.5967 117.585C40.6119 117.63 40.6155 117.678 40.6072 117.725C40.5989 117.771 40.5789 117.815 40.5491 117.852C39.6983 118.996 38.6189 119.951 37.3796 120.656C37.0508 120.792 36.6954 120.852 36.3401 120.831Z" fill="black"/>
<path d="M27.2853 117.662L26.1507 117.391C26.7633 115.031 27.6683 112.756 28.8445 110.62L29.8546 111.198C28.7398 113.241 27.8771 115.411 27.2853 117.662Z" fill="#FF7B23"/>
<path opacity="0.85" d="M27.2853 117.662L26.1507 117.391C26.7633 115.031 27.6683 112.756 28.8445 110.62L29.8546 111.198C28.7398 113.241 27.8771 115.411 27.2853 117.662Z" fill="white"/>
<path d="M40.9334 118.086C36.7295 116.349 32.6521 114.32 28.731 112.014C24.2329 109.258 19.775 106.049 19.7311 106.019L19.8445 105.862C19.8884 105.891 24.339 109.094 28.8335 111.85C32.739 114.15 36.8019 116.171 40.992 117.9L40.9334 118.086Z" fill="#FF7B23"/>
<path d="M40.3515 118.632C36.2097 116.932 32.1942 114.94 28.3357 112.669C23.8376 109.91 19.6908 106.89 19.6505 106.872L19.764 106.715C19.8043 106.748 23.9437 109.763 28.4382 112.519C32.2838 114.783 36.2858 116.769 40.4137 118.463L40.3515 118.632Z" fill="#FF7B23"/>
<path d="M39.7696 119.181C35.6884 117.521 31.7347 115.564 27.9404 113.325C23.4423 110.565 19.603 107.728 19.5664 107.699L19.6835 107.542C19.7201 107.571 23.5484 110.404 28.0429 113.16C31.824 115.391 35.7643 117.341 39.8318 118.994L39.7696 119.181Z" fill="#FF7B23"/>
<path d="M39.1913 119.726C35.1674 118.113 31.2738 116.191 27.5452 113.98C23.047 111.22 19.5188 108.567 19.4932 108.537L19.6103 108.384C19.6432 108.409 23.1641 111.059 27.6623 113.811C31.3774 116.018 35.2576 117.934 39.2681 119.543L39.1913 119.726Z" fill="#FF7B23"/>
<path d="M38.6093 120.271C34.647 118.696 30.8152 116.81 27.1499 114.631C22.6481 111.875 19.4346 109.405 19.398 109.379L19.5188 109.225C19.5481 109.247 22.7579 111.714 27.2487 114.466C30.9011 116.638 34.7194 118.518 38.6679 120.088L38.6093 120.271Z" fill="#FF7B23"/>
<path d="M38.0274 120.82C34.1273 119.283 30.3575 117.433 26.7546 115.29C24.187 113.736 21.7056 112.044 19.3211 110.221L19.4419 110.071C21.8218 111.887 24.297 113.574 26.8571 115.125C30.447 117.263 34.2033 119.107 38.0896 120.641L38.0274 120.82Z" fill="#FF7B23"/>
<path d="M37.4491 121.366C33.6063 119.868 29.8945 118.054 26.352 115.941C23.8837 114.456 21.5055 112.825 19.2296 111.059L19.3541 110.909C21.6225 112.671 23.9935 114.296 26.4545 115.777C29.9825 117.88 33.6783 119.688 37.504 121.183L37.4491 121.366Z" fill="#FF7B23"/>
<g opacity="0.85">
<path d="M40.9334 118.086C36.7295 116.349 32.6521 114.32 28.731 112.014C24.2329 109.258 19.775 106.049 19.7311 106.019L19.8445 105.862C19.8884 105.891 24.339 109.094 28.8335 111.85C32.739 114.15 36.8019 116.171 40.992 117.9L40.9334 118.086Z" fill="white"/>
<path d="M40.3515 118.632C36.2097 116.932 32.1942 114.94 28.3357 112.669C23.8376 109.91 19.6908 106.89 19.6505 106.872L19.764 106.715C19.8043 106.748 23.9437 109.763 28.4382 112.519C32.2838 114.783 36.2858 116.769 40.4137 118.463L40.3515 118.632Z" fill="white"/>
<path d="M39.7696 119.181C35.6884 117.521 31.7347 115.564 27.9404 113.325C23.4423 110.565 19.603 107.728 19.5664 107.699L19.6835 107.542C19.7201 107.571 23.5484 110.404 28.0429 113.16C31.824 115.391 35.7643 117.341 39.8318 118.994L39.7696 119.181Z" fill="white"/>
<path d="M39.1913 119.726C35.1674 118.113 31.2738 116.192 27.5452 113.98C23.047 111.22 19.5188 108.567 19.4932 108.537L19.6103 108.384C19.6432 108.409 23.1641 111.059 27.6623 113.811C31.3774 116.018 35.2576 117.934 39.2681 119.543L39.1913 119.726Z" fill="white"/>
<path d="M38.6093 120.271C34.647 118.696 30.8152 116.81 27.1499 114.631C22.6481 111.875 19.4346 109.405 19.398 109.379L19.5188 109.225C19.5481 109.247 22.7579 111.714 27.2487 114.467C30.9011 116.638 34.7194 118.518 38.6679 120.088L38.6093 120.271Z" fill="white"/>
<path d="M38.0274 120.82C34.1273 119.283 30.3575 117.433 26.7546 115.29C24.187 113.736 21.7056 112.044 19.3211 110.221L19.4419 110.071C21.8218 111.887 24.297 113.574 26.8571 115.125C30.447 117.263 34.2033 119.107 38.0896 120.641L38.0274 120.82Z" fill="white"/>
<path d="M37.4491 121.366C33.6063 119.868 29.8945 118.054 26.352 115.941C23.8837 114.456 21.5055 112.825 19.2296 111.059L19.3541 110.909C21.6225 112.671 23.9935 114.296 26.4545 115.777C29.9825 117.88 33.6783 119.688 37.504 121.183L37.4491 121.366Z" fill="white"/>
</g>
<path opacity="0.5" d="M36.8416 76.6148C35.9192 76.4135 22.0222 86.72 20.2178 88.5171C18.4135 90.3142 19.193 90.2702 20.7193 93.2751C22.5895 96.9351 20.4155 100.127 21.7367 99.8631C22.3882 99.735 25.2137 93.9119 29.3422 88.2463C33.5622 82.4561 38.43 76.9552 36.8416 76.6148Z" fill="white"/>
<path opacity="0.85" d="M59.0834 121.622C59.8703 120.685 60.4156 119.539 59.7568 118.536C59.098 117.534 57.5389 116.963 56.4372 116.644C53.013 115.672 49.3434 116.09 46.2258 117.808C45.5032 118.18 44.8594 118.688 44.3299 119.305C44.065 119.614 43.8638 119.972 43.7382 120.359C43.6125 120.746 43.5649 121.154 43.5979 121.56C44.0774 125.315 49.6442 125.805 52.5027 125.307C54.3614 124.978 56.1101 124.194 57.5938 123.027C58.1383 122.612 58.6376 122.141 59.0834 121.622Z" fill="white"/>
<path opacity="0.85" d="M14.0507 105.569C14.2698 105.674 14.5049 105.74 14.7461 105.767C15.0687 105.783 15.3911 105.732 15.6925 105.616C15.9939 105.5 16.2676 105.322 16.4956 105.093C16.9512 104.637 17.3295 104.109 17.6156 103.53C19.0466 100.928 22.4651 93.8973 17.6156 92.7444C16.0637 92.3784 14.3801 93.8424 13.5164 95.0209C12.262 96.7555 11.6735 98.8834 11.8584 101.016C11.9828 102.436 12.5501 104.852 14.0507 105.569Z" fill="white"/>
<path opacity="0.15" d="M60.778 121.395C65.1888 121.755 69.31 123.736 72.3472 126.954C68.8064 124.506 64.9022 122.63 60.778 121.395Z" fill="black"/>
<path opacity="0.15" d="M40.6663 78.1007C40.6663 78.1007 30.539 87.1519 22.692 101.796L40.6663 78.1007Z" fill="black"/>
<path opacity="0.15" d="M43.2209 113.643C43.2209 113.643 59.0834 105.445 82.3829 102.392L43.2209 113.643Z" fill="black"/>
<path opacity="0.15" d="M9.55992 107.282C10.797 110.843 15.1707 116.264 21.6599 120.074C28.1491 123.884 36.5597 129.132 46.1014 129.443C55.643 129.754 62.22 122.672 62.22 122.672C62.22 122.672 57.3083 130.508 46.116 130.754C34.9237 130.999 28.0063 126.039 21.3451 121.999C14.4094 117.797 10.3432 111.82 9.55992 107.282Z" fill="black"/>
<path opacity="0.5" d="M70.1805 124.462C72.4497 118.701 76.7502 114.177 80.3407 112.926C76.4501 113.233 71.2931 117.226 69.2911 123.906C69.2911 123.909 69.8731 124.257 70.1805 124.462Z" fill="white"/>
<path opacity="0.5" d="M68.9288 125.304C68.4219 127.658 68.3093 130.079 68.5957 132.47C68.5998 130.171 68.9819 127.889 69.7267 125.714L68.9288 125.304Z" fill="white"/>
<path opacity="0.5" d="M60.1265 116.296C62.7873 117.603 63.1021 119.36 65.1004 117.76C67.0988 116.161 81.5704 105.803 84.9962 104.336C88.8502 102.681 85.3402 102.462 76.5782 105.185C67.8161 107.908 52.6198 112.029 51.972 112.926C51.3242 113.822 54.9878 113.771 60.1265 116.296Z" fill="white"/>
<path d="M66.1545 59.0944C64.119 57.5853 62.1643 55.9702 60.2985 54.2558C59.5201 53.5458 58.7674 52.8138 58.0403 52.0598C50.998 58.057 44.5688 64.7388 38.8472 72.0068C37.7749 73.8625 42.3572 78.1776 49.1392 82.9576C63.2192 92.8798 86.7932 104.819 89.0112 100.968L100.269 76.4464C86.8115 71.553 75.2276 65.858 66.1545 59.0944ZM87.7156 100.086C87.516 100.137 87.3102 100.16 87.1043 100.152C81.6143 100.152 63.2704 91.0022 50.0468 81.6839C41.4971 75.6559 40.4137 73.2037 40.2783 72.7096C45.2223 66.4541 50.7052 60.6442 56.6641 55.3465C57.0227 55.0306 57.4857 54.8587 57.9635 54.8641C58.4414 54.8695 58.9004 55.0518 59.2517 55.3758C61.1496 57.1242 63.1385 58.771 65.2102 60.3095C73.3281 66.3814 83.5029 71.736 96.258 76.6075C96.5033 76.702 96.7266 76.8457 96.9142 77.0299C97.1018 77.214 97.2497 77.4346 97.3488 77.678C97.4479 77.9215 97.4961 78.1827 97.4904 78.4455C97.4847 78.7083 97.4253 78.9671 97.3157 79.2061L87.7156 100.086Z" fill="#37474F"/>
<path opacity="0.5" d="M87.7156 100.105C87.516 100.156 87.3102 100.178 87.1043 100.171C81.6143 100.171 63.2704 91.0205 50.0468 81.7022C41.4971 75.6742 40.4137 73.222 40.2783 72.7279C45.2223 66.4724 50.7052 60.6625 56.6641 55.3648C57.0227 55.0489 57.4857 54.877 57.9636 54.8824C58.4414 54.8878 58.9004 55.0701 59.2517 55.3941C61.1496 57.1425 63.1385 58.7893 65.2102 60.3278C73.3281 66.3814 83.5029 71.736 96.258 76.6075C96.5033 76.702 96.7266 76.8457 96.9142 77.0299C97.1018 77.214 97.2497 77.4346 97.3488 77.678C97.4479 77.9215 97.4961 78.1827 97.4904 78.4455C97.4847 78.7083 97.4253 78.9671 97.3157 79.2061L87.7156 100.105Z" fill="black"/>
<path opacity="0.2" d="M50.0468 81.7022C52.177 83.2028 54.4388 84.6997 56.7629 86.1564C61.5209 78.4118 68.5957 68.0833 71.3224 64.5038C69.1728 63.1545 67.1403 61.7662 65.2249 60.3388C63.9988 59.4238 62.8312 58.5088 61.7186 57.5608C54.6694 64.1122 48.1766 73.943 45.4975 78.2874C46.7089 79.2719 48.2022 80.4029 50.0468 81.7022Z" fill="white"/>
<path opacity="0.2" d="M75.6632 67.0878C74.7994 66.5998 73.9515 66.1118 73.1195 65.6238C67.8909 72.5818 63.057 79.8278 58.6405 87.3276C59.5775 87.8986 60.5181 88.4598 61.4624 89.0112C64.5478 83.9421 69.906 75.396 75.6632 67.0878Z" fill="white"/>
<path opacity="0.3" d="M73.4599 94.794C80.154 97.9746 87.108 100.171 87.668 98.6736C88.228 97.1767 93.1067 87.4301 94.5012 83.5651C95.8957 79.7002 96.2214 79.2756 95.3064 78.1008C94.3914 76.9259 89.326 75.0483 81.1056 71.1724C72.8852 67.2964 65.2249 60.3388 65.2249 60.3388C73.3281 66.3814 83.5029 71.736 96.258 76.6075C96.5033 76.702 96.7266 76.8458 96.9142 77.0299C97.1018 77.214 97.2497 77.4346 97.3488 77.678C97.4479 77.9215 97.4961 78.1827 97.4904 78.4455C97.4847 78.7083 97.4253 78.9671 97.3157 79.2061L87.7265 100.105C87.527 100.156 87.3212 100.178 87.1153 100.171C81.6253 100.171 63.2814 91.0206 50.0578 81.7022C52.7626 83.6859 66.7877 91.5805 73.4599 94.794Z" fill="white"/>
<path d="M100.313 98.9664C99.552 102.586 95.5553 103.358 92.5431 103.26C90.951 103.216 89.6444 102.923 89.2491 102.692C88.0925 102.022 88.6269 100.635 89.2491 99.8302C90.3032 98.4686 95.0209 95.7346 97.9819 95.6431C99.7057 95.5846 100.844 96.4264 100.313 98.9664Z" fill="#FF7B23"/>
<path opacity="0.3" d="M100.313 98.9664C99.552 102.586 95.5553 103.358 92.5431 103.26C90.951 103.216 89.6444 102.923 89.2491 102.692C88.0925 102.022 88.6269 100.635 89.2491 99.8302C90.3032 98.4686 95.0209 95.7346 97.9819 95.6431C99.7057 95.5846 100.844 96.4264 100.313 98.9664Z" fill="black"/>
<path d="M100.313 98.9664C99.552 102.586 95.5553 103.358 92.5431 103.26C90.951 103.216 89.6444 102.923 89.2491 102.692C88.0925 102.022 88.6269 100.635 89.2491 99.8302C88.6672 100.928 91.7562 101.62 94.5122 100.632C97.2682 99.6435 99.3214 97.5097 97.9819 95.6431C99.7057 95.5846 100.844 96.4264 100.313 98.9664Z" fill="#FF7B23"/>
<path opacity="0.35" d="M100.313 98.9664C99.552 102.586 95.5553 103.358 92.5431 103.26C90.951 103.216 89.6444 102.923 89.2491 102.692C88.0925 102.022 88.6269 100.635 89.2491 99.8302C88.6672 100.928 91.7562 101.62 94.5122 100.632C97.2682 99.6435 99.3214 97.5097 97.9819 95.6431C99.7057 95.5846 100.844 96.4264 100.313 98.9664Z" fill="black"/>
<path d="M100.313 98.9664C99.552 102.586 95.5553 103.358 92.5431 103.26C95.5297 103.175 97.9123 101.452 98.8127 99.574C99.713 97.6964 99.0286 95.881 97.9709 95.6431C99.7057 95.5846 100.844 96.4264 100.313 98.9664Z" fill="#37474F"/>
<path d="M134.904 65.5726C133.978 65.6084 133.081 65.9013 132.312 66.4185C131.544 66.9356 130.934 67.6566 130.552 68.5006C129.707 70.5904 128.298 78.7046 127.811 79.7697C127.811 79.7697 127.108 80.714 126.248 81.6363C125.703 82.2256 122.588 85.483 121.377 86.6322C121.08 86.914 120.18 87.2837 119.843 87.5069C119.469 87.7674 119.179 88.1311 119.009 88.5537C118.895 88.8312 118.804 89.1177 118.738 89.4101C118.707 89.5406 118.684 89.6725 118.668 89.8054C118.666 89.9189 118.634 90.0298 118.577 90.1275L116.381 91.3975C116.646 91.4734 116.921 91.5152 117.197 91.522C118.012 91.496 118.824 91.4116 119.627 91.2694C120.342 91.1708 121.006 90.8434 121.519 90.3361C122.146 89.6822 122.825 89.0811 123.551 88.5391C124.649 87.7375 126.479 86.2589 127.211 85.6696C128.21 84.8827 131.372 82.522 131.939 81.2337C132.507 79.9454 133.821 72.9841 133.821 72.9841L134.904 65.5726Z" fill="#FFA8A7"/>
<path d="M135.259 127.522C135.46 128.129 134.999 131.778 134.999 131.778C134.44 132.227 133.835 132.615 133.195 132.939L132.693 129.198L135.259 127.522Z" fill="#FF7B23"/>
<path d="M133.195 132.939L130.585 131.401L130.226 128.902L132.898 130.647L133.195 132.939Z" fill="black"/>
<path d="M133.649 124.927C134.11 124.898 134.069 125.22 134.472 125.9C134.787 126.384 135.046 126.902 135.244 127.445C135.42 128.096 134.3 129.238 133.597 129.842C132.895 130.446 132.613 131.101 132.28 132.17C131.873 133.462 131.855 134.326 129.904 134.973C128.338 135.49 125.703 134.838 125.304 134.124C124.623 132.909 127.287 132.379 128.232 130.633C129.487 128.349 129.645 127.602 129.956 125.875C129.969 125.783 130.012 125.697 130.078 125.631C130.144 125.566 130.229 125.523 130.322 125.509L133.649 124.927Z" fill="#37474F"/>
<path d="M133.894 123.229L133.744 125.553C133.744 125.553 133.348 126.548 131.789 126.607C130.296 126.662 130.417 125.963 130.417 125.963V122.61L133.894 123.229Z" fill="#FFA8A7"/>
<path d="M141.184 115.985L146.246 115.894C146.173 119.272 145.635 126.958 145.547 130.128C145.529 130.724 145.547 134.765 145.339 135.984C144.998 137.814 142.81 137.576 142.692 136.474C142.575 135.372 142.835 130.655 142.828 130.168C142.846 128.133 141.895 120.765 141.393 117.116C141.371 116.948 141.21 116.161 141.184 115.985Z" fill="#FFA8A7"/>
<path d="M142.821 129.817C142.455 129.853 142.411 130.065 142.385 131.423C142.389 132.875 142.282 134.325 142.067 135.76C141.796 137.287 141.507 138.912 142.74 140.288C143.472 141.097 144.658 141.302 145.522 140.017C146.323 138.827 146.836 137.697 146.47 136.328C146.132 135.156 145.944 133.946 145.91 132.726C145.869 130.827 145.99 129.798 145.544 129.798V130.084C145.401 130.333 144.969 130.655 144.193 130.677C143.337 130.699 142.945 130.38 142.824 130.113L142.821 129.817Z" fill="#37474F"/>
<path d="M142.623 79.5172C144.112 81.4688 145.194 83.6989 145.807 86.0759C147.245 91.866 144.987 104.31 144.987 104.31C145.06 105.152 146.019 106.806 146.378 110.532C146.803 114.924 145.598 128.689 145.598 128.689C145.598 128.689 144.442 129.553 142.762 128.748C142.762 128.748 139.699 109.467 139.15 105.115C138.67 101.32 137.931 95.3211 137.931 95.3211L136.185 105.141C136.185 105.141 136.492 107.267 136.65 108.889C136.899 111.451 133.989 124.261 133.989 124.261C133.989 124.261 131.906 124.861 130.252 124.187V104.991C130.252 101.056 130.377 93.9303 130.757 88.023C130.962 85.2854 131.323 82.5616 131.837 79.8649L142.623 79.5172Z" fill="#40A2FF"/>
<path opacity="0.5" d="M142.623 79.5172C144.112 81.4688 145.194 83.6989 145.807 86.0759C147.245 91.866 144.987 104.31 144.987 104.31C145.06 105.152 146.019 106.806 146.378 110.532C146.803 114.924 145.598 128.689 145.598 128.689C145.598 128.689 144.442 129.553 142.762 128.748C142.762 128.748 139.699 109.467 139.15 105.115C138.67 101.32 137.931 95.3211 137.931 95.3211L136.185 105.141C136.185 105.141 136.492 107.267 136.65 108.889C136.899 111.451 133.989 124.261 133.989 124.261C133.989 124.261 131.906 124.861 130.252 124.187V104.991C130.252 101.056 130.377 93.9303 130.757 88.023C130.962 85.2854 131.323 82.5616 131.837 79.8649L142.623 79.5172Z" fill="black"/>
<path opacity="0.15" d="M137.931 95.2881L137.173 89.7981C135.67 89.707 134.215 89.2374 132.942 88.4329C133.821 89.5283 135.092 90.2385 136.485 90.413L137.217 94.9294L136.595 102.82L137.931 95.2881Z" fill="black"/>
<path d="M131.306 74.664L131.83 78.1666C131.548 80.2711 131.006 83.8579 131.006 83.8579C135.054 87.0568 143.71 85.4244 144.914 83.2211C144.032 81.1056 142.114 77.431 142.114 77.431L143.772 72.6107C143.772 72.6107 141.481 69.4009 143.593 66.085L140.248 65.88L136.361 65.6055H134.897C133.433 66.9926 131.808 68.3542 131.141 69.4229C130.519 70.3964 129.392 72.3911 131.306 74.664Z" fill="#37474F"/>
<path d="M138.487 64.6942H130.863V57.3156C130.863 55.5868 131.55 53.9288 132.772 52.7064C133.995 51.4839 135.653 50.7971 137.382 50.7971C139.111 50.7971 140.769 51.4839 141.991 52.7064C143.213 53.9288 143.9 55.5868 143.9 57.3156V59.292C143.897 60.7258 143.326 62.0998 142.311 63.1126C141.296 64.1254 139.921 64.6942 138.487 64.6942Z" fill="#FF7B23"/>
<path d="M142.165 58.2636C142.028 58.0969 141.851 57.9673 141.65 57.8864C141.45 57.8054 141.232 57.7758 141.017 57.8002C140.803 57.8245 140.597 57.9021 140.42 58.0258C140.243 58.1495 140.099 58.3155 140.002 58.5088C140.002 58.5088 139.223 58.8748 137.107 58.0366C135.369 57.3486 133.59 55.4088 133.122 54.2595C132.43 55.2477 131.782 57.2314 131.983 59.8923C132.236 63.2558 133.315 63.7536 133.857 63.9805C134.399 64.2074 135.321 64.0427 136.32 63.856L136.375 65.7446C136.375 65.7446 134.249 68.2554 135.16 70.0341C138.52 69.0423 140.255 65.8617 140.255 65.8617L140.295 61.0195C140.295 61.0195 140.848 61.7186 141.862 60.9354C142.249 60.6166 142.498 60.1596 142.554 59.661C142.611 59.1623 142.472 58.6612 142.165 58.2636Z" fill="#FFA8A7"/>
<path d="M136.039 58.721C136.031 58.8155 136.052 58.91 136.098 58.9928C136.144 59.0756 136.213 59.143 136.297 59.1867C136.381 59.2304 136.476 59.2484 136.571 59.2385C136.665 59.2286 136.754 59.1912 136.827 59.131C136.9 59.0708 136.954 58.9904 136.982 58.8999C137.01 58.8093 137.01 58.7126 136.984 58.6217C136.957 58.5309 136.904 58.4498 136.832 58.3888C136.759 58.3277 136.671 58.2892 136.577 58.2782C136.447 58.2669 136.318 58.307 136.217 58.3898C136.117 58.4726 136.052 58.5915 136.039 58.721Z" fill="#FF7B23"/>
<path d="M136.957 57.1839L137.85 57.8244C137.934 57.7014 137.966 57.551 137.942 57.4045C137.917 57.258 137.837 57.1266 137.718 57.0375C137.66 56.9952 137.593 56.9654 137.522 56.9499C137.451 56.9344 137.378 56.9334 137.306 56.9471C137.235 56.9608 137.167 56.9889 137.107 57.0296C137.047 57.0703 136.996 57.1228 136.957 57.1839Z" fill="#FF7B23"/>
<path d="M136.518 61.7186L135.449 61.9821C135.463 62.0533 135.492 62.1208 135.533 62.1807C135.574 62.2405 135.627 62.2915 135.688 62.3305C135.749 62.3695 135.817 62.3957 135.889 62.4075C135.961 62.4193 136.034 62.4166 136.104 62.3994C136.248 62.3613 136.371 62.2692 136.448 62.1423C136.525 62.0154 136.55 61.8635 136.518 61.7186Z" fill="#F28F8F"/>
<path d="M132.269 57.5206L133.297 57.096C133.274 57.0277 133.236 56.9649 133.188 56.9114C133.139 56.8579 133.08 56.8148 133.015 56.7846C132.949 56.7545 132.878 56.7381 132.806 56.7362C132.733 56.7344 132.662 56.7472 132.594 56.7739C132.454 56.8318 132.341 56.942 132.281 57.0813C132.22 57.2207 132.216 57.3782 132.269 57.5206Z" fill="#FF7B23"/>
<path d="M132.558 58.56C132.551 58.6478 132.571 58.7356 132.614 58.8125C132.657 58.8894 132.721 58.952 132.799 58.9926C132.877 59.0332 132.966 59.05 133.053 59.0409C133.141 59.0318 133.224 58.9972 133.292 58.9414C133.36 58.8856 133.41 58.8111 133.437 58.727C133.463 58.6429 133.464 58.553 133.439 58.4684C133.415 58.3838 133.366 58.3082 133.299 58.251C133.233 58.1938 133.15 58.1574 133.063 58.1464C133.003 58.1404 132.942 58.1462 132.884 58.1638C132.826 58.1813 132.772 58.21 132.725 58.2485C132.678 58.2869 132.639 58.3342 132.61 58.3876C132.582 58.4411 132.564 58.4997 132.558 58.56Z" fill="#FF7B23"/>
<path d="M134.853 58.355L134.783 60.8951L133.286 60.551L134.853 58.355Z" fill="#F28F8F"/>
<path d="M136.32 63.856C137.378 63.6987 139.248 62.8678 139.563 61.9968C139.519 62.5237 139.279 63.0149 138.89 63.3729C138.249 63.9439 136.328 64.5185 136.328 64.5185L136.32 63.856Z" fill="#F28F8F"/>
<path d="M147.959 87.4118C148.647 84.5716 149.489 80.6774 149.335 80.0149C149.105 79.0304 148.095 74.0711 147.198 71.1431C146.301 68.2151 145.419 66.279 143.6 66.0667C140.592 67.8015 142.663 72.6547 142.663 72.6547L145.613 80.1138L144.804 87.7668C144.72 88.1109 144.193 88.3231 143.9 88.5244C143.288 88.9045 142.74 89.3789 142.275 89.9299C141.825 90.4459 141.426 90.5887 141.496 90.7424C141.595 90.9119 141.754 91.0378 141.942 91.0948C142.13 91.1518 142.333 91.1357 142.509 91.0498C142.901 90.8707 143.269 90.6459 143.607 90.3801C143.342 91.098 142.972 91.7727 142.509 92.3821C141.444 93.8131 140.961 94.8489 143.241 94.7684C144.669 94.7172 146.243 93.4764 147.176 90.2886C147.238 90.0982 147.337 89.7505 147.458 89.2967C147.644 88.7148 147.816 88.0486 147.959 87.4118Z" fill="#FFA8A7"/>
</svg>
