<svg xmlns="http://www.w3.org/2000/svg" xmlns:xlink="http://www.w3.org/1999/xlink" width="470.02" height="326.92" viewBox="0 0 470.02 326.92">
  <defs>
    <clipPath id="clip-path">
      <rect width="381.07" height="282.205" fill="none"/>
    </clipPath>
  </defs>
  <g id="Pick_up_truck-amico" data-name="Pick up truck-amico" transform="translate(-14.52 -156.15)">
    <g id="freepik--Floor--inject-10">
      <g id="freepik--floor--inject-10-2" data-name="freepik--floor--inject-10">
        <ellipse id="freepik--floor--inject-10-3" data-name="freepik--floor--inject-10" cx="235.01" cy="135.68" rx="235.01" ry="135.68" transform="translate(14.52 211.71)" fill="#f0f0f0"/>
        <path id="Tracé_155" data-name="Tracé 155" d="M309.54,478.59c38.9-5.91,75.68-17.65,106.17-35.26C455,420.68,477.4,392,483.08,362.45L223.45,212.56c-51.18,3.28-100.85,16.24-140.1,38.89-30.48,17.61-50.83,38.84-61.06,61.29Z" fill="#fafafa"/>
      </g>
    </g>
    <g id="freepik--Shadow--inject-10">
      <path id="freepik--shadow--inject-10-2" data-name="freepik--shadow--inject-10" d="M160.82,229.09,67.57,282.7c-13.16,7.56-11.59,20.75,3.5,29.46L292,439.75c75.48,43.69,201.45-47,141.12-80.87l-227.93-132C190.06,218.15,174,221.52,160.82,229.09Z" fill="#e0e0e0"/>
    </g>
    <g id="freepik--pick-up-truck--inject-10" transform="translate(63.38 156.15)" clip-path="url(#clip-path)">
      <g id="freepik--pick-up-truck--inject-10-2" data-name="freepik--pick-up-truck--inject-10" transform="translate(-63.38 -156.15)">
        <g id="freepik--Vehicle--inject-10">
          <path id="Tracé_156" data-name="Tracé 156" d="M80.47,280.39l90.58-52.3h0c3.32-17.72,2.38-42.32-1.26-66.27L80.5,213.38Z" fill="#37474f"/>
          <path id="Tracé_157" data-name="Tracé 157" d="M180.98,343.95l96.72-54.39L171.04,228.09l-90.57,52.3Z" fill="#455a64"/>
          <path id="Tracé_158" data-name="Tracé 158" d="M159.22,245.91l85.94,49.61a9.18,9.18,0,0,0,8.26-.11l6.46-3.74c2.33-1.34,2.42-3.47.19-4.76L174.13,237.3a9.09,9.09,0,0,0-8.25.11l-6.47,3.73C157.08,242.49,157,244.62,159.22,245.91Z" fill="#263238"/>
          <path id="Tracé_159" data-name="Tracé 159" d="M138.15,258.07l85.94,49.61a9.09,9.09,0,0,0,8.25-.11l6.47-3.73c2.33-1.34,2.41-3.48.18-4.76l-85.93-49.61a9.11,9.11,0,0,0-8.26.11l-6.46,3.73C136,254.65,135.92,256.79,138.15,258.07Z" fill="#263238"/>
          <path id="Tracé_160" data-name="Tracé 160" d="M117.07,270.24,203,319.85a9.11,9.11,0,0,0,8.26-.11l6.46-3.73c2.33-1.35,2.42-3.48.19-4.77L132,261.63a9.16,9.16,0,0,0-8.25.11l-6.47,3.74C114.93,266.82,114.85,269,117.07,270.24Z" fill="#263238"/>
          <path id="Tracé_161" data-name="Tracé 161" d="M96,282.41,181.94,332a9.16,9.16,0,0,0,8.25-.11l6.47-3.73c2.33-1.35,2.41-3.48.19-4.77L110.91,273.8a9.12,9.12,0,0,0-8.26.11l-6.46,3.73C93.86,279,93.77,281.12,96,282.41Z" fill="#263238"/>
          <path id="Tracé_162" data-name="Tracé 162" d="M276.45,223.28,169.78,161.83c3.64,23.95,4.58,48.55,1.26,66.27L277.7,289.56C281,271.84,280.09,247.23,276.45,223.28Z" fill="#263238"/>
          <path id="Tracé_163" data-name="Tracé 163" d="M206,222.93a16.48,16.48,0,0,0-8.15-2.47,10,10,0,0,0-5.06,1.31l-10.94,6.33,4.59,9.14A43.3,43.3,0,0,0,189.77,252l24.38,14.07h0l11.38-6.57v-.65C225.55,245.27,216.79,229.17,206,222.93Z" fill="#455a64"/>
          <path id="Tracé_164" data-name="Tracé 164" d="M214.17,265.45v.65h0L189.77,252,175,243.53v-.67c0-7.48,2.64-12.65,6.81-14.76,3.43-1.74,7.88-1.41,12.76,1.41a31.59,31.59,0,0,1,7.4,6.09.064.064,0,0,1,.06.06C209.16,243.46,214.17,255.17,214.17,265.45Z" fill="#37474f"/>
          <path id="Tracé_165" data-name="Tracé 165" d="M117.35,265.78h0L103.86,258l-14.24,8.25-.05,20.12h0v4.81l1.9-1.11,2-1.14,6.41-3.7,3-1.74,4-2.29,2.61-1.51,3.33-3.12.6-.56,2.61-2.44.91-.86,4.75-4.44Z" fill="#263238"/>
          <path id="Tracé_166" data-name="Tracé 166" d="M102.81,286.52l-4.6-9.14,11-6.33h0c3.48-2,8.11-1.78,13.2,1.16,10.81,6.24,19.57,22.34,19.57,36,0,7.13-2.4,12.16-6.25,14.44h0l-.16.09h0l-11.22,6.48-4.85-9.64C110.26,312.52,103.17,298.66,102.81,286.52Z" fill="#37474f"/>
          <path id="Tracé_167" data-name="Tracé 167" d="M102.81,286.52l-4.6-9.14,11-6.33h0c3.48-2,8.11-1.78,13.2,1.16,10.81,6.24,19.57,22.34,19.57,36,0,7.13-2.4,12.16-6.25,14.44h0l-.16.09h0l-11.22,6.48-4.85-9.64C110.26,312.52,103.17,298.66,102.81,286.52Z" fill="#263238"/>
          <path id="Tracé_168" data-name="Tracé 168" d="M91.41,292.13c0,11.74,6.51,25.33,15.24,32.84h0a29.51,29.51,0,0,0,4.29,3.07c10.81,6.25,19.58.27,19.57-13.35,0-10.28-5-22-12.1-29.79a.12.12,0,0,1-.06-.06,31.63,31.63,0,0,0-7.41-6.09C100.16,272.55,91.41,278.52,91.41,292.13Z" fill="#37474f"/>
          <path id="Tracé_169" data-name="Tracé 169" d="M91.41,292.13c0,11.74,6.51,25.33,15.24,32.84a55.56,55.56,0,0,1-12.42-24c-1.65-7.85-1-19.12,5.71-22s15.62,3.15,18.44,5.88a31.63,31.63,0,0,0-7.41-6.09C100.16,272.55,91.41,278.52,91.41,292.13Z" fill="#455a64"/>
          <path id="Tracé_170" data-name="Tracé 170" d="M111,286.83c-6.87-4-12.45.25-12.45,9.42S104.1,316.07,111,320s12.46-.24,12.46-9.41S117.85,290.8,111,286.83Zm0,30.35c-5.69-3.29-10.3-12.1-10.3-19.69s4.61-11.08,10.3-7.79,10.31,12.1,10.31,19.69S116.66,320.46,111,317.18Z" fill="#f5f5f5"/>
          <path id="Tracé_171" data-name="Tracé 171" d="M121.28,309.39a11.27,11.27,0,0,1-1.82,6.73c-1.85,2.53-5,3.09-8.48,1.06-5.7-3.29-10.31-12.1-10.31-19.69,0-5.3,2.25-8.6,5.55-9A7.75,7.75,0,0,1,111,289.7C116.67,293,121.28,301.8,121.28,309.39Z" fill="#e0e0e0"/>
          <path id="Tracé_172" data-name="Tracé 172" d="M121.28,309.39a11.27,11.27,0,0,1-1.82,6.73c-1.85,2.53-5,3.09-8.48,1.06-5.7-3.29-10.31-12.1-10.31-19.69,0-5.3,2.25-8.6,5.55-9A7.75,7.75,0,0,1,111,289.7C116.67,293,121.28,301.8,121.28,309.39Z" opacity="0.4"/>
          <path id="Tracé_173" data-name="Tracé 173" d="M121.28,309.39a11.27,11.27,0,0,1-1.82,6.73,7.73,7.73,0,0,1-4.77-1.19c-5.69-3.28-10.3-12.09-10.3-19.68a11.28,11.28,0,0,1,1.83-6.74A7.75,7.75,0,0,1,111,289.7C116.67,293,121.28,301.8,121.28,309.39Z" fill="#263238"/>
          <path id="Tracé_174" data-name="Tracé 174" d="M109.58,298.69l-1.86,5.41-4.42-9.7a8.3,8.3,0,0,1,.94-3.29Z" fill="#e0e0e0"/>
          <path id="Tracé_175" data-name="Tracé 175" d="M107.74,303l3.33,4.7-3.29,3.78a6.46,6.46,0,0,1-1.87-2.55Z" fill="#e0e0e0"/>
          <path id="Tracé_176" data-name="Tracé 176" d="M114.78,306.78l-.94.4-.23-1.08-3.67,1,7.52,10.71a5.69,5.69,0,0,0,2-1.71,5.4,5.4,0,0,0,.33-.5Z" fill="#e0e0e0"/>
          <path id="Tracé_177" data-name="Tracé 177" d="M120.89,305.42l-6.11,1.36h0l-.57-.92-.6.24-1-4.7.74.43v-1.22h6.17a26.571,26.571,0,0,1,1.37,4.81Z" fill="#e0e0e0"/>
          <path id="Tracé_178" data-name="Tracé 178" d="M113.3,300.61l-.93-.3.24,1.09-4-2.32,3.52-8.64a17.3,17.3,0,0,1,3,2.79Z" fill="#e0e0e0"/>
          <path id="Tracé_179" data-name="Tracé 179" d="M114.87,305.69c0,2.87-1.74,4.19-3.9,2.94s-3.89-4.57-3.89-7.44,1.74-4.19,3.89-2.95S114.87,302.82,114.87,305.69Z" fill="#f5f5f5"/>
          <path id="Tracé_180" data-name="Tracé 180" d="M181,344l-45.09-26,.05-.43A55.75,55.75,0,0,0,129,293.59c-5.17-9.2-12.87-18.24-23.29-20.56h0c-9.43-1.94-15.41,5.82-16,15-.08.66-.11,1.87-.13,3.12L69.33,279.48c-3.28-17.7-2.34-42.23,1.3-66.09l111.61,64.28C178.59,301.62,177.66,326.24,181,344Z" fill="#407bff"/>
          <path id="Tracé_181" data-name="Tracé 181" d="M181,344l-45.09-26,.05-.43A55.75,55.75,0,0,0,129,293.59c-5.17-9.2-12.87-18.24-23.29-20.56h0c-9.43-1.94-15.41,5.82-16,15-.08.66-.11,1.87-.13,3.12L69.33,279.48c-3.28-17.7-2.34-42.23,1.3-66.09l111.61,64.28C178.59,301.62,177.66,326.24,181,344Z" opacity="0.2"/>
          <path id="Tracé_182" data-name="Tracé 182" d="M276.45,223.28l4.81-2.77L169.78,156.15l-.01.01-.01-.01L70.63,213.38l.01.01h-.01l111.61,64.28,4.93-2.84L80.5,213.38l89.28-51.55Z" fill="#407bff"/>
          <path id="Tracé_183" data-name="Tracé 183" d="M276.45,223.28l4.81-2.77L169.78,156.15l-.01.01-.01-.01L70.63,213.38l.01.01h-.01l111.61,64.28,4.93-2.84L80.5,213.38l89.28-51.55Z" fill="#fff" opacity="0.2"/>
          <path id="Tracé_184" data-name="Tracé 184" d="M169.78,161.83,165,158.91,75.53,210.56l4.97,2.82Z" fill="#455a64"/>
          <path id="Tracé_185" data-name="Tracé 185" d="M84,279.54v13.08L66.21,282.39a5.66,5.66,0,0,1-2.83-4.9V266.86Z" fill="#37474f"/>
          <path id="Tracé_186" data-name="Tracé 186" d="M84,279.54c-6.9-4-19.43-11.13-19.43-11.13-3.85-2.19,2.94-5.91,2.94-5.91l.06,1.09a3.31,3.31,0,0,0,1.66,2.7l18.85,10.92Z" fill="#455a64"/>
          <path id="Tracé_187" data-name="Tracé 187" d="M88.07,277.21v13.06l-4.08,2.35V279.55Z" fill="#263238"/>
          <path id="Tracé_188" data-name="Tracé 188" d="M67.39,248.53c3.23,2.16,6.4,3.94,8.49,5.06a4.74,4.74,0,0,1,2.49,4.16v6.44a.86.86,0,0,1-1.28.75c-2.58-1.45-8.32-4.66-9.7-5.54C65.6,258.26,65.65,247.41,67.39,248.53Z" fill="#407bff"/>
          <path id="Tracé_189" data-name="Tracé 189" d="M67.39,248.53c3.23,2.16,6.4,3.94,8.49,5.06a4.74,4.74,0,0,1,2.49,4.16v6.44a.86.86,0,0,1-1.28.75c-2.58-1.45-8.32-4.66-9.7-5.54C65.6,258.26,65.65,247.41,67.39,248.53Z" fill="#fff" opacity="0.8"/>
          <path id="Tracé_190" data-name="Tracé 190" d="M298.31,373.64h0l-13.48-7.79-14.24,8.25-.06,20.12h0V399l1.91-1.1,2-1.14,6.41-3.7,3-1.74,4-2.29,2.62-1.51,3.33-3.12.59-.56,2.62-2.44.91-.86,4.74-4.44Z" fill="#263238"/>
          <path id="Tracé_191" data-name="Tracé 191" d="M283.77,390.86l-4.59-9.14,10.94-6.33h0c3.48-2,8.11-1.78,13.2,1.16,10.81,6.24,19.57,22.34,19.57,35.95,0,7.13-2.4,12.16-6.24,14.44h0l-.15.09h0l-11.21,6.48-4.86-9.64C291.22,416.86,284.13,403,283.77,390.86Z" fill="#37474f"/>
          <path id="Tracé_192" data-name="Tracé 192" d="M283.77,390.86l-4.59-9.14,10.94-6.33h0c3.48-2,8.11-1.78,13.2,1.16,10.81,6.24,19.57,22.34,19.57,35.95,0,7.13-2.4,12.16-6.24,14.44h0l-.15.09h0l-11.21,6.48-4.86-9.64C291.22,416.86,284.13,403,283.77,390.86Z" fill="#263238"/>
          <path id="Tracé_193" data-name="Tracé 193" d="M272.37,396.48c0,11.73,6.52,25.32,15.24,32.83a29.047,29.047,0,0,0,4.3,3.07c10.81,6.25,19.57.27,19.57-13.35,0-10.28-5-22-12.11-29.79l-.06-.06a31.589,31.589,0,0,0-7.4-6.09C281.13,376.89,272.37,382.86,272.37,396.48Z" fill="#37474f"/>
          <path id="Tracé_194" data-name="Tracé 194" d="M272.37,396.48c0,11.73,6.52,25.32,15.24,32.83a55.44,55.44,0,0,1-12.41-24c-1.66-7.85-1-19.12,5.7-22s15.63,3.15,18.44,5.88a31.589,31.589,0,0,0-7.4-6.09C281.13,376.89,272.37,382.86,272.37,396.48Z" fill="#455a64"/>
          <path id="Tracé_195" data-name="Tracé 195" d="M291.94,391.17c-6.88-4-12.46.25-12.46,9.42s5.58,19.82,12.46,23.79,12.45-.24,12.45-9.41S298.81,395.14,291.94,391.17Zm0,30.35c-5.69-3.29-10.31-12.1-10.31-19.69s4.62-11.08,10.31-7.79,10.3,12.1,10.3,19.69-4.61,11.07-10.3,7.79Z" fill="#f5f5f5"/>
          <path id="Tracé_196" data-name="Tracé 196" d="M302.24,413.73a11.27,11.27,0,0,1-1.82,6.73c-1.85,2.53-4.95,3.09-8.48,1.06-5.7-3.29-10.31-12.1-10.31-19.69,0-5.3,2.26-8.6,5.55-9a7.74,7.74,0,0,1,4.76,1.19C297.63,397.32,302.24,406.14,302.24,413.73Z" fill="#e0e0e0"/>
          <path id="Tracé_197" data-name="Tracé 197" d="M302.24,413.73a11.27,11.27,0,0,1-1.82,6.73c-1.85,2.53-4.95,3.09-8.48,1.06-5.7-3.29-10.31-12.1-10.31-19.69,0-5.3,2.26-8.6,5.55-9a7.74,7.74,0,0,1,4.76,1.19C297.63,397.32,302.24,406.14,302.24,413.73Z" opacity="0.4"/>
          <path id="Tracé_198" data-name="Tracé 198" d="M302.24,413.73a11.27,11.27,0,0,1-1.82,6.73,7.68,7.68,0,0,1-4.76-1.19c-5.69-3.27-10.3-12.09-10.3-19.68a11.28,11.28,0,0,1,1.82-6.74,7.74,7.74,0,0,1,4.76,1.19C297.63,397.32,302.24,406.14,302.24,413.73Z" fill="#263238"/>
          <path id="Tracé_199" data-name="Tracé 199" d="M290.54,403l-1.86,5.41-4.42-9.69a8.34,8.34,0,0,1,.94-3.3Z" fill="#e0e0e0"/>
          <path id="Tracé_200" data-name="Tracé 200" d="M288.7,407.3,292,412l-3.3,3.78a6.43,6.43,0,0,1-1.86-2.55Z" fill="#e0e0e0"/>
          <path id="Tracé_201" data-name="Tracé 201" d="M295.74,411.12l-.94.4-.23-1.08-3.67,1,7.52,10.71a5.6,5.6,0,0,0,2-1.71c.12-.16.23-.33.34-.5Z" fill="#e0e0e0"/>
          <path id="Tracé_202" data-name="Tracé 202" d="M301.85,409.76l-6.11,1.36h0l-.57-.91-.6.23-1-4.7.74.43-.05-1.22h6.18a26.526,26.526,0,0,1,1.41,4.81Z" fill="#e0e0e0"/>
          <path id="Tracé_203" data-name="Tracé 203" d="M294.26,405l-.93-.3.24,1.09-4-2.32,3.53-8.64a17.621,17.621,0,0,1,3,2.79Z" fill="#e0e0e0"/>
          <path id="Tracé_204" data-name="Tracé 204" d="M295.83,410c0,2.87-1.74,4.19-3.89,2.94s-3.9-4.57-3.9-7.44,1.74-4.19,3.9-2.95S295.83,407.16,295.83,410Z" fill="#f5f5f5"/>
          <path id="Tracé_205" data-name="Tracé 205" d="M429.31,335.34a42.3,42.3,0,0,1-8.08,10.76c-4.6,4.58-11,9.42-19.66,14.44-50.22,29-73.05,15.8-115.81-8.9-8.42-4.86-17.67-10.56-27.08-16.57l-.78-.49-1.39-.9-2.18-1.4-2.11-1.37c-4.74-3.07-9.49-6.2-14.16-9.31l-1.23-.82a16.739,16.739,0,0,0-1.57-1c-27.69-18.53-39-28.47-42.65-31.11l-.07-.05-.22-.16,15,9.33,8.41,5.24,24.77,16h0l15.12,9.43-.91-3.33-.34-41.49a15.83,15.83,0,0,0-3.79-7,2.269,2.269,0,0,0-.31-.31,31.29,31.29,0,0,0-6.15-4.09c-7.2-4.13-30.54-17.15-52-29.35L190,241.67,259.42,195a14,14,0,0,1,14.59-.63c25.73,14.23,59.49,32.57,65,37.31.63.55,11.58,15.2,20,23.89,9.28,9.54,19,19.85,20.07,21.4,7,4.65,32.25,21.11,45.84,31.56.44.34.9.81,1.55,1.4a11.681,11.681,0,0,1,2.3,2.9C432.9,320,433.72,326.51,429.31,335.34Z" fill="#407bff"/>
          <path id="Tracé_206" data-name="Tracé 206" d="M429.31,335.34a42.3,42.3,0,0,1-8.08,10.76c-4.6,4.58-11,9.42-19.66,14.44-50.22,29-73.05,15.8-115.81-8.9-8.42-4.86-17.67-10.56-27.08-16.57l-.78-.49-1.39-.9-2.18-1.4-2.11-1.37c-4.74-3.07-9.49-6.2-14.16-9.31l-1.23-.82a16.739,16.739,0,0,0-1.57-1c-27.69-18.53-39-28.47-42.65-31.11l-.07-.05-.22-.16,15,9.33,8.41,5.24,24.77,16h0l15.12,9.43-.91-3.33-.34-41.49a15.83,15.83,0,0,0-3.79-7,2.269,2.269,0,0,0-.31-.31,31.29,31.29,0,0,0-6.15-4.09c-7.2-4.13-30.54-17.15-52-29.35L190,241.67,259.42,195a14,14,0,0,1,14.59-.63c25.73,14.23,59.49,32.57,65,37.31.63.55,11.58,15.2,20,23.89,9.28,9.54,19,19.85,20.07,21.4,7,4.65,32.25,21.11,45.84,31.56.44.34.9.81,1.55,1.4a11.681,11.681,0,0,1,2.3,2.9C432.9,320,433.72,326.51,429.31,335.34Z" fill="#fff" opacity="0.2"/>
          <path id="Tracé_207" data-name="Tracé 207" d="M410.42,336.43c-1.85-2.14-3.68-4.28-5.63-6.35a100.863,100.863,0,0,0-8.72-8.45c-4.25-3.74-8.63-7.34-13.17-10.71-2.28-1.68-4.6-3.3-6.94-4.88s-4.75-3.06-7.24-4.42c4.67,3.18,9.19,6.56,13.6,10.05s8.77,7.08,12.93,10.89,4.89,4.18,8.85,8.18,7.79,8.16,11.59,12.33C414,340.84,412.25,338.59,410.42,336.43Zm-35.15,23.83c-1-1.05-2-2.12-3-3.1-2.11-2-4.22-4-6.45-5.85a80.155,80.155,0,0,0-10.3-7.78,146.939,146.939,0,0,0-15.06-8.77c-2.59-1.31-5.23-2.53-7.89-3.69a69.441,69.441,0,0,0-8.17-3A164,164,0,0,1,340,335.6a173.087,173.087,0,0,1,14.82,9,93.994,93.994,0,0,1,10.34,7.4c4.56,3.56,8.81,7.48,13.09,11.4Z" fill="#fff" opacity="0.2"/>
          <path id="Tracé_208" data-name="Tracé 208" d="M441.41,369.24a26.947,26.947,0,0,1-.551,5.425C437.6,390.49,421.21,401.84,407.25,409.82c-6.44,3.65-13.24,7.55-19.84,11.3-4.76,2.65-9.49,5.71-14.55,7.73a57.1,57.1,0,0,1-51.64-4.53.24.24,0,0,0-.08-.06l-4.24-2.44a55.88,55.88,0,0,0-6.9-23.89c-5.18-9.2-12.88-18.24-23.3-20.56h0c-9.43-1.94-15.41,5.83-16,15-.08.69-.12,2-.13,3.27L181,344c-5.07-27-.23-70,9-102.28l-.22-.13a1.061,1.061,0,0,0,.21.11c20,11.74,37.46,21,50.44,28.48,3.75,2.17,7.9,4.18,9.87,6.2a12.53,12.53,0,0,1,3.11,4.53h0a22.449,22.449,0,0,1,1,2.77c2.71,9.44.21,41.54,1.25,44.82L240.51,319h0c-15.37-9.59-33.12-21.26-48.16-30.61l.22.16c2.58,2.06,38.1,28.63,59.68,42.33h0c1.42.94,2.85,1.86,4.27,2.77,9.88,6.35,20.24,12.76,29.25,18,42.75,24.7,65.58,37.87,115.81,8.89,9.81-5.78,15.81-10.28,21.37-16.22a46,46,0,0,0,3.73-4.6c.14-.18.27-.37.39-.56,5.33-7.64,6.55-16.66,2.55-24.24-.11-.25-.25-.5-.39-.75-.24-.45-.5-.88-.76-1.28h0c-.15-.26-.31-.49-.47-.72h0a24.661,24.661,0,0,0-3-3.61c1,.75,2,1.55,3,2.31a30.32,30.32,0,0,1,2.37,2l.74.68.51.51.17.17a32.381,32.381,0,0,1,3.53,4.47c.1.18.2.34.3.5a2.9,2.9,0,0,1,.19.29c3.55,5.78,5.25,12.59,5.61,20.22h0C441.48,340.75,441.43,367.39,441.41,369.24Z" fill="#407bff"/>
          <path id="Tracé_209" data-name="Tracé 209" d="M441.41,369.24a26.947,26.947,0,0,1-.551,5.425C437.6,390.49,421.21,401.84,407.25,409.82c-6.44,3.65-13.24,7.55-19.84,11.3-4.76,2.65-9.49,5.71-14.55,7.73a57.1,57.1,0,0,1-51.64-4.53.24.24,0,0,0-.08-.06l-4.24-2.44a55.88,55.88,0,0,0-6.9-23.89c-5.18-9.2-12.88-18.24-23.3-20.56h0c-9.43-1.94-15.41,5.83-16,15-.08.69-.12,2-.13,3.27L181,344c-5.07-27-.23-70,9-102.28l-.22-.13a1.061,1.061,0,0,0,.21.11c20,11.74,37.46,21,50.44,28.48,3.75,2.17,7.9,4.18,9.87,6.2a12.53,12.53,0,0,1,3.11,4.53h0a22.449,22.449,0,0,1,1,2.77c2.71,9.44.21,41.54,1.25,44.82L240.51,319h0c-15.37-9.59-33.12-21.26-48.16-30.61l.22.16c2.58,2.06,38.1,28.63,59.68,42.33h0c1.42.94,2.85,1.86,4.27,2.77,9.88,6.35,20.24,12.76,29.25,18,42.75,24.7,65.58,37.87,115.81,8.89,9.81-5.78,15.81-10.28,21.37-16.22a46,46,0,0,0,3.73-4.6c.14-.18.27-.37.39-.56,5.33-7.64,6.55-16.66,2.55-24.24-.11-.25-.25-.5-.39-.75-.24-.45-.5-.88-.76-1.28h0c-.15-.26-.31-.49-.47-.72h0a24.661,24.661,0,0,0-3-3.61c1,.75,2,1.55,3,2.31a30.32,30.32,0,0,1,2.37,2l.74.68.51.51.17.17a32.381,32.381,0,0,1,3.53,4.47c.1.18.2.34.3.5a2.9,2.9,0,0,1,.19.29c3.55,5.78,5.25,12.59,5.61,20.22h0C441.48,340.75,441.43,367.39,441.41,369.24Z" opacity="0.05"/>
          <g id="Groupe_208" data-name="Groupe 208" opacity="0.3">
            <path id="Tracé_210" data-name="Tracé 210" d="M181.94,279.7c-2.1,20.48-3.67,41.17-1.39,61.7C176.82,321.04,178.4,299.98,181.94,279.7Z"/>
          </g>
          <g id="Groupe_209" data-name="Groupe 209" opacity="0.3">
            <path id="Tracé_211" data-name="Tracé 211" d="M211.7,297.21c-2.1,20.47-3.67,41.16-1.4,61.69C206.58,338.54,208.16,317.48,211.7,297.21Z"/>
          </g>
          <path id="Tracé_212" data-name="Tracé 212" d="M282.32,256.29c-5.73-3.6-26.36-15.87-32.26-19.17l-8.87-4.92c-3-1.6-5.95-3.25-8.94-4.82,2.85,1.82,5.75,3.56,8.63,5.34l8.7,5.22C255.39,241.41,276.33,253.14,282.32,256.29ZM302.4,244.7c-5.73-3.61-26.35-15.87-32.27-19.18l-8.87-4.92c-3-1.6-5.93-3.24-8.93-4.81,2.86,1.82,5.76,3.56,8.63,5.34l8.7,5.22C275.47,229.81,296.41,241.54,302.4,244.7ZM267.25,265c-5.73-3.6-26.35-15.87-32.26-19.17l-8.87-4.93c-3-1.6-5.94-3.24-8.94-4.81,2.86,1.81,5.76,3.56,8.64,5.34l8.7,5.22C240.33,250.11,261.27,261.83,267.25,265Zm50.21-29c-5.72-3.6-26.35-15.88-32.26-19.19l-8.87-4.91c-3-1.6-5.94-3.25-8.94-4.82,2.86,1.82,5.75,3.56,8.64,5.34l8.7,5.22C290.53,221.11,311.48,232.85,317.46,236Z" fill="#fff" opacity="0.2"/>
          <path id="Tracé_213" data-name="Tracé 213" d="M363.45,260.45h0l.81,3.38c1.87,3.51,6,7.94,7.5,7.57,1.32-.33,2.13-2.26,2.55-4.64h0a24,24,0,0,0,.35-3.46c.13-3.75-1.55-12.51-6.76-14.84a2.7,2.7,0,0,0-3.09.7,6.07,6.07,0,0,0-1.5,2.48C362.44,254.25,363.33,260.31,363.45,260.45Z" fill="#455a64"/>
          <path id="Tracé_214" data-name="Tracé 214" d="M364.26,263.83c1.87,3.51,6,7.94,7.5,7.57,1.32-.33,2.13-2.26,2.55-4.64h0a24,24,0,0,0,.35-3.46c.13-3.75-1.55-12.51-6.76-14.84a2.7,2.7,0,0,0-3.09.7l.72,1.61c3.64,1.56,4.62,7.18,4.28,11.46S366.35,266,364.26,263.83Z" fill="#37474f"/>
          <path id="Tracé_215" data-name="Tracé 215" d="M363.32,251.62c1.31-1.4,4.58-1.47,7.33,2.31s3.66,10.28,3.67,12.79a25.362,25.362,0,0,0,.34-3.45c.13-3.76-1.54-12.51-6.75-14.84C365.74,247.46,363.94,249.69,363.32,251.62Z" fill="#263238"/>
          <path id="Tracé_216" data-name="Tracé 216" d="M272.12,348.58l7.1,4.5a1.13,1.13,0,0,1,.52.9l.16,3.52a.69.69,0,0,1-1.06.62l-7.08-4.42a1.16,1.16,0,0,1-.53-.91l-.18-3.59a.7.7,0,0,1,1.07-.62Z" fill="#407bff"/>
          <g id="Groupe_210" data-name="Groupe 210" opacity="0.2">
            <path id="Tracé_217" data-name="Tracé 217" d="M272.12,348.58l7.1,4.5a1.13,1.13,0,0,1,.52.9l.16,3.52a.69.69,0,0,1-1.06.62l-7.08-4.42a1.16,1.16,0,0,1-.53-.91l-.18-3.59a.7.7,0,0,1,1.07-.62Z" fill="#fff"/>
          </g>
          <path id="Tracé_218" data-name="Tracé 218" d="M254.38,283.64l1.24,44.82,9.33,5.39a36.15,36.15,0,0,0,32.88,1.68C310.2,330,327.12,322,341,314a269.481,269.481,0,0,0,37.45-26.14,7.43,7.43,0,0,0,.9-10.53c-11.86-15-18.19-25.88-40.35-45.62,8,6.94-15.9,20.79-32.64,30.44s-37.09,21.42-47.68,21.73A27.592,27.592,0,0,1,254.38,283.64Z" fill="#37474f"/>
          <path id="Tracé_219" data-name="Tracé 219" d="M265,333.85l-9.33-5.39L186.7,285c0-6.49,3.67-27.39,6-33.4h0c10.17,5.87,18.63,10.77,30.86,17.82,13.87,8,22.07,13.22,30.86,14.29Z" fill="#263238"/>
          <path id="Tracé_220" data-name="Tracé 220" d="M258.66,283.84a20.591,20.591,0,0,0,3.44-.45c-.67,2.42-2.67,4-.48,13.25,8.32,34.95,8.39,39.43,12.71,41a36.429,36.429,0,0,1-9.38-3.77l-10.57-50.21a27.6,27.6,0,0,0,4.28.18Z"/>
          <path id="Tracé_221" data-name="Tracé 221" d="M215.64,303.22l-8.3-5.24,4.56-35.34,5.9,3.41Z"/>
          <path id="Tracé_222" data-name="Tracé 222" d="M338.94,239.07c7.9,5,9.36,12,17.1,20.72,9,10.09,13,19.39.52,11.6-9.7-6.07-21.34-13.9-31.79-20.41C331,246.88,336.35,242.72,338.94,239.07Z" fill="#455a64"/>
          <path id="Tracé_223" data-name="Tracé 223" d="M440.87,374.66c-.51.52-1.07,1.08-1.67,1.66-1.44,1.4-3.14,3-5.05,4.62l-.88.76c-2.33,2-5,4.14-7.81,6.33-.71.55-1.44,1.11-2.19,1.67-2.21,1.68-4.54,3.38-7,5.07-.85.59-1.73,1.19-2.61,1.78-1.06.72-2.15,1.44-3.24,2.15s-2.2,1.42-3.32,2.12-2.23,1.39-3.37,2.06-2.27,1.35-3.42,2c-23.21,13.19-37.54,20.54-49,20.34h-2.23c-1.19,0-2.46-.09-3.8-.21l-1.07-.11-.79-.1-.58-.07-1-.16-.86-.15-.86-.17c-1-.23-2.13-.5-3.25-.83l-1-.3a46.392,46.392,0,0,1-5.69-2.25l-.78-.38a62.456,62.456,0,0,1-6.84-3.9l-1.37-.91v13.07c13.75,9.37,23,9.46,30.12,9.6,11.45.23,25.78-7.14,49-20.33,17.41-9.88,33.61-23.06,40.55-30.26l.07-.08a12.86,12.86,0,0,0,3.49-8.89v-8.94C444.45,370.55,443.16,372.28,440.87,374.66Z" fill="#37474f"/>
          <path id="Tracé_224" data-name="Tracé 224" d="M321.23,415.61c13.75,9.37,23,9.46,30.12,9.61,11.44.21,25.78-7.15,49-20.34s44.1-32,44.1-35.1h0c0-5.29-3-6-3-6v3.93s-10.23,12.6-37,29.25C376.66,414.17,364,420.67,350,420.67s-24.71-7.95-24.71-7.95Z" fill="#455a64"/>
          <path id="Tracé_225" data-name="Tracé 225" d="M368.16,379.69l7.46,7.57a6.75,6.75,0,0,0,7.32,1.54,148,148,0,0,0,22.35-11.56,139.733,139.733,0,0,0,18.58-13.36,9.79,9.79,0,0,0,3.31-7.14l.24-11.7a.48.48,0,0,0-.85-.31c-4.51,5.75-11.61,12-22.41,18.73-13.21,8.18-24.91,13.08-35.77,15.43a.48.48,0,0,0-.23.8Z" fill="#37474f"/>
          <path id="Tracé_226" data-name="Tracé 226" d="M427.5,371.74a.62.62,0,0,0-.87,0c-11,11.76-33.82,24.57-48.26,29.15a.61.61,0,0,0,.21,1.19.579.579,0,0,0,.18,0c14.59-4.63,37.66-17.57,48.77-29.48A.63.63,0,0,0,427.5,371.74Zm-.16-4.89a.63.63,0,0,0-.87,0c-11,11.77-33.81,24.58-48.26,29.14a.63.63,0,0,0-.39.78.6.6,0,0,0,.61.43h.17c14.59-4.63,37.67-17.57,48.77-29.49a.62.62,0,0,0-.03-.86Z" fill="#e0e0e0"/>
          <path id="Tracé_227" data-name="Tracé 227" d="M366.36,382.59a7,7,0,0,0-5.94-2.71c-8,.43-21-.21-29.39-3.09-9.72-3.36-11.53-3.69-10,1.68s6,12.59,14.51,14.48c15.24,3.4,27.65,2.43,33.95-.17C372.7,391.47,369.13,386.17,366.36,382.59Z" fill="#407bff"/>
          <path id="Tracé_228" data-name="Tracé 228" d="M366.36,382.59a7,7,0,0,0-5.94-2.71c-8,.43-21-.21-29.39-3.09-9.72-3.36-11.53-3.69-10,1.68s6,12.59,14.51,14.48c15.24,3.4,27.65,2.43,33.95-.17C372.7,391.47,369.13,386.17,366.36,382.59Z" fill="#fff" opacity="0.8"/>
          <path id="Tracé_229" data-name="Tracé 229" d="M335.58,393c-8.52-1.89-12.95-9.12-14.51-14.48-1.48-5.06.05-5.06,8.36-2.23,3,6.53,7.24,12.53,13.2,16.48,1,.65,2,1.26,3,1.91A91.222,91.222,0,0,1,335.58,393Z" fill="#fff"/>
          <path id="Tracé_230" data-name="Tracé 230" d="M429.91,343.46a11.17,11.17,0,0,1,1.53-5.46,29.32,29.32,0,0,0,3.64-15.15c-.35-5.94,2.22-4.77,3.62-2.43s5,10.82,2.71,18.92c-1.88,6.75-7,13.66-10.38,17.45a1,1,0,0,1-1.66-.68C429.56,352.92,429.86,347.43,429.91,343.46Z" fill="#407bff"/>
          <path id="Tracé_231" data-name="Tracé 231" d="M429.91,343.46a11.17,11.17,0,0,1,1.53-5.46,29.32,29.32,0,0,0,3.64-15.15c-.35-5.94,2.22-4.77,3.62-2.43s5,10.82,2.71,18.92c-1.88,6.75-7,13.66-10.38,17.45a1,1,0,0,1-1.66-.68C429.56,352.92,429.86,347.43,429.91,343.46Z" fill="#fff" opacity="0.8"/>
          <path id="Tracé_232" data-name="Tracé 232" d="M353.66,401.78c-5.84-1.51-15-2.65-18.47-.31-2.36,1.56.3,5.88,1.55,7.3a13.12,13.12,0,0,0,6.87,4,22,22,0,0,0,10.59-.6C364.72,409.46,365.22,404.76,353.66,401.78ZM440.35,350l-.17.17a22.66,22.66,0,0,0-4.45,6.42,14.8,14.8,0,0,0-1.49,6.57,3.6,3.6,0,0,0,.38,1.81c.68,1.14,2,.68,3,.24a7.241,7.241,0,0,0,1.41-.85,12.254,12.254,0,0,0,1.12-.9,12.674,12.674,0,0,0,1.23-1.2c2-2.15,2.19-13.43,0-13.25C441.06,349.31,440.72,349.67,440.35,350Z" fill="#f0f0f0"/>
          <path id="Tracé_233" data-name="Tracé 233" d="M233.82,326.21c1.67,8,10.51,9.66,17.12,9.46,3.51-.1,6.39-.74,7.27-1.25,2.56-1.47,1.38-4.53,0-6.3-2.31-3-12.71-9-19.24-9.23C235.16,318.76,232.65,320.62,233.82,326.21Z" fill="#455a64"/>
          <path id="Tracé_234" data-name="Tracé 234" d="M233.82,326.21c1.67,8,10.51,9.66,17.12,9.46,3.51-.1,6.39-.74,7.27-1.25,2.56-1.47,1.38-4.53,0-6.3,1.29,2.43-5.52,3.94-11.59,1.76S236,323,239,318.89C235.16,318.76,232.65,320.62,233.82,326.21Z" fill="#37474f"/>
          <path id="Tracé_235" data-name="Tracé 235" d="M233.82,326.21c1.67,8,10.51,9.66,17.12,9.46-6.58-.19-11.83-4-13.81-8.12s-.48-8.14,1.85-8.66C235.16,318.76,232.65,320.62,233.82,326.21Z" fill="#263238"/>
          <path id="Tracé_236" data-name="Tracé 236" d="M270.53,395.65l.01,3.36-6.59,3.81v-3.37Z" fill="#263238"/>
          <path id="Tracé_237" data-name="Tracé 237" d="M129.29,325.07l134.66,77.75v-3.37L129.29,321.7Z" fill="#37474f"/>
          <path id="Tracé_238" data-name="Tracé 238" d="M135.89,317.91l-6.6,3.79,134.66,77.75,6.58-3.8Z" fill="#455a64"/>
        </g>
      </g>
    </g>
  </g>
</svg>
