<svg width="172" height="119" viewBox="0 0 172 119" fill="none" xmlns="http://www.w3.org/2000/svg">
<g clip-path="url(#clip0_4_193)">
<path d="M86 119C133.496 119 172 96.8882 172 69.612C172 42.3358 133.496 20.224 86 20.224C38.5035 20.224 0 42.3358 0 69.612C0 96.8882 38.5035 119 86 119Z" fill="#F0F0F0"/>
<path d="M107.96 117.369C122.195 115.218 135.655 110.945 146.812 104.534C161.19 96.2898 169.387 85.8502 171.466 75.0939L76.4562 20.5334C57.7273 21.7273 39.551 26.4448 25.1878 34.6895C14.0339 41.0996 6.58695 48.8274 2.84337 56.9993L107.96 117.369Z" fill="#FAFAFA"/>
<path d="M53.5373 26.5504L19.4132 46.0647C14.5974 48.8165 15.172 53.6177 20.694 56.7882L101.542 103.231C129.163 119.135 175.261 86.1232 153.183 73.7944L69.7742 25.746C64.2374 22.5682 58.3604 23.7949 53.5373 26.5504Z" fill="#E0E0E0"/>
<mask id="mask0_4_193" style="mask-type:luminance" maskUnits="userSpaceOnUse" x="17" y="0" width="141" height="103">
<path d="M157.329 0H17.8799V102.724H157.329V0Z" fill="white"/>
</mask>
<g mask="url(#mask0_4_193)">
<path d="M24.1339 45.2238L57.2809 26.1864C58.4958 19.7363 58.1518 10.7818 56.8198 2.0639L24.1448 20.8319L24.1339 45.2238Z" fill="#37474F"/>
<path d="M60.9147 68.3598L96.3086 48.5617L57.2772 26.1864L24.1339 45.2238L60.9147 68.3598Z" fill="#455A64"/>
<path d="M52.9518 32.673L84.4008 50.7312C84.8728 50.9599 85.392 51.0754 85.9169 51.0685C86.4419 51.0615 86.9579 50.9323 87.4235 50.6911L89.7875 49.3298C90.6401 48.842 90.6731 48.0667 89.857 47.5971L58.408 29.5389C57.9372 29.3082 57.4183 29.1916 56.8936 29.1986C56.3689 29.2055 55.8533 29.3359 55.389 29.5789L53.0213 30.9367C52.1687 31.4281 52.1394 32.2034 52.9518 32.673Z" fill="#263238"/>
<path d="M45.2414 37.0992L76.6904 55.1574C77.1612 55.3881 77.6801 55.5047 78.2048 55.4978C78.7295 55.4908 79.2451 55.3605 79.7094 55.1174L82.0771 53.7597C82.9297 53.2719 82.959 52.4929 82.143 52.027L50.6976 33.9688C50.2262 33.7381 49.7067 33.6215 49.1814 33.6284C48.6561 33.6354 48.1399 33.7657 47.6749 34.0088L45.3109 35.3666C44.4546 35.8543 44.4253 36.6333 45.2414 37.0992Z" fill="#263238"/>
<path d="M37.5273 41.5292L68.9727 59.5874C69.4441 59.8181 69.9636 59.9347 70.4889 59.9277C71.0142 59.9208 71.5304 59.7904 71.9954 59.5473L74.3594 58.1896C75.212 57.6982 75.245 56.9229 74.4289 56.4533L42.9908 38.3951C42.5195 38.1664 42.0009 38.0509 41.4765 38.0579C40.9522 38.0648 40.4368 38.194 39.9718 38.4351L37.6042 39.7965C36.7442 40.2843 36.7149 41.0778 37.5273 41.5292Z" fill="#263238"/>
<path d="M29.8169 45.9591L61.266 64.01C61.7373 64.2387 62.2559 64.3542 62.7803 64.3473C63.3046 64.3403 63.82 64.2111 64.285 63.97L66.6526 62.6122C67.5053 62.1208 67.5346 61.3455 66.7222 60.8759L35.2731 42.825C34.8017 42.5946 34.2822 42.4781 33.757 42.4851C33.2317 42.4921 32.7156 42.6222 32.2504 42.8651L29.8865 44.2228C29.0338 44.7178 29.0009 45.4895 29.8169 45.9591Z" fill="#263238"/>
<path d="M95.8512 24.4355L56.8161 2.06754C58.1482 10.7854 58.4921 19.7399 57.2772 26.19L96.3086 48.5617C97.5162 42.1115 97.1832 33.1534 95.8512 24.4355Z" fill="#263238"/>
<path d="M70.0705 24.3082C69.1727 23.7537 68.1443 23.4437 67.0881 23.4091C66.4393 23.4019 65.8002 23.5665 65.2364 23.8859L61.233 26.1901L62.9127 29.517C62.9987 31.3652 63.4112 33.1839 64.1313 34.8897L73.053 40.0113L77.2174 37.6198V37.3832C77.2247 32.44 74.019 26.5795 70.0705 24.3082Z" fill="#455A64"/>
<path d="M73.0603 39.7856V40.0222L64.1313 34.8897L58.7263 31.8066V31.5627C58.7263 28.84 59.6924 26.9581 61.2184 26.19C62.4736 25.5567 64.102 25.6768 65.8878 26.7033C66.8986 27.3009 67.8117 28.0484 68.5958 28.9201C68.6015 28.9204 68.6069 28.9228 68.6109 28.9268C68.615 28.9309 68.6174 28.9362 68.6178 28.9419C71.2269 31.7811 73.0603 36.0436 73.0603 39.7856Z" fill="#37474F"/>
<path d="M37.6298 39.9057L32.6932 37.0738L27.4822 40.0768L27.4639 47.4005V49.1514L28.1592 48.7474L28.8911 48.3324L31.2368 46.9856L32.3346 46.3522L33.7984 45.5186L34.7535 44.969L35.9721 43.8333L36.1916 43.6295L37.1468 42.7413L37.4798 42.4282L39.218 40.8121L37.6298 39.9057Z" fill="#263238"/>
<path d="M32.309 47.4551L30.6257 44.1282L34.651 41.824C35.9245 41.096 37.6188 41.1761 39.4815 42.2463C43.4373 44.5176 46.6429 50.3781 46.6429 55.3504C46.6429 57.9457 45.7647 59.7767 44.3558 60.6066L44.2973 60.6393L40.1914 62.9981L38.4166 59.4891C35.0353 56.9192 32.4407 51.8741 32.309 47.4551Z" fill="#37474F"/>
<path d="M32.309 47.4551L30.6257 44.1282L34.651 41.824C35.9245 41.096 37.6188 41.1761 39.4815 42.2463C43.4373 44.5176 46.6429 50.3781 46.6429 55.3504C46.6429 57.9457 45.7647 59.7767 44.3558 60.6066L44.2973 60.6393L40.1914 62.9981L38.4166 59.4891C35.0353 56.9192 32.4407 51.8741 32.309 47.4551Z" fill="#263238"/>
<path d="M28.1373 49.4972C28.1373 53.7706 30.5195 58.7174 33.7142 61.451C34.2029 61.8694 34.7283 62.2434 35.2841 62.5685C39.2399 64.8436 42.4493 62.6668 42.4456 57.7091C42.4456 53.9671 40.6159 49.701 38.0177 46.8654C38.008 46.861 38.0001 46.8533 37.9957 46.8436C37.2104 45.9718 36.296 45.2243 35.2841 44.6268C31.3393 42.37 28.1373 44.5431 28.1373 49.4972Z" fill="#37474F"/>
<path d="M28.1373 49.4972C28.1373 53.7706 30.5195 58.7174 33.7142 61.451C31.4995 58.9555 29.9383 55.9547 29.1692 52.715C28.5654 49.8575 28.8033 45.7552 31.2588 44.7069C33.7142 43.6586 36.9748 45.8535 38.0067 46.8472C37.2214 45.9755 36.307 45.228 35.2951 44.6305C31.3393 42.37 28.1373 44.5431 28.1373 49.4972Z" fill="#455A64"/>
<path d="M35.3061 47.568C32.792 46.112 30.7501 47.659 30.7501 50.9969C30.7501 54.3348 32.7811 58.2114 35.3061 59.642C37.8311 61.0725 39.8657 59.5546 39.8657 56.2167C39.8657 52.8788 37.8128 49.0131 35.3061 47.568ZM35.3061 58.6155C33.2239 57.4179 31.5369 54.211 31.5369 51.4482C31.5369 48.6855 33.2239 47.4151 35.3061 48.6127C37.3883 49.8102 39.0789 53.0171 39.0789 55.7799C39.0789 58.5427 37.3773 59.8094 35.3061 58.6155Z" fill="#F5F5F5"/>
<path d="M39.0679 55.7799C39.1118 56.646 38.8787 57.5036 38.4019 58.2296C37.7249 59.1505 36.5722 59.3544 35.2987 58.6155C33.2129 57.4179 31.5259 54.211 31.5259 51.4482C31.5259 49.519 32.3492 48.3178 33.5569 48.1722C34.1726 48.1257 34.7867 48.2803 35.3061 48.6126C37.3809 49.8139 39.0679 53.0171 39.0679 55.7799Z" fill="#E0E0E0"/>
<path opacity="0.4" d="M39.0679 55.7799C39.1118 56.646 38.8787 57.5036 38.4019 58.2296C37.7249 59.1505 36.5722 59.3544 35.2987 58.6155C33.2129 57.4179 31.5259 54.211 31.5259 51.4482C31.5259 49.519 32.3492 48.3178 33.5569 48.1722C34.1726 48.1257 34.7867 48.2803 35.3061 48.6126C37.3809 49.8139 39.0679 53.0171 39.0679 55.7799Z" fill="black"/>
<path d="M39.068 55.7799C39.1118 56.646 38.8787 57.5036 38.4019 58.2296C37.7882 58.278 37.1754 58.1259 36.6564 57.7965C34.5742 56.6025 32.8872 53.3957 32.8872 50.6329C32.8439 49.7652 33.0783 48.9062 33.5569 48.1795C34.1718 48.1308 34.7859 48.2829 35.3061 48.6127C37.381 49.8139 39.068 53.0171 39.068 55.7799Z" fill="#263238"/>
<path d="M34.7864 51.885L34.1058 53.8543L32.4883 50.3235C32.5181 49.9048 32.6353 49.497 32.8323 49.1259L34.7864 51.885Z" fill="#E0E0E0"/>
<path d="M34.1131 53.4539L35.3317 55.1647L34.1277 56.5407C33.8258 56.2924 33.5907 55.9735 33.4434 55.6125L34.1131 53.4539Z" fill="#E0E0E0"/>
<path d="M36.6893 54.8298L36.3453 54.9754L36.2612 54.5823L34.9182 54.9463L37.67 58.8448C37.9595 58.697 38.2102 58.4839 38.4019 58.2223C38.4455 58.1639 38.4858 58.1032 38.5227 58.0403L36.6893 54.8298Z" fill="#E0E0E0"/>
<path d="M38.9252 54.3348L36.6893 54.8298L36.4807 54.4949L36.2612 54.5823L35.8952 52.8715L36.166 53.028V52.5839H38.4239C38.646 53.1506 38.8138 53.7368 38.9252 54.3348Z" fill="#E0E0E0"/>
<path d="M36.1477 52.5839L35.8074 52.4747L35.8952 52.8715L34.4315 52.027L35.7196 48.882C36.1247 49.1761 36.4932 49.517 36.8174 49.8976L36.1477 52.5839Z" fill="#E0E0E0"/>
<path d="M36.7223 54.4331C36.7223 55.4778 36.0855 55.9582 35.2951 55.5032C34.5047 55.0482 33.8716 53.8397 33.8716 52.7951C33.8716 51.7504 34.5083 51.2699 35.2951 51.7212C36.0819 52.1726 36.7223 53.3884 36.7223 54.4331Z" fill="#F5F5F5"/>
<path d="M60.922 68.3781L44.4217 58.914L44.44 58.7574C44.2654 55.6937 43.3946 52.7093 41.893 50.0286C40.0011 46.6798 37.1833 43.3892 33.3702 42.5447C29.9194 41.8386 27.7311 44.6632 27.5152 48.0048C27.4859 48.245 27.4749 48.6855 27.4676 49.1405L20.0573 44.8926C18.857 38.4497 19.201 29.5207 20.533 20.8356L61.3758 44.2337C60.0401 52.9516 59.6998 61.9134 60.922 68.3781Z" fill="#F16100"/>
<path opacity="0.2" d="M60.922 68.3781L44.4217 58.914L44.44 58.7574C44.2654 55.6937 43.3946 52.7093 41.893 50.0286C40.0011 46.6798 37.1833 43.3892 33.3702 42.5447C29.9194 41.8386 27.7311 44.6632 27.5152 48.0048C27.4859 48.245 27.4749 48.6855 27.4676 49.1405L20.0573 44.8926C18.857 38.4497 19.201 29.5207 20.533 20.8356L61.3758 44.2337C60.0401 52.9516 59.6998 61.9134 60.922 68.3781Z" fill="black"/>
<path d="M95.8512 24.4355L97.6113 23.4273L56.8161 0L56.8125 0.00364359L56.8088 0L20.533 20.8319L20.5366 20.8356H20.533L61.3758 44.2337L63.1799 43.1999L24.1448 20.8319L56.8161 2.06754L95.8512 24.4355Z" fill="#F16100"/>
<path opacity="0.2" d="M95.8512 24.4355L97.6113 23.4273L56.8161 0L56.8125 0.00364359L56.8088 0L20.533 20.8319L20.5366 20.8356H20.533L61.3758 44.2337L63.1799 43.1999L24.1448 20.8319L56.8161 2.06754L95.8512 24.4355Z" fill="white"/>
<path d="M56.8161 2.06753L55.0669 1.00464L22.3261 19.8054L24.1448 20.8319L56.8161 2.06753Z" fill="#455A64"/>
<path d="M25.4256 44.9144V49.6756L18.9155 45.9518C18.6008 45.771 18.3393 45.511 18.1576 45.198C17.9758 44.8849 17.88 44.5297 17.8799 44.1682V40.2988L25.4256 44.9144Z" fill="#37474F"/>
<path d="M25.4256 44.9144C22.9006 43.4584 18.3154 40.863 18.3154 40.863C16.9065 40.0659 19.3913 38.7118 19.3913 38.7118L19.4132 39.1085C19.4237 39.3098 19.4849 39.5053 19.591 39.677C19.6971 39.8487 19.8449 39.9911 20.0207 40.0913L26.9187 44.0662L25.4256 44.9144Z" fill="#455A64"/>
<path d="M26.915 44.0663V48.8201L25.422 49.6755V44.918L26.915 44.0663Z" fill="#263238"/>
<path d="M19.3474 33.6266C20.5293 34.4129 21.6894 35.0608 22.4542 35.4685C22.729 35.6159 22.9588 35.8345 23.1192 36.101C23.2795 36.3675 23.3646 36.6721 23.3654 36.9828V39.3269C23.3654 39.3815 23.351 39.4351 23.3237 39.4825C23.2964 39.5298 23.2571 39.5693 23.2098 39.5969C23.1624 39.6245 23.1087 39.6393 23.0538 39.6398C22.9989 39.6403 22.9449 39.6266 22.897 39.5999C21.9529 39.0721 19.8524 37.9037 19.3474 37.5834C18.6923 37.1684 18.7106 33.219 19.3474 33.6266Z" fill="#F16100"/>
<path opacity="0.8" d="M19.3474 33.6266C20.5293 34.4129 21.6894 35.0608 22.4542 35.4685C22.729 35.6159 22.9588 35.8345 23.1192 36.101C23.2795 36.3675 23.3646 36.6721 23.3654 36.9828V39.3269C23.3654 39.3815 23.351 39.4351 23.3237 39.4825C23.2964 39.5298 23.2571 39.5693 23.2098 39.5969C23.1624 39.6245 23.1087 39.6393 23.0538 39.6398C22.9989 39.6403 22.9449 39.6266 22.897 39.5999C21.9529 39.0721 19.8524 37.9037 19.3474 37.5834C18.6923 37.1684 18.7106 33.219 19.3474 33.6266Z" fill="white"/>
<path d="M103.851 79.1671L98.9177 76.3315L93.7067 79.3345L93.6848 86.6583V88.3982L94.3837 87.9978L95.1156 87.5829L97.4613 86.236L98.5591 85.6027L100.023 84.7691L100.982 84.2195L102.2 83.0838L102.416 82.8799L103.375 81.9918L103.708 81.6787L105.442 80.0625L103.851 79.1671Z" fill="#263238"/>
<path d="M98.5298 85.4352L96.8502 82.1083L100.854 79.8041C102.127 79.0761 103.821 79.1562 105.684 80.2263C109.64 82.4977 112.845 88.3582 112.845 93.3123C112.845 95.9076 111.967 97.7386 110.562 98.5685L110.507 98.6012L106.405 100.96L104.626 97.451C101.256 94.8993 98.6616 89.8542 98.5298 85.4352Z" fill="#37474F"/>
<path d="M98.5298 85.4352L96.8502 82.1083L100.854 79.8041C102.127 79.0761 103.821 79.1562 105.684 80.2263C109.64 82.4977 112.845 88.3582 112.845 93.3123C112.845 95.9076 111.967 97.7386 110.562 98.5685L110.507 98.6012L106.405 100.96L104.626 97.451C101.256 94.8993 98.6616 89.8542 98.5298 85.4352Z" fill="#263238"/>
<path d="M94.3581 87.4809C94.3581 91.7507 96.744 96.6975 99.935 99.4312C100.424 99.8504 100.951 100.224 101.509 100.549C105.464 102.824 108.67 100.647 108.67 95.6892C108.67 91.9473 106.84 87.6811 104.239 84.8455L104.217 84.8237C103.433 83.9521 102.519 83.2046 101.509 82.6069C97.5637 80.3501 94.3581 82.5232 94.3581 87.4809Z" fill="#37474F"/>
<path d="M94.3581 87.4809C94.3581 91.7507 96.744 96.6975 99.935 99.4312C97.7201 96.9362 96.16 93.9351 95.3937 90.6951C94.7863 87.8377 95.0278 83.7353 97.4796 82.687C99.9314 81.6387 103.199 83.8336 104.228 84.8274C103.443 83.9557 102.53 83.2082 101.52 82.6106C97.5637 80.3501 94.3581 82.5232 94.3581 87.4809Z" fill="#455A64"/>
<path d="M101.52 85.5481C99.0019 84.0921 96.96 85.6391 96.96 88.977C96.96 92.3149 99.0019 96.1915 101.52 97.6366C104.037 99.0817 106.076 97.5493 106.076 94.2114C106.076 90.8734 104.034 86.9932 101.52 85.5481ZM101.52 96.5956C99.4374 95.398 97.7467 92.1911 97.7467 89.4283C97.7467 86.6656 99.4374 85.3952 101.52 86.5928C103.602 87.7903 105.289 90.9972 105.289 93.76C105.289 96.5228 103.602 97.7895 101.52 96.5956Z" fill="#F5F5F5"/>
<path d="M105.289 93.76C105.333 94.6261 105.1 95.4837 104.623 96.2097C103.946 97.1307 102.811 97.3345 101.52 96.5956C99.4337 95.398 97.7467 92.1911 97.7467 89.4284C97.7467 87.4991 98.5738 86.2979 99.7777 86.1523C100.39 86.105 101.002 86.257 101.52 86.5855C103.602 87.7867 105.289 90.9972 105.289 93.76Z" fill="#E0E0E0"/>
<path opacity="0.4" d="M105.289 93.76C105.333 94.6261 105.1 95.4837 104.623 96.2097C103.946 97.1307 102.811 97.3345 101.52 96.5956C99.4337 95.398 97.7467 92.1911 97.7467 89.4284C97.7467 87.4991 98.5738 86.2979 99.7777 86.1523C100.39 86.105 101.002 86.257 101.52 86.5855C103.602 87.7867 105.289 90.9972 105.289 93.76Z" fill="black"/>
<path d="M105.289 93.76C105.333 94.6261 105.099 95.4837 104.623 96.2098C104.01 96.2587 103.398 96.1065 102.881 95.7766C100.799 94.5863 99.1117 91.3758 99.1117 88.613C99.0673 87.7457 99.3004 86.8868 99.7777 86.1596C100.39 86.1123 101.002 86.2643 101.52 86.5928C103.602 87.7867 105.289 90.9972 105.289 93.76Z" fill="#263238"/>
<path d="M101.007 89.8542L100.327 91.8235L98.7092 88.2963C98.7389 87.8765 98.856 87.4675 99.0532 87.0951L101.007 89.8542Z" fill="#E0E0E0"/>
<path d="M100.334 91.4195L101.542 93.1303L100.334 94.5062C100.033 94.2579 99.7991 93.9389 99.6533 93.578L100.334 91.4195Z" fill="#E0E0E0"/>
<path d="M102.91 92.81L102.566 92.9556L102.482 92.5624L101.139 92.9264L103.891 96.8249C104.181 96.6782 104.432 96.4648 104.623 96.2025C104.667 96.1442 104.707 96.0824 104.747 96.0205L102.91 92.81Z" fill="#E0E0E0"/>
<path d="M105.146 92.3149L102.91 92.81L102.702 92.4787L102.482 92.5624L102.116 90.8516L102.387 91.0081L102.369 90.5641H104.63C104.857 91.1302 105.03 91.7164 105.146 92.3149Z" fill="#E0E0E0"/>
<path d="M102.369 90.5823L102.028 90.4731L102.116 90.8698L100.652 90.0253L101.944 86.8803C102.348 87.1753 102.717 87.5161 103.042 87.8959L102.369 90.5823Z" fill="#E0E0E0"/>
<path d="M102.943 92.4023C102.943 93.447 102.306 93.9275 101.52 93.4725C100.733 93.0174 100.092 91.809 100.092 90.7643C100.092 89.7196 100.729 89.2391 101.52 89.6905C102.31 90.1418 102.943 91.3685 102.943 92.4023Z" fill="#F5F5F5"/>
<path d="M151.789 65.2258C151.02 66.6799 150.022 68.0022 148.832 69.1425C147.149 70.8096 144.807 72.5714 141.638 74.3987C123.26 84.9548 114.906 80.1499 99.2581 71.159C96.1769 69.39 92.7919 67.3152 89.3484 65.1275L89.0629 64.9491L88.5543 64.6215L87.7565 64.1119L86.9844 63.6132C85.2498 62.4958 83.5116 61.3564 81.8027 60.2244L81.3525 59.9259C81.168 59.794 80.9762 59.6725 80.778 59.5619C70.6451 52.8169 66.5063 49.1987 65.1706 48.2377L65.145 48.2195L65.0645 48.1613L70.5536 51.5575L73.6312 53.4648L82.6955 59.2889L88.2286 62.7214L87.8956 61.5093L87.7712 46.4068C87.5346 45.4538 87.0572 44.5768 86.3842 43.8588C86.3502 43.8176 86.3122 43.7798 86.2708 43.7459C85.5823 43.163 84.8269 42.6633 84.0203 42.2572C81.3855 40.7538 72.8444 36.0145 64.9913 31.5737L64.2155 31.1296L89.6192 14.1415C90.4017 13.6183 91.3142 13.32 92.2563 13.2796C93.1983 13.2391 94.1333 13.458 94.9583 13.9122C104.374 19.092 116.728 25.7678 118.744 27.4932C118.975 27.6934 122.982 33.026 126.063 36.1892C129.459 39.6618 133.016 43.4147 133.408 43.9789C135.969 45.6715 145.209 51.663 150.183 55.4668C150.344 55.5906 150.512 55.7617 150.75 55.9764C151.085 56.2816 151.369 56.6379 151.591 57.0321C153.103 59.642 153.403 62.0116 151.789 65.2258Z" fill="#F16100"/>
<path opacity="0.2" d="M151.789 65.2258C151.02 66.6799 150.022 68.0022 148.832 69.1425C147.149 70.8096 144.807 72.5714 141.638 74.3987C123.26 84.9548 114.906 80.1499 99.2581 71.159C96.1769 69.39 92.7919 67.3152 89.3484 65.1275L89.0629 64.9491L88.5543 64.6215L87.7565 64.1119L86.9844 63.6132C85.2498 62.4958 83.5116 61.3564 81.8027 60.2244L81.3525 59.9259C81.168 59.794 80.9762 59.6725 80.778 59.5619C70.6451 52.8169 66.5063 49.1987 65.1706 48.2377L65.145 48.2195L65.0645 48.1613L70.5536 51.5575L73.6312 53.4648L82.6955 59.2889L88.2286 62.7214L87.8956 61.5093L87.7712 46.4068C87.5346 45.4538 87.0572 44.5768 86.3842 43.8588C86.3502 43.8176 86.3122 43.7798 86.2708 43.7459C85.5823 43.163 84.8269 42.6633 84.0203 42.2572C81.3855 40.7538 72.8444 36.0145 64.9913 31.5737L64.2155 31.1296L89.6192 14.1415C90.4017 13.6183 91.3142 13.32 92.2563 13.2796C93.1983 13.2391 94.1333 13.458 94.9583 13.9122C104.374 19.092 116.728 25.7678 118.744 27.4932C118.975 27.6934 122.982 33.026 126.063 36.1892C129.459 39.6618 133.016 43.4147 133.408 43.9789C135.969 45.6715 145.209 51.663 150.183 55.4668C150.344 55.5906 150.512 55.7617 150.75 55.9764C151.085 56.2816 151.369 56.6379 151.591 57.0321C153.103 59.642 153.403 62.0116 151.789 65.2258Z" fill="white"/>
<path opacity="0.2" d="M144.876 65.6225C144.199 64.8436 143.53 64.0646 142.816 63.3111C141.816 62.223 140.75 61.1959 139.625 60.2353C138.07 58.8739 136.467 57.5635 134.806 56.3368C133.971 55.7253 133.122 55.1356 132.266 54.5605C131.41 53.9853 130.528 53.4466 129.617 52.9516C131.326 54.1091 132.98 55.3394 134.593 56.6098C136.207 57.8802 137.803 59.1869 139.325 60.5738C140.847 61.9607 141.115 62.0953 142.564 63.5513C144.013 65.0074 145.414 66.5216 146.805 68.0395C146.186 67.2278 145.546 66.4088 144.876 65.6225ZM132.014 74.2967C131.648 73.9145 131.282 73.525 130.916 73.1683C130.144 72.4403 129.371 71.7123 128.555 71.0389C127.378 69.9957 126.117 69.0486 124.786 68.207C123.014 67.0353 121.174 65.9694 119.275 65.0146C118.327 64.5378 117.361 64.0937 116.388 63.6715C115.415 63.2456 114.417 62.8809 113.398 62.5795C115.348 63.3924 117.254 64.3074 119.107 65.3204C120.968 66.3216 122.778 67.415 124.53 68.5964C125.851 69.4083 127.115 70.3083 128.314 71.2901C129.983 72.5859 131.538 74.0128 133.104 75.4397L132.014 74.2967Z" fill="white"/>
<path d="M156.217 77.5655C156.217 78.2288 156.149 78.8905 156.015 79.5402C154.823 85.3006 148.825 89.432 143.716 92.3368C141.36 93.6654 138.871 95.085 136.456 96.45C134.714 97.4146 132.983 98.5285 131.132 99.2637C128.074 100.491 124.768 100.982 121.484 100.695C118.2 100.409 115.03 99.3531 112.234 97.6148C112.226 97.6056 112.216 97.5981 112.205 97.593L110.653 96.7048C110.479 93.6543 109.616 90.682 108.129 88.0088C106.233 84.6599 103.415 81.3693 99.6021 80.5248C96.1512 79.8187 93.9629 82.647 93.747 85.9849C93.7177 86.2361 93.7031 86.7129 93.6994 87.1752L60.922 68.3781C59.0667 58.55 60.8378 42.8978 64.2155 31.1478L64.135 31.1005C64.159 31.1166 64.1848 31.1301 64.2118 31.1405C71.5307 35.4139 77.92 38.7846 82.6699 41.5073C84.0422 42.2972 85.5609 43.0289 86.2818 43.7641C86.7791 44.2233 87.1678 44.7864 87.4198 45.4131C87.5639 45.7408 87.6861 46.0777 87.7858 46.4214C88.7775 49.8576 87.8626 61.5421 88.2432 62.736L82.6992 59.278C77.0747 55.7872 70.5792 51.5393 65.0754 48.1358L65.1559 48.1941C66.1001 48.9439 79.0983 58.6155 86.9954 63.6023C87.515 63.9445 88.0383 64.2794 88.5579 64.6106C92.1734 66.922 95.9646 69.2553 99.2617 71.1627C114.906 80.1536 123.26 84.9475 141.641 74.3987C145.231 72.2947 147.427 70.6567 149.462 68.4945C149.952 67.9661 150.408 67.4068 150.827 66.8201C150.878 66.7546 150.925 66.6854 150.969 66.6163C152.92 63.8353 153.366 60.552 151.902 57.7928C151.862 57.7018 151.811 57.6108 151.76 57.5198C151.672 57.356 151.577 57.1995 151.482 57.0539C151.427 56.9593 151.368 56.8756 151.31 56.7918C150.987 56.3201 150.619 55.8801 150.212 55.4778C150.578 55.7508 150.944 56.042 151.31 56.3186C151.611 56.5464 151.901 56.7894 152.177 57.0466L152.448 57.2941L152.634 57.4798L152.697 57.5417C153.174 58.0452 153.607 58.5897 153.988 59.1688C154.025 59.2343 154.062 59.2925 154.098 59.3508C154.123 59.3846 154.147 59.4198 154.168 59.4563C155.467 61.5603 156.089 64.0391 156.221 66.8165C156.243 67.195 156.224 76.8921 156.217 77.5655Z" fill="#F16100"/>
<path opacity="0.05" d="M156.217 77.5655C156.217 78.2288 156.149 78.8905 156.015 79.5402C154.823 85.3006 148.825 89.432 143.716 92.3368C141.36 93.6654 138.871 95.085 136.456 96.45C134.714 97.4146 132.983 98.5285 131.132 99.2637C128.074 100.491 124.768 100.982 121.484 100.695C118.2 100.409 115.03 99.3531 112.234 97.6148C112.226 97.6056 112.216 97.5981 112.205 97.593L110.653 96.7048C110.479 93.6543 109.616 90.682 108.129 88.0088C106.233 84.6599 103.415 81.3693 99.6021 80.5248C96.1512 79.8187 93.9629 82.647 93.747 85.9849C93.7177 86.2361 93.7031 86.7129 93.6994 87.1752L60.922 68.3781C59.0667 58.55 60.8378 42.8978 64.2155 31.1478L64.135 31.1005C64.159 31.1166 64.1848 31.1301 64.2118 31.1405C71.5307 35.4139 77.92 38.7846 82.6699 41.5073C84.0422 42.2972 85.5609 43.0289 86.2818 43.7641C86.7791 44.2233 87.1678 44.7864 87.4198 45.4131C87.5639 45.7408 87.6861 46.0777 87.7858 46.4214C88.7775 49.8576 87.8626 61.5421 88.2432 62.736L82.6992 59.278C77.0747 55.7872 70.5792 51.5393 65.0754 48.1358L65.1559 48.1941C66.1001 48.9439 79.0983 58.6155 86.9954 63.6023C87.515 63.9445 88.0383 64.2794 88.5579 64.6106C92.1734 66.922 95.9646 69.2553 99.2617 71.1627C114.906 80.1536 123.26 84.9475 141.641 74.3987C145.231 72.2947 147.427 70.6567 149.462 68.4945C149.952 67.9661 150.408 67.4068 150.827 66.8201C150.878 66.7546 150.925 66.6854 150.969 66.6163C152.92 63.8353 153.366 60.552 151.902 57.7928C151.862 57.7018 151.811 57.6108 151.76 57.5198C151.672 57.356 151.577 57.1995 151.482 57.0539C151.427 56.9593 151.368 56.8756 151.31 56.7918C150.987 56.3201 150.619 55.8801 150.212 55.4778C150.578 55.7508 150.944 56.042 151.31 56.3186C151.611 56.5464 151.901 56.7894 152.177 57.0466L152.448 57.2941L152.634 57.4798L152.697 57.5417C153.174 58.0452 153.607 58.5897 153.988 59.1688C154.025 59.2343 154.062 59.2925 154.098 59.3508C154.123 59.3846 154.147 59.4198 154.168 59.4563C155.467 61.5603 156.089 64.0391 156.221 66.8165C156.243 67.195 156.224 76.8921 156.217 77.5655Z" fill="black"/>
<g opacity="0.3">
<path d="M61.266 44.9726C60.4975 52.4274 59.923 59.9586 60.7573 67.4316C59.3924 60.0205 59.9706 52.3546 61.266 44.9726Z" fill="black"/>
</g>
<g opacity="0.3">
<path d="M72.1564 51.3463C71.3879 58.7975 70.8134 66.3287 71.6441 73.8017C70.2828 66.3906 70.861 58.7247 72.1564 51.3463Z" fill="black"/>
</g>
<path opacity="0.2" d="M97.9992 36.4513C95.9024 35.1409 88.353 30.6746 86.1939 29.4734L82.948 27.6825C81.8502 27.1001 80.7707 26.4995 79.6765 25.928C80.7195 26.5905 81.7807 27.2238 82.8346 27.8717L86.0183 29.7718C88.1444 31.0349 95.8072 35.3047 97.9992 36.4513ZM105.347 32.2325C103.25 30.9184 95.7048 26.4558 93.5384 25.2509L90.2925 23.46C89.1947 22.8776 88.1225 22.2806 87.0246 21.7092C88.0712 22.3716 89.1325 23.005 90.1827 23.6529L93.3664 25.553C95.4925 26.8125 103.155 31.0823 105.347 32.2325ZM92.4845 39.6218C90.3876 38.3114 82.8419 33.845 80.6792 32.6438L77.4333 30.8493C76.3355 30.2669 75.2596 29.6699 74.1618 29.0984C75.2084 29.7573 76.2696 30.3943 77.3235 31.0422L80.5072 32.9423C82.6333 34.2018 90.2962 38.4679 92.4845 39.6218ZM110.858 29.0657C108.765 27.7553 101.216 23.2853 99.0531 22.0804L95.8072 20.2932C94.7094 19.7108 93.6335 19.1102 92.5357 18.5387C93.5823 19.2012 94.6399 19.8345 95.6975 20.4825L98.8812 22.3826C101.004 23.6457 108.67 27.9191 110.858 29.0657Z" fill="white"/>
<path d="M127.688 37.9656L127.985 39.1959C128.669 40.4735 130.18 42.0861 130.729 41.9514C131.212 41.8313 131.509 41.1287 131.662 40.2624C131.735 39.8462 131.778 39.4253 131.79 39.003C131.838 37.6379 131.223 34.4493 129.317 33.6012C129.125 33.5197 128.913 33.5005 128.71 33.5462C128.507 33.592 128.323 33.7004 128.186 33.856C127.932 34.1084 127.744 34.4181 127.637 34.7587C127.318 35.7087 127.644 37.9146 127.688 37.9656Z" fill="#455A64"/>
<path d="M127.984 39.1959C128.669 40.4735 130.18 42.0861 130.729 41.9514C131.212 41.8313 131.509 41.1287 131.662 40.2624C131.735 39.8462 131.778 39.4253 131.79 39.003C131.838 37.6379 131.223 34.4493 129.317 33.6012C129.125 33.5197 128.913 33.5005 128.71 33.5462C128.507 33.592 128.323 33.7004 128.186 33.856L128.449 34.442C129.781 35.0098 130.14 37.0555 130.015 38.6135C129.891 40.1714 128.749 39.9858 127.984 39.1959Z" fill="#37474F"/>
<path d="M127.641 34.7514C128.12 34.2418 129.317 34.2163 130.323 35.5922C131.329 36.9682 131.662 39.3342 131.666 40.2478C131.736 39.8326 131.778 39.413 131.79 38.992C131.838 37.6234 131.227 34.4384 129.32 33.5902C128.526 33.2371 127.867 34.0489 127.641 34.7514Z" fill="#263238"/>
<path d="M94.2666 70.0452L96.8648 71.6832C96.9206 71.7187 96.967 71.7669 97.0001 71.8239C97.0332 71.881 97.052 71.945 97.0551 72.0108L97.1136 73.2921C97.1162 73.3382 97.1059 73.3842 97.084 73.4249C97.062 73.4656 97.0291 73.4995 96.989 73.5228C96.9489 73.5462 96.9031 73.558 96.8567 73.5571C96.8102 73.5562 96.7649 73.5426 96.7257 73.5178L94.1349 71.9089C94.0786 71.8728 94.0316 71.824 93.9979 71.7664C93.9642 71.7088 93.9447 71.6442 93.9409 71.5776L93.8751 70.2709C93.8733 70.2246 93.8843 70.1788 93.9068 70.1383C93.9292 70.0978 93.9624 70.0641 94.0026 70.0409C94.0429 70.0177 94.0887 70.0058 94.1352 70.0066C94.1817 70.0073 94.2271 70.0207 94.2666 70.0452Z" fill="#F16100"/>
<g opacity="0.2">
<path d="M94.2666 70.0452L96.8648 71.6832C96.9206 71.7187 96.967 71.7669 97.0001 71.8239C97.0332 71.881 97.052 71.945 97.0551 72.0108L97.1136 73.2921C97.1162 73.3382 97.1059 73.3842 97.084 73.4249C97.062 73.4656 97.0291 73.4995 96.989 73.5228C96.9489 73.5462 96.9031 73.558 96.8567 73.5571C96.8102 73.5562 96.7649 73.5426 96.7257 73.5178L94.1349 71.9089C94.0786 71.8728 94.0316 71.824 93.9979 71.7664C93.9642 71.7088 93.9447 71.6442 93.9409 71.5776L93.8751 70.2709C93.8733 70.2246 93.8843 70.1788 93.9068 70.1383C93.9292 70.0978 93.9624 70.0641 94.0026 70.0409C94.0429 70.0177 94.0887 70.0058 94.1352 70.0066C94.1817 70.0073 94.2271 70.0207 94.2666 70.0452Z" fill="white"/>
</g>
<path d="M87.7748 46.4068L88.2286 62.7214L91.6428 64.6834C93.4565 65.7255 95.493 66.3244 97.5849 66.4307C99.6767 66.537 101.764 66.1478 103.675 65.2949C108.202 63.282 114.393 60.37 119.473 57.4579C124.303 54.6777 128.888 51.4946 133.177 47.9429C133.454 47.7139 133.682 47.4327 133.848 47.1155C134.014 46.7982 134.116 46.4513 134.147 46.0948C134.177 45.7383 134.136 45.3793 134.027 45.0386C133.917 44.6979 133.74 44.3822 133.507 44.1099C129.166 38.6499 126.85 34.6895 118.741 27.5041C121.668 30.0303 112.922 35.0717 106.796 38.5843C100.671 42.097 93.2237 46.3813 89.3484 46.4941C88.8224 46.5059 88.2962 46.4766 87.7748 46.4068Z" fill="#37474F"/>
<path d="M91.6611 64.6834L88.2469 62.7214L63.0079 46.9019C63.0079 44.5395 64.3509 36.9318 65.2035 34.7441C68.9252 36.8808 72.021 38.6645 76.4965 41.2307C81.5721 44.1427 84.5728 46.0428 87.7895 46.4323L91.6611 64.6834Z" fill="#263238"/>
<path d="M89.341 46.4796C89.7645 46.4603 90.1856 46.4055 90.5999 46.3158C90.3547 47.1967 89.6228 47.7718 90.4242 51.1388C93.4689 63.8608 93.4945 65.4915 95.0753 66.063C93.8726 65.7665 92.7173 65.3046 91.6428 64.6907L87.7748 46.4141C88.2944 46.4762 88.818 46.4981 89.341 46.4796Z" fill="black"/>
<path d="M73.5982 53.534L70.5609 51.6266L72.2296 38.7627L74.3887 40.004L73.5982 53.534Z" fill="black"/>
<path d="M118.719 30.1832C121.61 32.0032 122.144 34.5512 124.976 37.7253C128.27 41.3981 129.734 44.7833 125.167 41.9478C121.617 39.7383 117.358 36.8881 113.533 34.5184C115.813 33.026 117.771 31.5118 118.719 30.1832Z" fill="#455A64"/>
<path d="M156.019 79.5384C155.833 79.7277 155.628 79.9315 155.408 80.1426C154.881 80.6522 154.259 81.2346 153.56 81.8243L153.238 82.101C152.386 82.829 151.408 83.6079 150.38 84.4051C150.12 84.6053 149.853 84.8092 149.579 85.013C148.77 85.6245 147.917 86.2433 147.017 86.8585C146.706 87.0733 146.384 87.2917 146.062 87.5064C145.674 87.7685 145.275 88.0306 144.876 88.289C144.478 88.5475 144.071 88.8059 143.661 89.0607C143.252 89.3155 142.845 89.5667 142.428 89.8106C142.011 90.0545 141.598 90.302 141.177 90.5386C132.683 95.3398 127.439 98.0152 123.246 97.9424H122.43C121.994 97.9424 121.529 97.9096 121.039 97.866L120.647 97.8259L120.358 97.7895L120.146 97.764L119.78 97.7058L119.465 97.6512L119.151 97.5893C118.785 97.5056 118.371 97.4073 117.961 97.2872L117.595 97.178C116.884 96.9509 116.188 96.6773 115.513 96.359L115.228 96.2207C114.364 95.8003 113.528 95.3262 112.725 94.8011L112.223 94.4698V99.2273C117.255 102.638 120.64 102.671 123.246 102.722C127.436 102.805 132.68 100.123 141.177 95.3216C147.548 91.7252 153.476 86.9277 156.016 84.3068L156.041 84.2777C156.869 83.4021 157.326 82.2435 157.318 81.0417V77.7875C157.329 78.0423 156.857 78.6721 156.019 79.5384Z" fill="#37474F"/>
<path d="M112.238 94.4443C117.27 97.855 120.655 97.8878 123.26 97.9424C127.447 98.0188 132.694 95.3398 141.191 90.5386C149.689 85.7374 157.329 78.8905 157.329 77.7621C157.329 75.8365 156.232 75.578 156.232 75.578V77.0086C156.232 77.0086 152.488 81.595 142.692 87.6557C132.522 93.9202 127.889 96.2862 122.766 96.2862C117.643 96.2862 113.724 93.3924 113.724 93.3924L112.238 94.4443Z" fill="#455A64"/>
<path d="M129.412 81.3693L132.142 84.1248C132.483 84.4705 132.919 84.7082 133.396 84.8079C133.872 84.9077 134.368 84.865 134.82 84.6854C137.662 83.5162 140.398 82.1085 142.999 80.4775C145.395 79.0441 147.669 77.4176 149.798 75.6144C150.17 75.2881 150.47 74.8887 150.678 74.4413C150.887 73.994 150.999 73.5084 151.01 73.0154L151.097 68.7566C151.098 68.7205 151.087 68.6852 151.066 68.6555C151.045 68.6258 151.016 68.6033 150.982 68.5909C150.948 68.5785 150.911 68.577 150.876 68.5864C150.841 68.5959 150.809 68.6159 150.786 68.6438C149.136 70.7368 146.538 73.0118 142.586 75.4615C137.752 78.4391 133.47 80.2227 129.496 81.0781C129.466 81.0855 129.438 81.1005 129.416 81.1219C129.394 81.1432 129.378 81.1699 129.369 81.1995C129.361 81.229 129.36 81.2603 129.367 81.2901C129.375 81.3199 129.39 81.3472 129.412 81.3693Z" fill="#37474F"/>
<path d="M151.127 78.4755C151.084 78.4339 151.027 78.4106 150.967 78.4106C150.908 78.4106 150.851 78.4339 150.808 78.4755C146.783 82.7562 138.432 87.4191 133.148 89.0862C133.097 89.1027 133.053 89.1371 133.025 89.183C132.998 89.2289 132.987 89.2833 132.997 89.3361C133.006 89.3888 133.034 89.4365 133.076 89.4702C133.118 89.5038 133.171 89.5213 133.225 89.5194C133.247 89.5228 133.269 89.5228 133.291 89.5194C138.63 87.834 147.072 83.1238 151.138 78.7885C151.176 78.7447 151.196 78.688 151.194 78.6299C151.192 78.5717 151.168 78.5166 151.127 78.4755ZM151.068 76.6955C151.025 76.6548 150.968 76.6321 150.909 76.6321C150.85 76.6321 150.793 76.6548 150.75 76.6955C146.724 80.9798 138.377 85.6427 133.089 87.3026C133.033 87.3225 132.987 87.3631 132.961 87.416C132.934 87.4689 132.929 87.53 132.947 87.5865C132.961 87.6338 132.99 87.6751 133.031 87.7035C133.071 87.7319 133.12 87.7458 133.17 87.743H133.232C138.571 86.0577 147.017 81.3475 151.079 77.0086C151.118 76.9651 151.139 76.9082 151.137 76.8498C151.135 76.7915 151.11 76.7361 151.068 76.6955Z" fill="#E0E0E0"/>
<path d="M128.753 82.4249C128.499 82.0972 128.168 81.8361 127.789 81.6642C127.41 81.4923 126.995 81.4148 126.579 81.4385C123.652 81.595 118.895 81.3621 115.824 80.3137C112.267 79.0907 111.605 78.9706 112.165 80.9253C112.725 82.88 114.361 85.5081 117.475 86.196C123.052 87.4336 127.593 87.0805 129.898 86.1341C131.073 85.6573 129.767 83.7281 128.753 82.4249Z" fill="#F16100"/>
<path opacity="0.8" d="M128.753 82.4249C128.499 82.0972 128.168 81.8361 127.789 81.6642C127.41 81.4923 126.995 81.4148 126.579 81.4385C123.652 81.595 118.895 81.3621 115.824 80.3137C112.267 79.0907 111.605 78.9706 112.165 80.9253C112.725 82.88 114.361 85.5081 117.475 86.196C123.052 87.4336 127.593 87.0805 129.898 86.1341C131.073 85.6573 129.767 83.7281 128.753 82.4249Z" fill="white"/>
<path d="M117.489 86.2142C114.371 85.5262 112.75 82.8945 112.179 80.9434C111.638 79.1016 112.198 79.1016 115.239 80.1317C116.337 82.5087 117.888 84.6927 120.069 86.1305C120.435 86.3671 120.801 86.5891 121.167 86.8257C119.931 86.6902 118.703 86.4861 117.489 86.2142Z" fill="white"/>
<path d="M152.009 68.1815C152.02 67.4821 152.213 66.7976 152.568 66.194C153.504 64.509 153.965 62.6035 153.9 60.6794C153.772 58.5172 154.713 58.9431 155.225 59.7949C155.738 60.6466 157.055 63.7334 156.217 66.6818C155.529 69.1388 153.655 71.6541 152.418 73.0337C152.367 73.0787 152.304 73.1085 152.237 73.1199C152.17 73.1312 152.101 73.1236 152.037 73.0978C151.974 73.072 151.919 73.0292 151.879 72.9741C151.839 72.919 151.816 72.8539 151.811 72.7861C151.881 71.625 151.99 69.6266 152.009 68.1815Z" fill="#F16100"/>
<path opacity="0.8" d="M152.009 68.1815C152.02 67.4821 152.213 66.7976 152.568 66.194C153.504 64.509 153.965 62.6035 153.9 60.6794C153.772 58.5172 154.713 58.9431 155.225 59.7949C155.738 60.6466 157.055 63.7334 156.217 66.6818C155.529 69.1388 153.655 71.6541 152.418 73.0337C152.367 73.0787 152.304 73.1085 152.237 73.1199C152.17 73.1312 152.101 73.1236 152.037 73.0978C151.974 73.072 151.919 73.0292 151.879 72.9741C151.839 72.919 151.816 72.8539 151.811 72.7861C151.881 71.625 151.99 69.6266 152.009 68.1815Z" fill="white"/>
<path d="M124.106 89.4102C121.968 88.8605 118.616 88.4456 117.347 89.2973C116.483 89.8652 117.456 91.4377 117.914 91.9545C118.58 92.6868 119.459 93.1955 120.428 93.4106C121.718 93.6532 123.049 93.5783 124.303 93.1922C128.153 92.2057 128.336 90.4949 124.106 89.4102ZM155.829 70.5621L155.767 70.6239C155.092 71.3033 154.541 72.094 154.138 72.9608C153.774 73.7057 153.588 74.5241 153.593 75.3523C153.581 75.5803 153.629 75.8074 153.732 76.0112C153.981 76.4262 154.464 76.2587 154.83 76.0986C155.013 76.0153 155.186 75.9115 155.346 75.7891C155.489 75.688 155.626 75.5786 155.756 75.4615C155.916 75.3262 156.066 75.1803 156.206 75.0247C156.938 74.2421 157.007 70.1362 156.206 70.2017C156.089 70.3109 155.964 70.4419 155.829 70.5621Z" fill="#F0F0F0"/>
<path d="M80.251 61.9024C80.8622 64.8144 84.0971 65.4187 86.516 65.3459C87.8004 65.3095 88.8543 65.0765 89.1764 64.8909C90.1132 64.3558 89.6814 63.242 89.1764 62.5977C88.331 61.5057 84.5252 59.3216 82.1356 59.2379C80.7414 59.1906 79.8229 59.8676 80.251 61.9024Z" fill="#455A64"/>
<path d="M80.251 61.9024C80.8622 64.8144 84.0971 65.4187 86.516 65.3459C87.8004 65.3095 88.8543 65.0765 89.1764 64.8909C90.1132 64.3558 89.6814 63.242 89.1764 62.5977C89.6484 63.4822 87.1564 64.0318 84.9351 63.2383C82.7138 62.4448 81.0488 60.734 82.1466 59.2379C80.7414 59.1906 79.8229 59.8676 80.251 61.9024Z" fill="#37474F"/>
<path d="M80.251 61.9024C80.8622 64.8144 84.0971 65.4187 86.516 65.3459C84.1081 65.2767 82.1869 63.8899 81.4623 62.3902C80.7378 60.8905 81.2867 59.4272 82.1393 59.2379C80.7414 59.1906 79.8229 59.8676 80.251 61.9024Z" fill="#263238"/>
<path d="M93.6848 87.1788L93.6884 88.4019L91.2769 89.7887V88.5621L93.6848 87.1788Z" fill="#263238"/>
<path d="M41.9991 61.4875L91.2769 89.7887V88.562L41.9991 60.2608V61.4875Z" fill="#37474F"/>
<path d="M44.4144 58.8812L41.9991 60.2608L91.2769 88.562L93.6848 87.1788L44.4144 58.8812Z" fill="#455A64"/>
</g>
</g>
<defs>
<clipPath id="clip0_4_193">
<rect width="172" height="119" fill="white"/>
</clipPath>
</defs>
</svg>
