<svg xmlns="http://www.w3.org/2000/svg" width="466.7" height="401.203" viewBox="0 0 466.7 401.203">
  <g id="Ride_a_bicycle-amico" data-name="Ride a bicycle-amico" transform="translate(-16.65 -74.478)">
    <g id="freepik--Floor--inject-4">
      <ellipse id="freepik--floor--inject-4-2" data-name="freepik--floor--inject-4" cx="233.35" cy="134.72" rx="233.35" ry="134.72" transform="translate(16.65 206.24)" fill="#f5f5f5"/>
    </g>
    <g id="freepik--Plants--inject-4">
      <g id="freepik--plants--inject-4-2" data-name="freepik--plants--inject-4">
        <path id="Tracé_241" data-name="Tracé 241" d="M58.28,298.5l8-4.64S71.1,274,69.19,256.12C66.51,231,50,221.53,43.68,223.7s-8.11,9.48,2.3,24.45C52.12,257,59.66,275.37,58.28,298.5Z" fill="#bbddfd"/>
        <g id="Groupe_211" data-name="Groupe 211" opacity="0.15">
          <path id="Tracé_242" data-name="Tracé 242" d="M58.28,298.5l8-4.64S71.1,274,69.19,256.12C66.51,231,50,221.53,43.68,223.7s-8.11,9.48,2.3,24.45C52.12,257,59.66,275.37,58.28,298.5Z"/>
        </g>
        <path id="Tracé_243" data-name="Tracé 243" d="M61.61,288.74h-.07a.56.56,0,0,1-.45-.65C65.5,264.9,57.4,238.85,47.37,228a.56.56,0,0,1,.82-.75c10.21,11,18.47,37.51,14,61a.56.56,0,0,1-.58.49Z" fill="#fff"/>
        <path id="Tracé_244" data-name="Tracé 244" d="M37.24,310.65c-1.27.64-4.64-2.24-5.58-2.95A11.78,11.78,0,0,1,28,303a11,11,0,0,1-.64-6.67,26.151,26.151,0,0,1,1-3.48c.39-1.12.77-2.25,1.16-3.37a8.65,8.65,0,0,0,.67-3.42c-.18-2.36-2.17-4.1-4-5.61-2-1.66-4.08-3.84-3.92-6.65A9.9,9.9,0,0,1,25,268c1.43-1.64,3.1-3.06,4.41-4.8a7,7,0,0,0,1.64-4.3,7.2,7.2,0,0,0-.82-2.78c-.9-1.89-2.13-3.63-2.71-5.63s-.37-4.45,1.24-5.78c1.32-1.1,3.2-1.16,4.9-1a11.17,11.17,0,0,1,4.43,1.82c4.34,2.71,6.63,8.13,11.27,10.28a47.454,47.454,0,0,0,5.67,1.69c1.88.6,3.78,1.68,4.57,3.48,1.57,3.57-1.88,7.69-.84,11.44.92,3.32,4,4.73,5.66,7.77a7,7,0,0,1,.62,4.32,20.55,20.55,0,0,1-2.17,7.13,64.191,64.191,0,0,1-4.29,6.6S37.44,310.55,37.24,310.65Z" fill="#bbddfd"/>
        <path id="Tracé_245" data-name="Tracé 245" d="M49.54,304.24h0a.56.56,0,0,1-.51-.61c2-22-7.14-47-14.36-54.43a.55.55,0,0,1,0-.78.54.54,0,0,1,.78,0c7.36,7.62,16.73,32.95,14.67,55.3a.56.56,0,0,1-.58.52Z" fill="#fff"/>
        <path id="Tracé_246" data-name="Tracé 246" d="M47.35,277.06h-.16a75.058,75.058,0,0,0-15.91-3.39.56.56,0,0,1-.5-.61.54.54,0,0,1,.6-.5A75.879,75.879,0,0,1,47.57,276a.54.54,0,0,1,.33.71A.56.56,0,0,1,47.35,277.06Z" fill="#fff"/>
      </g>
      <g id="freepik--plants--inject-4-3" data-name="freepik--plants--inject-4">
        <path id="Tracé_247" data-name="Tracé 247" d="M433.07,301.77,423,296s-2.47-21.56-.83-38.25c2.31-23.46,17.46-51.69,35.53-45.06s-8.29,30.52-14.15,50.42S433.07,301.77,433.07,301.77Z" fill="#bbddfd"/>
        <path id="Tracé_248" data-name="Tracé 248" d="M433.07,301.77,423,296s-2.47-21.56-.83-38.25c2.31-23.46,17.46-51.69,35.53-45.06s-8.29,30.52-14.15,50.42S433.07,301.77,433.07,301.77Z" opacity="0.15"/>
        <path id="Tracé_249" data-name="Tracé 249" d="M427.78,299.33h0a.62.62,0,0,0,.59-.64c-1.77-52.12,24.18-78.35,24.44-78.6a.63.63,0,0,0,0-.87.6.6,0,0,0-.86,0c-.27.26-26.6,26.86-24.81,79.52a.61.61,0,0,0,.64.59Z" fill="#fff"/>
        <path id="Tracé_250" data-name="Tracé 250" d="M439.4,305.4l-7.16-4.14s-1.22-14.79,6-32.76c6.32-15.65,22-28.63,29.86-25.9s7.69,8.31,3.85,14.18S444.76,276.61,439.4,305.4Z" fill="#bbddfd"/>
        <path id="Tracé_251" data-name="Tracé 251" d="M435.62,303.82h0a.6.6,0,0,0,.6-.61c-.14-33,30.81-55.23,31.12-55.46a.61.61,0,0,0-.7-1c-.32.22-31.78,22.87-31.64,56.46A.62.62,0,0,0,435.62,303.82Z" fill="#fff"/>
      </g>
    </g>
    <g id="freepik--Shadow--inject-4">
      <g id="freepik--shadow--inject-4-2" data-name="freepik--shadow--inject-4">
        <path id="Tracé_252" data-name="Tracé 252" d="M342.09,428.09c-79-35.88-147.88-75.76-207.77-120-6.18-5.13-4.56-10.23,1-13.41s14.74-3,20.61.38L364.07,415.29c5.87,3.39,6.17,8.72.66,11.9S350.5,431.38,342.09,428.09Z" fill="#e0e0e0"/>
        <ellipse id="freepik--shadow--inject-4-3" data-name="freepik--shadow--inject-4" cx="51.38" cy="29.67" rx="51.38" ry="29.67" transform="translate(185.28 331.02)" fill="#e0e0e0"/>
      </g>
    </g>
    <g id="freepik--Character--inject-4">
      <g id="freepik--character--inject-4-2" data-name="freepik--character--inject-4">
        <path id="Tracé_253" data-name="Tracé 253" d="M253.6,305l-9.81-5.66a1.76,1.76,0,0,0-1.75,0l-13.66,7.89a1.76,1.76,0,0,0-.88,1.52v.88a1.78,1.78,0,0,0,.88,1.52l9.82,5.67a1.78,1.78,0,0,0,1.76,0L253.6,309a1.75,1.75,0,0,0,.87-1.52v-.88A1.77,1.77,0,0,0,253.6,305Z" fill="#bbddfd"/>
        <path id="Tracé_254" data-name="Tracé 254" d="M253.6,305l-9.81-5.66a1.76,1.76,0,0,0-1.75,0l-13.66,7.89a1.76,1.76,0,0,0-.88,1.52v.88a1.78,1.78,0,0,0,.88,1.52l9.82,5.67a1.78,1.78,0,0,0,1.76,0L253.6,309a1.75,1.75,0,0,0,.87-1.52v-.88A1.77,1.77,0,0,0,253.6,305Z" opacity="0.2"/>
        <path id="Tracé_255" data-name="Tracé 255" d="M238.26,314a1.65,1.65,0,0,0,1.64,0l14.34-8.31a1.78,1.78,0,0,0-.64-.64l-2.74-1.58-7.07-4.08a1.76,1.76,0,0,0-1.75,0l-1.66,1-12,6.93a1.71,1.71,0,0,0-.64.64Z" fill="#bbddfd"/>
        <path id="Tracé_256" data-name="Tracé 256" d="M234.37,291.28l9.41,4.84,11.99-17.1-13.95-7.62Z" fill="#ffa8a7"/>
        <path id="Tracé_257" data-name="Tracé 257" d="M260.51,319.68a4.06,4.06,0,0,1-1.44,2.65c-.75.62-6,1-11.47-2a25.9,25.9,0,0,1-9.7-9.55c-1.48-2.43-3.58-3.75-6.29-5.23s-5.71-4.58-5.7-6.17,1.76-3.5,1.76-3.5Z" fill="#37474f"/>
        <path id="Tracé_258" data-name="Tracé 258" d="M246.12,291.43l.49.12a1.8,1.8,0,0,1,.76.31,1.56,1.56,0,0,1,.47.79,15.87,15.87,0,0,1,.37,2.93c.27,2.48,2,5.24,4,8,1.37,1.85,2.8,3.47,4.3,5.21s3.83,3.53,4.87,5.26c1.5,2.53,0,6.4-3.19,6.69-2.77.25-9.12-1.07-14.3-5.59-2.82-2.46-4.8-7.65-8.91-10-2.62-1.5-7.41-4.69-8.18-7.58-.22-1.23,2-3.72,3.91-5.89,2.07-2.37,4.82-6.29,5.61-5.63a1.41,1.41,0,0,0,0,1.25,15.864,15.864,0,0,0,.73,1.42,8,8,0,0,1,.48,2.88,1.83,1.83,0,0,0,.38,1.2c.38.39.86.26,1.35.27a2.56,2.56,0,0,1,1.68.65,11.769,11.769,0,0,0,.47-1.74.73.73,0,0,1,.74-.77,9.6,9.6,0,0,1,3.97.22Z" fill="#455a64"/>
        <path id="Tracé_259" data-name="Tracé 259" d="M250.38,300.87a2.79,2.79,0,0,0-1.38-2.29c-1.13-.82-3.74-.94-5.63-.46a1.12,1.12,0,0,0-.65,1.74h0a1.12,1.12,0,0,0,1.22.42,8.61,8.61,0,0,1,6.44.59Z" fill="#f5f5f5"/>
        <path id="Tracé_260" data-name="Tracé 260" d="M253.2,304.83a3.21,3.21,0,0,0-1.8-2.35s-3.28-1.44-6.16-.52a1.11,1.11,0,0,0-.63,1.69h0a1.08,1.08,0,0,0,1.18.4,8.59,8.59,0,0,1,7.41.78Z" fill="#f5f5f5"/>
        <path id="Tracé_261" data-name="Tracé 261" d="M256.52,308.76a3.6,3.6,0,0,0-1.95-2.27,9.64,9.64,0,0,0-5.95-.39,1.1,1.1,0,0,0-.63,1.68h0a1.06,1.06,0,0,0,1.18.4,8.24,8.24,0,0,1,7.35.58Z" fill="#f5f5f5"/>
        <path id="Tracé_262" data-name="Tracé 262" d="M263,197.31s16.05,27.32,20.94,37.36c4.32,8.86,5.71,13.22-6.19,25.27s-26.91,27-26.91,27-7.64.26-9.85-6.67c3.85-10.3,10.93-28.92,20.93-33.37l-19.23-24.84Z" fill="#263238"/>
        <path id="Tracé_263" data-name="Tracé 263" d="M323.51,362.91a1.41,1.41,0,0,1-1.3-.86L313.5,342a1.184,1.184,0,0,1-.07-.2l-16-60.07a1.423,1.423,0,1,1,2.75-.73l16,60,8.66,20a1.42,1.42,0,0,1-.74,1.87A1.46,1.46,0,0,1,323.51,362.91Z" fill="#bbddfd"/>
        <path id="Tracé_264" data-name="Tracé 264" d="M323.51,362.91a1.41,1.41,0,0,1-1.3-.86L313.5,342a1.184,1.184,0,0,1-.07-.2l-16-60.07a1.423,1.423,0,1,1,2.75-.73l16,60,8.66,20a1.42,1.42,0,0,1-.74,1.87A1.46,1.46,0,0,1,323.51,362.91Z" opacity="0.5"/>
        <path id="Tracé_265" data-name="Tracé 265" d="M330.29,310l-2.62-1.52c-6.44-3.72-12.54-5.51-18-5.59h-.48a23.572,23.572,0,0,0-2.81.16,30.73,30.73,0,0,0-21,11.74c-.1.11-.2.23-.29.35s-.35.44-.51.67l-.32.45c-.14.19-.26.38-.39.57-.23.37-.47.74-.69,1.13l-.24.42q-.15.27-.3.57v.06a30.71,30.71,0,0,0-3.71,14.69v5.94c0,26.21,18.39,58.06,41.08,71.15l2.62,1.52c6.44,3.72,12.53,5.51,18,5.59h1.78a3.506,3.506,0,0,0,.91-.08l.45-.05a2.129,2.129,0,0,0,.25,0,30.8,30.8,0,0,0,21.5-12.46c.21-.29.42-.59.62-.89l.08-.1c.23-.35.46-.71.68-1.08a30.64,30.64,0,0,0,4.55-16.1v-6C371.37,354.93,353,323.07,330.29,310Zm-9,92.68c-19.15-11.06-34.68-38-34.68-60.07s15.53-31.08,34.68-20S356,360.52,356,382.64s-15.57,31.08-34.72,20.02Z" fill="#455a64"/>
        <path id="Tracé_266" data-name="Tracé 266" d="M322.59,314.43,320,312.91c-11.22-6.48-21.39-7.15-28.81-3-.19.11-.38.22-.57.35l-.14.08-.67.43c-.21.14-.43.29-.64.45a13.117,13.117,0,0,0-1.24,1l-.59.53a13.747,13.747,0,0,0-1.14,1.15c-.19.2-.37.41-.54.62s-.35.41-.52.63-.35.44-.51.67l-.32.45c-.14.19-.26.38-.39.57-.23.37-.47.74-.69,1.13l-.24.42q-.15.27-.3.57l-.28.57a21.056,21.056,0,0,0-.95,2.16c-.16.4-.32.79-.45,1.2v.05c-.25.74-.48,1.51-.69,2.3-.11.42-.22.85-.32,1.3s-.22,1-.32,1.51a4.629,4.629,0,0,1-.12.73c-.08.42-.13.85-.19,1.27s-.12,1-.17,1.45v.23c0,.42-.07.84-.1,1.27v.51c0,.46-.06.94-.07,1.42s0,1.14,0,1.72v3c0,26.21,18.39,58.06,41.08,71.15l2.62,1.52c6.59,3.8,12.81,5.61,18.33,5.61h1.41a3.506,3.506,0,0,0,.91-.08l.45-.05a9.049,9.049,0,0,0,.91-.12,3.441,3.441,0,0,0,.79-.14l.77-.16c.49-.12,1-.25,1.44-.4l.6-.19c.23-.08.45-.15.66-.24s.37-.14.55-.23c.39-.16.78-.33,1.16-.53.19-.08.38-.19.57-.29l.15-.09a.941.941,0,0,0,.22-.12l.36-.2c7.3-4.35,11.79-13.49,11.79-26.45v-3C363.66,359.38,345.27,327.52,322.59,314.43Zm-1.31,88.23c-19.15-11.06-34.68-38-34.68-60.07s15.53-31.08,34.68-20S356,360.52,356,382.64,340.43,413.72,321.28,402.66Z" fill="#37474f"/>
        <path id="Tracé_267" data-name="Tracé 267" d="M347.07,397c-5.48,6.53-15,7.46-25.79,1.22-17-9.83-30.83-33.73-30.83-53.4,0-8.78,2.76-15.23,7.33-18.81-3.19,3.77-5,9.39-5,16.59,0,19.66,13.81,43.57,30.83,53.4C333,401.43,341.42,401.42,347.07,397Z" fill="#bbddfd"/>
        <path id="Tracé_268" data-name="Tracé 268" d="M347.07,397c-5.48,6.53-15,7.46-25.79,1.22-17-9.83-30.83-33.73-30.83-53.4,0-8.78,2.76-15.23,7.33-18.81-3.19,3.77-5,9.39-5,16.59,0,19.66,13.81,43.57,30.83,53.4C333,401.43,341.42,401.42,347.07,397Z" opacity="0.2"/>
        <path id="Tracé_269" data-name="Tracé 269" d="M321.28,322.57c-19.16-11.06-34.68-2.09-34.68,20s15.52,49,34.68,60.07,34.68,2.1,34.68-20S340.43,333.63,321.28,322.57Zm0,75.64c-17-9.83-30.83-33.73-30.83-53.39s13.8-27.63,30.83-17.8,30.82,33.73,30.82,53.39-13.8,27.59-30.82,17.8Z" fill="#bbddfd"/>
        <path id="Tracé_270" data-name="Tracé 270" d="M351.06,370.63c-.07-.34-.14-.69-.22-1L324,362.39l24-2.14-.36-.92-24.25,2.17,19.74-11.4c-.15-.27-.32-.54-.48-.82l-19.73,11.4,13.93-19.82-.62-.77-13.8,19.61,7.12-26.59c-.26-.24-.52-.48-.79-.71l-7,26.15V327.31l-.47-.29-.48-.26v30.71l-6.89-33.67-1-.28,6.79,33.22-13.15-33.9c-.33,0-.66.05-1,.08l13.07,33.66L300.1,324.53c-.28.15-.56.3-.83.46l18.51,32.07-22.73-28.29c-.2.26-.39.53-.58.8l22.91,28.5-25.63-22.73c-.1.33-.2.67-.29,1l26,23.06-27-15.58v1.09l27.47,15.86-26.61-7.13c.06.34.13.69.2,1l27.06,7.25-24.33,2.18c.11.31.23.61.35.92l24.59-2.2-20.12,11.62.46.83,20.13-11.63-14.26,20.3.61.77,14.13-20.09L312.8,392l.8.71,7.2-26.9v32.16l.48.29.47.26V366.85l7.09,34.64,1,.27-7-34.19,13.5,34.79a8.634,8.634,0,0,0,1-.09L324,367.73l18.91,32.75c.27-.15.54-.31.81-.49l-18.9-32.73L347.86,396c.19-.26.38-.53.56-.81l-23.25-28.92L351,389.16c.1-.34.18-.68.26-1L325.1,364.91l27,15.59v-1.09l-27.44-15.85Z" fill="#ebebeb"/>
        <path id="Tracé_271" data-name="Tracé 271" d="M323.06,348.26c-3.28-1.9-6.23-2-8.34-.69-.43.27-1,.51-1.52.84-.16.09-.3.19-.45.29l-.08.05h0a6.467,6.467,0,0,0-.57.47l-.12.12c-.16.16-.31.33-.46.51l-.15.2a4.929,4.929,0,0,0-.36.53l-.17.31c-.09.18-.18.35-.26.54a3.207,3.207,0,0,0-.17.43c-.07.17-.13.34-.19.53s-.1.37-.15.57-.08.32-.11.5-.08.5-.11.75l-.06.43c0,.41-.06.84-.06,1.28,0,7.37,5.18,16.34,11.57,20,.4.23.79.43,1.18.61.23.11.46.19.69.28s.31.13.47.18a4.614,4.614,0,0,0,.46.13,6.583,6.583,0,0,0,.66.18h.26a8.306,8.306,0,0,0,.83.12h.05a6.08,6.08,0,0,0,3.77-.89c.56-.33,1.06-.57,1.69-.95,2-1.22,3.29-3.78,3.29-7.4C334.63,360.91,329.45,352,323.06,348.26Zm-3.3,22.21c-2-1.54-4.76-6.22-5.85-8.83a22,22,0,0,0,2,1.24c3,1.55,2.93-.55,4.15.91s1,5,0,6.9a1.4,1.4,0,0,1-.3-.22Zm5.86-13.69a2.781,2.781,0,0,0-.49.22l-1.77,1a2.21,2.21,0,0,0-.89.88c-1.49-1.52-3.22-6.36-3.08-8.64,2.59.89,6.9,4.48,7.56,5.87a1.5,1.5,0,0,1,.12.33A7.341,7.341,0,0,0,325.62,356.78Zm-8.77-1.53c1,3.49,2.43,4,2.53,5.17-2.28-.37-6-2.58-6.22-4.77a8.75,8.75,0,0,1,2-5.87C316.12,350.21,316.06,352.39,316.85,355.25Zm6.53,18.33c-1.2-1.1.14-2.18.75-4.45a6,6,0,0,0,0-3.31c2.37,1.86,5.92,6.77,5,8.22l-.11.15C327,374.71,324.23,374.36,323.38,373.58ZM329,366c-2.52-3.36-3.51-2.2-4.12-4a2.31,2.31,0,0,1,.82-2.41,3,3,0,0,1,3.64,1.23c1.23,2.18,1.91,6.15,2,8.62A39.471,39.471,0,0,0,329,366Z" fill="#e0e0e0"/>
        <path id="Tracé_272" data-name="Tracé 272" d="M323.06,348.26c-3.28-1.9-6.23-2-8.34-.69-.43.27-1,.51-1.52.84-.16.09-.3.19-.45.29l-.08.05h0a6.467,6.467,0,0,0-.57.47l-.12.12c-.16.16-.31.33-.46.51l-.15.2a4.929,4.929,0,0,0-.36.53l-.17.31c-.09.18-.18.35-.26.54a3.207,3.207,0,0,0-.17.43c-.07.17-.13.34-.19.53s-.1.37-.15.57-.08.32-.11.5-.08.5-.11.75l-.06.43c0,.41-.06.84-.06,1.28,0,7.37,5.18,16.34,11.57,20,.4.23.79.43,1.18.61.23.11.46.19.69.28s.31.13.47.18a4.614,4.614,0,0,0,.46.13,6.583,6.583,0,0,0,.66.18h.26a8.306,8.306,0,0,0,.83.12h.05a6.08,6.08,0,0,0,3.77-.89c.56-.33,1.06-.57,1.69-.95,2-1.22,3.29-3.78,3.29-7.4C334.63,360.91,329.45,352,323.06,348.26Zm-3.3,22.21c-2-1.54-4.76-6.22-5.85-8.83a22,22,0,0,0,2,1.24c3,1.55,2.93-.55,4.15.91s1,5,0,6.9a1.4,1.4,0,0,1-.3-.22Zm5.86-13.69a2.781,2.781,0,0,0-.49.22l-1.77,1a2.21,2.21,0,0,0-.89.88c-1.49-1.52-3.22-6.36-3.08-8.64,2.59.89,6.9,4.48,7.56,5.87a1.5,1.5,0,0,1,.12.33A7.341,7.341,0,0,0,325.62,356.78Zm-8.77-1.53c1,3.49,2.43,4,2.53,5.17-2.28-.37-6-2.58-6.22-4.77a8.75,8.75,0,0,1,2-5.87C316.12,350.21,316.06,352.39,316.85,355.25Zm6.53,18.33c-1.2-1.1.14-2.18.75-4.45a6,6,0,0,0,0-3.31c2.37,1.86,5.92,6.77,5,8.22l-.11.15C327,374.71,324.23,374.36,323.38,373.58ZM329,366c-2.52-3.36-3.51-2.2-4.12-4a2.31,2.31,0,0,1,.82-2.41,3,3,0,0,1,3.64,1.23c1.23,2.18,1.91,6.15,2,8.62A39.471,39.471,0,0,0,329,366Z" opacity="0.2"/>
        <path id="Tracé_273" data-name="Tracé 273" d="M321.28,349.26c-6.39-3.68-11.57-.69-11.57,6.68s5.18,16.34,11.57,20,11.55.69,11.55-6.68S327.66,353,321.28,349.26Zm-2.87.79c2.29,0,7.78,4.49,8.54,6.07s-1.25,1-3.09,1.66c-2.34.83-1.23,3.09-2.61,2.53-2.01-.84-5.11-10.31-2.84-10.26ZM315,349.7c1.18.2,1,2.5,1.88,5.55,1.07,3.86,2.75,4.11,2.51,5.55-.35,2.11-7.62-1-8-4.16S313.79,349.49,315,349.7Zm3,21.77c-2.5-1.94-6.29-8.91-6.32-10.37s1.9.55,4.26,1.78c3,1.55,2.93-.55,4.15.91C321.89,365.92,320.49,373.42,318,371.47ZM329.1,374c-1.19,1.9-6.28,1.64-7.49.54s.14-2.17.76-4.46c.78-2.89-.94-4.45.06-5C323.88,364.35,330.3,372.14,329.1,374Zm-1.84-7c-2.51-3.34-3.51-2.2-4.11-4-.9-2.62,4.46-5.3,6.22-2.18s2.4,9.93,1.69,10.71S329.25,369.61,327.26,367Z" fill="#e0e0e0"/>
        <path id="Tracé_274" data-name="Tracé 274" d="M321.28,366.7c2,1.13,3.53.21,3.53-2a7.82,7.82,0,0,0-3.53-6.13c-2-1.13-3.54-.21-3.54,2a7.81,7.81,0,0,0,3.54,6.13Z" fill="#455a64"/>
        <path id="Tracé_275" data-name="Tracé 275" d="M180,223.23l-2.62-1.52c-6.44-3.72-12.53-5.51-18-5.59h-.48a23.291,23.291,0,0,0-2.8.16,30.72,30.72,0,0,0-21,11.73l-.29.36c-.18.22-.35.44-.51.67l-.32.45c-.14.19-.26.38-.39.57-.23.37-.47.74-.69,1.13l-.24.42-.3.57v.06a30.68,30.68,0,0,0-3.71,14.69v5.94c0,26.2,18.39,58.06,41.08,71.15l2.62,1.52c6.44,3.72,12.53,5.51,18,5.59h1.78a3.506,3.506,0,0,0,.91-.08l.45-.05a1.9,1.9,0,0,0,.25,0,30.8,30.8,0,0,0,21.5-12.46l.63-.89.07-.11c.23-.34.46-.7.69-1.07a30.72,30.72,0,0,0,4.54-16.1v-6C221.11,268.18,202.72,236.32,180,223.23Zm-9,92.68c-19.15-11.06-34.68-38-34.68-60.07s15.53-31.08,34.68-20,34.68,37.95,34.68,60.07S190.17,327,171,315.91Z" fill="#455a64"/>
        <path id="Tracé_276" data-name="Tracé 276" d="M172.33,227.68l-2.62-1.52c-11.22-6.48-21.39-7.15-28.81-3-.19.11-.38.22-.57.35l-.14.08-.67.43c-.21.14-.43.29-.64.45a14.529,14.529,0,0,0-1.24,1l-.59.53a13.744,13.744,0,0,0-1.14,1.15c-.19.2-.37.41-.54.62s-.35.41-.52.63-.35.44-.51.67l-.32.45c-.14.19-.26.38-.39.57-.23.37-.47.74-.69,1.13l-.24.42-.3.57-.28.56a22.238,22.238,0,0,0-1,2.17c-.16.4-.32.79-.45,1.2h0c-.25.74-.48,1.51-.69,2.29-.11.43-.22.86-.32,1.3s-.22,1-.32,1.52a4.63,4.63,0,0,1-.12.73c-.08.42-.13.85-.19,1.27s-.12.95-.17,1.45v.23c0,.42-.07.84-.1,1.26v.52c0,.46-.06.94-.07,1.42s0,1.14,0,1.72v3c0,26.2,18.39,58.06,41.08,71.15l2.62,1.52c6.59,3.8,12.81,5.6,18.34,5.6h1.4a3.506,3.506,0,0,0,.91-.08l.45-.05a5.531,5.531,0,0,0,.91-.12l.79-.14.77-.16c.49-.12,1-.25,1.44-.4l.6-.19c.23-.08.45-.15.66-.24a5.311,5.311,0,0,0,.55-.23c.39-.16.78-.33,1.16-.53.19-.08.38-.19.57-.29l.15-.09a.94.94,0,0,0,.22-.12l.36-.2c7.3-4.35,11.79-13.49,11.79-26.45v-3C213.4,272.62,195,240.77,172.33,227.68ZM171,315.91c-19.15-11.06-34.68-38-34.68-60.07s15.53-31.08,34.68-20,34.68,37.95,34.68,60.07S190.17,327,171,315.91Z" fill="#37474f"/>
        <path id="Tracé_277" data-name="Tracé 277" d="M196.81,310.24c-5.48,6.52-15,7.45-25.79,1.22-17-9.83-30.83-33.73-30.83-53.4,0-8.78,2.76-15.23,7.33-18.81-3.19,3.77-5,9.39-5,16.59,0,19.66,13.81,43.56,30.83,53.4C182.72,314.68,191.16,314.67,196.81,310.24Z" fill="#bbddfd"/>
        <path id="Tracé_278" data-name="Tracé 278" d="M196.81,310.24c-5.48,6.52-15,7.45-25.79,1.22-17-9.83-30.83-33.73-30.83-53.4,0-8.78,2.76-15.23,7.33-18.81-3.19,3.77-5,9.39-5,16.59,0,19.66,13.81,43.56,30.83,53.4C182.72,314.68,191.16,314.67,196.81,310.24Z" opacity="0.2"/>
        <path id="Tracé_279" data-name="Tracé 279" d="M171,235.82c-19.16-11.06-34.68-2.1-34.68,20s15.52,49,34.68,60.07,34.68,2.09,34.68-20S190.17,246.88,171,235.82Zm0,75.64c-17-9.83-30.83-33.73-30.83-53.39S154,230.44,171,240.27s30.82,33.73,30.82,53.39S188,321.29,171,311.46Z" fill="#bbddfd"/>
        <path id="Tracé_280" data-name="Tracé 280" d="M200.8,283.88c-.07-.35-.14-.69-.22-1l-26.85-7.2,24-2.14c-.12-.31-.23-.61-.36-.92l-24.24,2.16,19.73-11.39c-.15-.27-.32-.54-.48-.82l-19.73,11.39,13.93-19.81-.62-.77L172.17,273l7.12-26.59c-.26-.24-.52-.48-.79-.71l-7,26.15V240.56l-.47-.29-.48-.26v30.71l-6.89-33.67c-.34-.11-.68-.2-1-.28L169.42,270l-13.15-33.9a4.263,4.263,0,0,0-1,.08l13.06,33.66-18.51-32c-.28.15-.56.3-.83.46l18.51,32.06L144.79,242c-.2.26-.39.53-.58.8l22.91,28.5-25.63-22.73c-.1.33-.2.67-.29,1l26,23.06-27-15.58v1.09L167.66,274l-26.61-7.13c.06.34.13.69.2,1l27.06,7.25L144,277.35c.11.31.23.61.35.92l24.59-2.2L148.8,287.69l.46.83,20.13-11.63-14.26,20.3.61.77,14.13-20.09-7.33,27.33.8.71,7.2-26.9v32.16l.48.29.47.26V280.09l7.09,34.65,1,.27-7-34.19,13.5,34.79a8.633,8.633,0,0,0,1-.09L173.69,281l18.91,32.75c.27-.15.54-.32.81-.49l-18.9-32.73,23.09,28.72c.19-.26.38-.53.56-.81L174.91,279.5l25.84,22.91c.1-.34.18-.68.26-1L174.84,278.2l27,15.59V292.7l-27.46-15.9Z" fill="#ebebeb"/>
        <path id="Tracé_281" data-name="Tracé 281" d="M172.8,261.51c-3.28-1.9-6.23-2-8.34-.7-.43.28-1,.52-1.52.85-.16.09-.3.19-.45.29l-.08.05h0a6.474,6.474,0,0,0-.57.47l-.12.12c-.16.16-.31.32-.46.5l-.15.21a4.935,4.935,0,0,0-.36.53l-.17.31c-.09.18-.18.35-.26.54a2.753,2.753,0,0,0-.17.43c-.07.17-.13.34-.19.53a5.268,5.268,0,0,0-.14.57c-.04.2-.09.32-.12.5s-.08.5-.11.75l-.06.43c0,.41-.06.84-.06,1.28,0,7.37,5.18,16.34,11.57,20,.4.23.79.43,1.18.61a6.551,6.551,0,0,0,.69.27,4.619,4.619,0,0,0,.47.19,4.122,4.122,0,0,0,.47.13,5.788,5.788,0,0,0,.65.18h.26a8.3,8.3,0,0,0,.83.12h.05a6,6,0,0,0,3.77-.88c.56-.33,1.06-.57,1.69-.95,2-1.22,3.29-3.78,3.29-7.4C184.37,274.16,179.19,265.2,172.8,261.51Zm-3.3,22.21c-2-1.54-4.76-6.22-5.85-8.83a22,22,0,0,0,2,1.24c3,1.55,2.93-.55,4.15.91s1,5,0,6.9a1.739,1.739,0,0,1-.3-.22ZM175.36,270a2.782,2.782,0,0,0-.49.22l-1.77,1a2.21,2.21,0,0,0-.89.88c-1.49-1.52-3.21-6.36-3.08-8.64,2.59.89,6.9,4.48,7.56,5.87a1.5,1.5,0,0,1,.12.33,7.5,7.5,0,0,0-1.45.34Zm-8.77-1.53c1,3.49,2.43,4,2.53,5.17-2.28-.37-6-2.58-6.22-4.77a8.75,8.75,0,0,1,2-5.87c.96.45.9,2.64,1.69,5.5Zm6.53,18.33c-1.2-1.1.14-2.18.75-4.45a6.08,6.08,0,0,0,0-3.32c2.37,1.87,5.92,6.78,5,8.23l-.11.15c-2.02.59-4.76.2-5.64-.58Zm5.65-7.6c-2.51-3.36-3.51-2.2-4.12-4a2.31,2.31,0,0,1,.82-2.41,3,3,0,0,1,3.64,1.23c1.23,2.18,1.91,6.15,2,8.62-.63-.87-1.38-2.14-2.34-3.41Z" fill="#e0e0e0"/>
        <path id="Tracé_282" data-name="Tracé 282" d="M172.8,261.51c-3.28-1.9-6.23-2-8.34-.7-.43.28-1,.52-1.52.85-.16.09-.3.19-.45.29l-.08.05h0a6.474,6.474,0,0,0-.57.47l-.12.12c-.16.16-.31.32-.46.5l-.15.21a4.935,4.935,0,0,0-.36.53l-.17.31c-.09.18-.18.35-.26.54a2.753,2.753,0,0,0-.17.43c-.07.17-.13.34-.19.53a5.268,5.268,0,0,0-.14.57c-.04.2-.09.32-.12.5s-.08.5-.11.75l-.06.43c0,.41-.06.84-.06,1.28,0,7.37,5.18,16.34,11.57,20,.4.23.79.43,1.18.61a6.551,6.551,0,0,0,.69.27,4.619,4.619,0,0,0,.47.19,4.122,4.122,0,0,0,.47.13,5.788,5.788,0,0,0,.65.18h.26a8.3,8.3,0,0,0,.83.12h.05a6,6,0,0,0,3.77-.88c.56-.33,1.06-.57,1.69-.95,2-1.22,3.29-3.78,3.29-7.4C184.37,274.16,179.19,265.2,172.8,261.51Zm-3.3,22.21c-2-1.54-4.76-6.22-5.85-8.83a22,22,0,0,0,2,1.24c3,1.55,2.93-.55,4.15.91s1,5,0,6.9a1.739,1.739,0,0,1-.3-.22ZM175.36,270a2.782,2.782,0,0,0-.49.22l-1.77,1a2.21,2.21,0,0,0-.89.88c-1.49-1.52-3.21-6.36-3.08-8.64,2.59.89,6.9,4.48,7.56,5.87a1.5,1.5,0,0,1,.12.33,7.5,7.5,0,0,0-1.45.34Zm-8.77-1.53c1,3.49,2.43,4,2.53,5.17-2.28-.37-6-2.58-6.22-4.77a8.75,8.75,0,0,1,2-5.87c.96.45.9,2.64,1.69,5.5Zm6.53,18.33c-1.2-1.1.14-2.18.75-4.45a6.08,6.08,0,0,0,0-3.32c2.37,1.87,5.92,6.78,5,8.23l-.11.15c-2.02.59-4.76.2-5.64-.58Zm5.65-7.6c-2.51-3.36-3.51-2.2-4.12-4a2.31,2.31,0,0,1,.82-2.41,3,3,0,0,1,3.64,1.23c1.23,2.18,1.91,6.15,2,8.62-.63-.87-1.38-2.14-2.34-3.41Z" opacity="0.2"/>
        <path id="Tracé_283" data-name="Tracé 283" d="M171,262.51c-6.39-3.68-11.57-.69-11.57,6.68s5.18,16.34,11.57,20,11.55.69,11.55-6.68S177.4,266.2,171,262.51Zm-2.87.79c2.29,0,7.78,4.49,8.54,6.07s-1.25,1-3.09,1.66c-2.34.83-1.23,3.09-2.61,2.52-1.97-.83-5.09-10.29-2.82-10.25Zm-3.44-.35c1.18.2,1,2.5,1.88,5.55,1.07,3.86,2.75,4.11,2.51,5.55-.35,2.11-7.62-1.05-8-4.16s2.45-7.15,3.63-6.89Zm3,21.77c-2.5-1.94-6.29-8.91-6.32-10.37s1.9.55,4.26,1.78c3,1.55,2.93-.55,4.15.91,1.85,2.13.45,9.63-2.05,7.68Zm11.11,2.57c-1.19,1.9-6.28,1.64-7.49.54s.14-2.17.76-4.46c.78-2.89-.94-4.45.06-5,1.49-.77,7.87,7.02,6.71,8.92Zm-1.8-7.07c-2.51-3.35-3.51-2.2-4.11-4-.9-2.62,4.46-5.3,6.22-2.18s2.4,9.93,1.69,10.71S179,282.86,177,280.22Z" fill="#e0e0e0"/>
        <path id="Tracé_284" data-name="Tracé 284" d="M171,280c1.95,1.13,3.53.21,3.53-2a7.82,7.82,0,0,0-3.53-6.13c-2-1.13-3.54-.21-3.54,2A7.81,7.81,0,0,0,171,280Z" fill="#455a64"/>
        <path id="Tracé_285" data-name="Tracé 285" d="M300,280.5a1.42,1.42,0,0,0-2-.28l-3.64,2.72-.65-2.64-60.39,45.39s-1.16.62-1.23.69l-60.13-51.61a1.422,1.422,0,1,0-1.85,2.16l62.33,53.5a3.431,3.431,0,0,0,.48.33,2.48,2.48,0,0,0,1.26.36,2.77,2.77,0,0,0,1.69-.65h0L295.05,286l4.61-3.45a1.43,1.43,0,0,0,.34-2.05Z" fill="#bbddfd"/>
        <path id="Tracé_286" data-name="Tracé 286" d="M244.13,298.09a78.749,78.749,0,0,1-17.3-2h-.14L170.54,277.2a1.42,1.42,0,0,1,.09-2.72l50.09-13.35c.76-.21,1.49,2.55.73,2.75L175.93,276l51.59,17.33c17.12,3.86,33.51,1.81,45-5.63,9.93-6.43,16.39-16.73,19.19-30.63a1.423,1.423,0,1,1,2.79.56c-3,14.68-9.83,25.6-20.43,32.46C265.93,295.37,255.5,298.09,244.13,298.09Z" fill="#bbddfd"/>
        <path id="Tracé_287" data-name="Tracé 287" d="M233.59,331a1.41,1.41,0,0,1-1.39-1.15L209,208.89a1.43,1.43,0,0,1,2.8-.54L235,329.26a1.42,1.42,0,0,1-1.13,1.67,1.232,1.232,0,0,1-.28.07Z" fill="#bbddfd"/>
        <path id="Tracé_288" data-name="Tracé 288" d="M268.39,305.59a1.43,1.43,0,0,1-1.34-.93l-4.07-11a1.43,1.43,0,0,1,.85-1.83,1.41,1.41,0,0,1,1.82.84l4.07,11a1.43,1.43,0,0,1-1.33,1.92Z" fill="#bbddfd"/>
        <path id="Tracé_289" data-name="Tracé 289" d="M321.28,364.31a1.42,1.42,0,0,1-1.07-.49L306.27,348a1.36,1.36,0,0,1-.3-.57l-16-60.07a1.423,1.423,0,1,1,2.75-.73l15.91,59.74,13.72,15.59a1.43,1.43,0,0,1-1.07,2.37Z" fill="#bbddfd"/>
        <path id="Tracé_290" data-name="Tracé 290" d="M292.84,284.48l-3.32-45.09c-.08-1,3.71-1.32,3.79-.28l3.32,45.09C296.7,285.25,292.92,285.48,292.84,284.48Z" fill="#bbddfd"/>
        <g id="Groupe_212" data-name="Groupe 212" opacity="0.4">
          <path id="Tracé_291" data-name="Tracé 291" d="M300,280.5a1.42,1.42,0,0,0-2-.28l-3.64,2.72-.65-2.64-60.39,45.39s-1.16.62-1.23.69l-60.13-51.61a1.422,1.422,0,1,0-1.85,2.16l62.33,53.5a3.431,3.431,0,0,0,.48.33,2.48,2.48,0,0,0,1.26.36,2.77,2.77,0,0,0,1.69-.65h0L295.05,286l4.61-3.45a1.43,1.43,0,0,0,.34-2.05Z"/>
          <path id="Tracé_292" data-name="Tracé 292" d="M244.13,298.09a78.749,78.749,0,0,1-17.3-2h-.14L170.54,277.2a1.42,1.42,0,0,1,.09-2.72l50.09-13.35c.76-.21,1.49,2.55.73,2.75L175.93,276l51.59,17.33c17.12,3.86,33.51,1.81,45-5.63,9.93-6.43,16.39-16.73,19.19-30.63a1.423,1.423,0,1,1,2.79.56c-3,14.68-9.83,25.6-20.43,32.46C265.93,295.37,255.5,298.09,244.13,298.09Z"/>
          <path id="Tracé_293" data-name="Tracé 293" d="M233.59,331a1.41,1.41,0,0,1-1.39-1.15L209,208.89a1.43,1.43,0,0,1,2.8-.54L235,329.26a1.42,1.42,0,0,1-1.13,1.67,1.232,1.232,0,0,1-.28.07Z"/>
          <path id="Tracé_294" data-name="Tracé 294" d="M268.39,305.59a1.43,1.43,0,0,1-1.34-.93l-4.07-11a1.43,1.43,0,0,1,.85-1.83,1.41,1.41,0,0,1,1.82.84l4.07,11a1.43,1.43,0,0,1-1.33,1.92Z"/>
          <path id="Tracé_295" data-name="Tracé 295" d="M321.28,364.31a1.42,1.42,0,0,1-1.07-.49L306.27,348a1.36,1.36,0,0,1-.3-.57l-16-60.07a1.423,1.423,0,1,1,2.75-.73l15.91,59.74,13.72,15.59a1.43,1.43,0,0,1-1.07,2.37Z"/>
          <path id="Tracé_296" data-name="Tracé 296" d="M292.84,284.48l-3.32-45.09c-.08-1,3.71-1.32,3.79-.28l3.32,45.09C296.7,285.25,292.92,285.48,292.84,284.48Z"/>
        </g>
        <path id="Tracé_297" data-name="Tracé 297" d="M292.15,275s.15,3.26.08,5.11-3.36,4.27-2.31,7.63,2.44,8.55,2.44,8.55a2,2,0,0,0,2.65-1.1l-1.37-5.16a3.87,3.87,0,0,1,1.42-4.11l.56-.42a2,2,0,0,1,3.12,1.07l1.49,5.59a2.08,2.08,0,0,0,2.53-1.57s-1.86-7.39-2.69-10.1c-.65-2.14-3.83-1.26-4-4.06l-.24-3.15C295.93,274.74,292.92,276.23,292.15,275Z" fill="#37474f"/>
        <path id="Tracé_298" data-name="Tracé 298" d="M293.31,239.11c-.08-1-3.87-.76-3.79.28l1,13.3a9.2,9.2,0,0,0,3.93,1.68Z" opacity="0.15"/>
        <path id="Tracé_299" data-name="Tracé 299" d="M235.66,315c-3.28-1.89-6.23-2-8.34-.69-.43.28-1,.52-1.52.85a4.3,4.3,0,0,0-.45.29l-.08.05h0a5.075,5.075,0,0,0-.57.47l-.12.11c-.16.16-.31.33-.46.51l-.15.21a4.932,4.932,0,0,0-.36.53l-.17.31-.27.53c-.06.14-.11.29-.16.44s-.13.34-.19.52-.1.38-.15.57-.08.33-.11.5-.08.5-.11.76-.05.28-.06.42c0,.42-.06.84-.06,1.29,0,7.37,5.18,16.33,11.57,20,.4.23.79.44,1.18.62l.69.27c.15.06.31.14.47.19l.46.13.66.18h.26a8.3,8.3,0,0,0,.83.12h0a6,6,0,0,0,3.77-.88c.56-.33,1.06-.57,1.69-1,2-1.22,3.29-3.79,3.29-7.4C247.23,327.63,242.05,318.66,235.66,315Zm-3.3,22.22c-2-1.55-4.76-6.22-5.85-8.83a22,22,0,0,0,2,1.23c3,1.56,2.93-.55,4.15.91s1,5.05,0,6.9a1.469,1.469,0,0,1-.3-.24Zm5.86-13.7a2.78,2.78,0,0,0-.49.23l-1.77,1a2.23,2.23,0,0,0-.89.89c-1.49-1.52-3.22-6.36-3.08-8.64,2.59.88,6.9,4.48,7.56,5.87a1.34,1.34,0,0,1,.12.33,7.294,7.294,0,0,0-1.45.29ZM229.45,322c1,3.49,2.43,4,2.52,5.16-2.27-.36-6-2.57-6.21-4.77a8.74,8.74,0,0,1,2-5.86C228.72,316.92,228.65,319.11,229.45,322ZM236,340.29c-1.2-1.1.14-2.17.75-4.45a6.14,6.14,0,0,0,0-3.31c2.37,1.87,5.92,6.77,5,8.23a1.334,1.334,0,0,1-.11.14C239.6,341.42,236.83,341.07,236,340.29Zm5.65-7.6c-2.52-3.35-3.51-2.2-4.12-4a2.31,2.31,0,0,1,.82-2.41,3,3,0,0,1,3.64,1.22c1.23,2.18,1.91,6.16,2,8.62-.66-.88-1.4-2.12-2.36-3.43Z" fill="#e0e0e0"/>
        <path id="Tracé_300" data-name="Tracé 300" d="M235.66,315c-3.28-1.89-6.23-2-8.34-.69-.43.28-1,.52-1.52.85a4.3,4.3,0,0,0-.45.29l-.08.05h0a5.075,5.075,0,0,0-.57.47l-.12.11c-.16.16-.31.33-.46.51l-.15.21a4.932,4.932,0,0,0-.36.53l-.17.31-.27.53c-.06.14-.11.29-.16.44s-.13.34-.19.52-.1.38-.15.57-.08.33-.11.5-.08.5-.11.76-.05.28-.06.42c0,.42-.06.84-.06,1.29,0,7.37,5.18,16.33,11.57,20,.4.23.79.44,1.18.62l.69.27c.15.06.31.14.47.19l.46.13.66.18h.26a8.3,8.3,0,0,0,.83.12h0a6,6,0,0,0,3.77-.88c.56-.33,1.06-.57,1.69-1,2-1.22,3.29-3.79,3.29-7.4C247.23,327.63,242.05,318.66,235.66,315Zm-3.3,22.22c-2-1.55-4.76-6.22-5.85-8.83a22,22,0,0,0,2,1.23c3,1.56,2.93-.55,4.15.91s1,5.05,0,6.9a1.469,1.469,0,0,1-.3-.24Zm5.86-13.7a2.78,2.78,0,0,0-.49.23l-1.77,1a2.23,2.23,0,0,0-.89.89c-1.49-1.52-3.22-6.36-3.08-8.64,2.59.88,6.9,4.48,7.56,5.87a1.34,1.34,0,0,1,.12.33,7.294,7.294,0,0,0-1.45.29ZM229.45,322c1,3.49,2.43,4,2.52,5.16-2.27-.36-6-2.57-6.21-4.77a8.74,8.74,0,0,1,2-5.86C228.72,316.92,228.65,319.11,229.45,322ZM236,340.29c-1.2-1.1.14-2.17.75-4.45a6.14,6.14,0,0,0,0-3.31c2.37,1.87,5.92,6.77,5,8.23a1.334,1.334,0,0,1-.11.14C239.6,341.42,236.83,341.07,236,340.29Zm5.65-7.6c-2.52-3.35-3.51-2.2-4.12-4a2.31,2.31,0,0,1,.82-2.41,3,3,0,0,1,3.64,1.22c1.23,2.18,1.91,6.16,2,8.62-.66-.88-1.4-2.12-2.36-3.43Z" opacity="0.2"/>
        <path id="Tracé_301" data-name="Tracé 301" d="M233.88,316c-6.39-3.68-11.57-.69-11.57,6.68s5.18,16.33,11.57,20,11.55.7,11.55-6.67S240.26,319.67,233.88,316Zm-2.87.79c2.29,0,7.78,4.48,8.54,6.07s-1.25,1-3.09,1.66c-2.35.82-1.24,3.09-2.61,2.52-2.01-.85-5.11-10.31-2.85-10.27Zm-3.44-.35c1.18.2,1,2.5,1.88,5.55,1.07,3.86,2.75,4.1,2.51,5.54-.35,2.12-7.63-1-8-4.15s2.43-7.17,3.61-6.96Zm3,21.77c-2.5-1.95-6.29-8.91-6.32-10.37s1.9.55,4.26,1.77c3,1.56,2.93-.55,4.15.91,1.83,2.12.43,9.62-2.07,7.67Zm11.11,2.57c-1.19,1.9-6.29,1.64-7.49.54s.14-2.17.76-4.46c.78-2.89-.94-4.45.06-5,1.47-.8,7.89,7,6.69,8.9Zm-1.84-7.07c-2.51-3.35-3.51-2.2-4.11-4-.9-2.62,4.46-5.31,6.22-2.19s2.4,9.94,1.69,10.71-1.79-1.9-3.78-4.54Z" fill="#e0e0e0"/>
        <path id="Tracé_302" data-name="Tracé 302" d="M233.88,333.42c2,1.12,3.53.21,3.53-2.05a7.82,7.82,0,0,0-3.53-6.12c-2-1.13-3.54-.21-3.54,2a7.81,7.81,0,0,0,3.54,6.17Z" fill="#455a64"/>
        <path id="Tracé_303" data-name="Tracé 303" d="M222.2,348a.9.9,0,0,1-.42-.1.94.94,0,0,1-.43-1.27l7.81-15.83,4.11-2.37a.95.95,0,0,1,.94,1.65l-3.6,2.08-7.56,15.31A.94.94,0,0,1,222.2,348Z" fill="#263238"/>
        <path id="Tracé_304" data-name="Tracé 304" d="M229.12,350.86l-9.8-5.66a1.78,1.78,0,0,0-1.76,0l-13.65,7.89a1.74,1.74,0,0,0-.88,1.52v.88a1.76,1.76,0,0,0,.88,1.52l9.82,5.67a1.78,1.78,0,0,0,1.76,0l13.64-7.9a1.75,1.75,0,0,0,.87-1.52v-.87a1.76,1.76,0,0,0-.88-1.53Z" fill="#bbddfd"/>
        <path id="Tracé_305" data-name="Tracé 305" d="M229.12,350.86l-9.8-5.66a1.78,1.78,0,0,0-1.76,0l-13.65,7.89a1.74,1.74,0,0,0-.88,1.52v.88a1.76,1.76,0,0,0,.88,1.52l9.82,5.67a1.78,1.78,0,0,0,1.76,0l13.64-7.9a1.75,1.75,0,0,0,.87-1.52v-.87a1.76,1.76,0,0,0-.88-1.53Z" opacity="0.2"/>
        <path id="Tracé_306" data-name="Tracé 306" d="M213.79,359.81a1.65,1.65,0,0,0,1.64,0l14.34-8.3a1.69,1.69,0,0,0-.65-.65l-2.73-1.58-7.07-4.08a1.78,1.78,0,0,0-1.76,0l-1.65,1-12,6.93a1.9,1.9,0,0,0-.65.64Z" fill="#bbddfd"/>
        <path id="Tracé_307" data-name="Tracé 307" d="M251.92,230.6c-2.87-4.66-9.61-11.46-9.61-11.46s-17.37-23.38-36.63-12.26a12.82,12.82,0,0,0-6.69,9.49,15.91,15.91,0,0,0-.14,4.18,10,10,0,0,0,2.38,5.86c2.54,3.51,9.71,6.39,18.31,8.56.61.16,1.23.3,1.85.45,3.07.7,6.16,1.3,9.24,1.92s6.12,1.25,9.14,2c1.23.33,2.46.69,3.66,1.14.49.18,1,.38,1.46.6a4.62,4.62,0,0,0,1.86.8,8.17,8.17,0,0,0,2.51-.44,4.52,4.52,0,0,0,1-.55,7.11,7.11,0,0,0,2.35-3.35,8.25,8.25,0,0,0-.69-6.94Z" fill="#9a4a4d"/>
        <path id="Tracé_308" data-name="Tracé 308" d="M205.68,206.88c-5.84,3.37-9,9.58-4.45,15.92,2.54,3.5,9.71,6.38,18.31,8.56s23.28,4.13,26.91,7.09,8.83-2.36,5.47-7.85c-2.87-4.66-9.61-11.46-9.61-11.46S224.94,195.76,205.68,206.88Z" fill="#b16668"/>
        <path id="Tracé_309" data-name="Tracé 309" d="M211.97,338.08l10.95,1.31,4.49-19.59-13.35.84Z" fill="#ffa8a7"/>
        <path id="Tracé_310" data-name="Tracé 310" d="M236.77,362a3.44,3.44,0,0,1-.47,2.37c-.52.62-1.63,1.82-5.66,2a17.07,17.07,0,0,1-8.84-1.75c-2.67-1.38-5-3-5.82-5.95-.66-2.38-1.13-5.34-3.23-7.19s-3.4-2.19-4-4c-.66-2.12.67-6.8.67-6.8Z" fill="#37474f"/>
        <path id="Tracé_311" data-name="Tracé 311" d="M224.59,338.62a9.6,9.6,0,0,0,.17,2.78,22.27,22.27,0,0,0,3.94,7.91,16.3,16.3,0,0,0,1.9,2.24c1.44,1.35,3.32,2.18,4.66,3.63a7.11,7.11,0,0,1,1.84,5.32,4,4,0,0,1-1.36,2.89,4.651,4.651,0,0,1-1.68.72A16.29,16.29,0,0,1,222,362.32a10.67,10.67,0,0,1-4.35-4.2c-1-2-2-5.48-3.2-7.35-1-1.52-2.59-2.53-3.84-3.86-2.73-2.92-1.42-7.08-.09-10.38.7-1.73,1.49-3.69,2.1-3.45a1.647,1.647,0,0,0,.47,1.74c.74.89.64,2.09,1.44,2.91a13.84,13.84,0,0,1-.34-2.47,1.39,1.39,0,0,1,.31-.93,2.59,2.59,0,0,1,1.1-.43,21,21,0,0,1,4.19-.44,12.43,12.43,0,0,1,4,.45,1.69,1.69,0,0,1,.93.7,2,2,0,0,1,.22,1.19C224.88,336.35,224.67,337.73,224.59,338.62Z" fill="#455a64"/>
        <path id="Tracé_312" data-name="Tracé 312" d="M227.79,348c-1.25-1-4.08-1-5.62-.85a9.26,9.26,0,0,0-4.41,1.49,1,1,0,0,1-1.29-.12h0a.94.94,0,0,1,.11-1.44,9.51,9.51,0,0,1,5-1.77c3.81-.23,4.91.44,4.91.44S228.18,346.88,227.79,348Z" fill="#f5f5f5"/>
        <path id="Tracé_313" data-name="Tracé 313" d="M231.11,352c-1.61-.9-4.71-.69-6.25-.48a8.71,8.71,0,0,0-4.23,1.73,1,1,0,0,1-1.3-.07h0a1,1,0,0,1,.06-1.45,10,10,0,0,1,5-2.1c3.79-.36,4.8.39,4.8.39A3.15,3.15,0,0,1,231.11,352Z" fill="#f5f5f5"/>
        <path id="Tracé_314" data-name="Tracé 314" d="M220.36,341a9.48,9.48,0,0,1,4.7,1c.62.45.93,1.55.47,1.77a8.71,8.71,0,0,0-4.13-1.08,12.44,12.44,0,0,0-4.22.63c-.34.11-.75.26-1.1.41a.91.91,0,0,1-1.2-.54h0a.83.83,0,0,1,.46-1,12.26,12.26,0,0,1,5.02-1.19Z" fill="#f5f5f5"/>
        <path id="Tracé_315" data-name="Tracé 315" d="M263,197.31l-51.81.41a52.56,52.56,0,0,0,0,31.14C215.94,244,225.72,271,225.72,271a58.421,58.421,0,0,0-8.48,18.25c-2.77,10.6-4.54,38.61-4.54,38.61s7.35,4.72,12.57,2.43c0,0,16.25-40.71,20.83-54.39s-.42-54.26-.42-54.26S260,207.84,263,197.31Z" fill="#37474f"/>
        <path id="Tracé_316" data-name="Tracé 316" d="M233.36,249.79c1.22,2.64,4.95,8.92,7,10.72,3.51,3.11,6.47,2,6.47,2l-1-7-6.07-6.64Z" fill="#f28f8f"/>
        <path id="Tracé_317" data-name="Tracé 317" d="M263.47,128.83c6.82.7,11.08,6.5,16,17s17.17,34.61,17.17,34.61l32.35,22,1.44,11.35-2,2-6-3L290,195.56a21.36,21.36,0,0,1-7.3-6.47c-3.77-6.16-18.56-34.71-18.56-34.71Z" fill="#ffa8a7"/>
        <path id="Tracé_318" data-name="Tracé 318" d="M263.47,128.83s2.27-.72,6.14,2,6.28,6.91,10.82,16,9.09,18.38,9.09,18.38-4,8.23-15.42,10l-10.83-18.44Z" fill="#bbddfd"/>
        <path id="Tracé_319" data-name="Tracé 319" d="M263.47,128.83s2.27-.72,6.14,2,6.28,6.91,10.82,16,9.09,18.38,9.09,18.38-4,8.23-15.42,10l-10.83-18.44Z" opacity="0.3"/>
        <path id="Tracé_320" data-name="Tracé 320" d="M332.05,217.65l-3-5.22,12.78-7.37h0a1.49,1.49,0,0,1,1.53.13,4.74,4.74,0,0,1,2.13,3.7,1.5,1.5,0,0,1-.6,1.35h0Z" fill="#455a64"/>
        <path id="Tracé_321" data-name="Tracé 321" d="M332.67,216.27c0,1.36-1,1.91-2.14,1.23a4.73,4.73,0,0,1-2.13-3.69c0-1.36,1-1.91,2.13-1.23a4.71,4.71,0,0,1,2.14,3.69Z" fill="#37474f"/>
        <path id="Tracé_322" data-name="Tracé 322" d="M324.63,199.48c3.22,1.29,13.76,1.54,16.84,3.91s4.13,8.5,2.62,11.09-7.31,5.38-9.64,4.77-2.39-1.63-2.39-1.63l1.82-1s1.28-5.75-2.4-5.57L329,212.42l-2.77-3.76Z" fill="#ffa8a7"/>
        <path id="Tracé_323" data-name="Tracé 323" d="M331.45,215.55a.9.9,0,0,1-.16.55l-.33.18-16.68,9.63a6.31,6.31,0,0,0-3.14,5.45,9.15,9.15,0,0,1-4.57,7.9L295,245.94l-1.42-2.47,11.56-6.68a6.27,6.27,0,0,0,3.14-5.43,9.18,9.18,0,0,1,4.56-7.91l16.77-9.67.17-.1a.75.75,0,0,1,.63.1A2.29,2.29,0,0,1,331.45,215.55Z" fill="#e0e0e0"/>
        <g id="freepik--Boy--inject-4">
          <path id="Tracé_324" data-name="Tracé 324" d="M223.53,144.64c-5.35,15.82-12.34,53.08-12.34,53.08,6.47,8.61,37.48,15.23,51.81-.41a285.262,285.262,0,0,0,9.73-43.82c1.53-11.05,1.3-20-8.11-24.51l-16-2.15-13.29,1.36C228.64,131.2,225.54,138.68,223.53,144.64Z" fill="#f0f0f0"/>
          <path id="Tracé_325" data-name="Tracé 325" d="M211.91,198.56c6.93,7.28,31,12.58,46,3a19.8,19.8,0,0,1-18.09-.24c-4.65-2.53-7.78-15.47-7.78-15.47l6.05-35.9-18.52,8.67c-4.31,17.33-8.4,39.12-8.4,39.12.2.26.43.53.67.79a.12.12,0,0,1,.07.03Z" opacity="0.1"/>
          <circle id="Ellipse_63" data-name="Ellipse 63" cx="15.47" cy="15.47" r="15.47" transform="translate(250.355 105.735) rotate(-83.08)" fill="#263238"/>
          <path id="Tracé_326" data-name="Tracé 326" d="M240.44,102.21s2.05,11.87,3,13.84a5.32,5.32,0,0,0,3,2.6l.14-8.28Z" fill="#263238"/>
          <path id="Tracé_327" data-name="Tracé 327" d="M244.22,85.47A5.8,5.8,0,0,0,239.36,87c-2.15,2-1.24,8.67,1.08,15.23l4.7.73Z" fill="#263238"/>
          <path id="Tracé_328" data-name="Tracé 328" d="M246.55,103c-1,.53-2.25-1.34-3.37-2.6s-4.86-3.08-6.92.85,1.32,9.54,4.28,10.59c5.11,1.82,6-1.46,6-1.46l-.3,18.62c4.26,5.14,20.44,9.59,16.83.14l.2-5.67a59.812,59.812,0,0,0,7,.62c2.63-.05,5.56-1.89,7.31-7.7,2.18-7.27,2.39-16.61,1.29-26C277.34,77.62,262.06,76.7,252.89,82S246.55,103,246.55,103Z" fill="#ffa8a7"/>
          <path id="Tracé_329" data-name="Tracé 329" d="M246.49,104.59c-.42-.23-2.17-3.09-3.31-4.2-1.57-1.55,1-14.92,1-14.92s-1.44-3.4,1.84-6.74a13.48,13.48,0,0,1,13-3.87c4.65,1,9.4,2.28,14.12,1.19a53.681,53.681,0,0,1,7.05-1.52.81.81,0,0,1,1.06,1,7.29,7.29,0,0,1-1.53,4.3l2.95-.76a.8.8,0,0,1,.61,0,.73.73,0,0,1,.25.6,7,7,0,0,1-2.25,5.64c-3.24,2.94-6.72,3.83-11,4a52,52,0,0,1-16.89-1.67c-1.75-.3-2.19,1.38-3.31,6C249,97.73,250.18,106.52,246.49,104.59Z" fill="#263238"/>
          <path id="Tracé_330" data-name="Tracé 330" d="M244.19,86.52l-5.6-3.29A3.15,3.15,0,0,1,243,82a3.41,3.41,0,0,1,1.19,4.52Z" fill="#263238"/>
          <path id="Tracé_331" data-name="Tracé 331" d="M263.27,123.5s-8.42-2-11.32-3.72a9.8,9.8,0,0,1-3.95-4.22,13.389,13.389,0,0,0,2.15,4.88c2.06,2.85,13,5.32,13,5.32Z" fill="#f28f8f"/>
          <path id="Tracé_332" data-name="Tracé 332" d="M263.07,101.55a1.7,1.7,0,1,1-1.63-1.84,1.73,1.73,0,0,1,1.63,1.84Z" fill="#263238"/>
          <path id="Tracé_333" data-name="Tracé 333" d="M261.57,95.24l-3.71,1.86a2.17,2.17,0,0,1,1-2.86,2,2,0,0,1,2.71,1Z" fill="#263238"/>
          <path id="Tracé_334" data-name="Tracé 334" d="M262,113.26l3.83,1.61a2,2,0,0,1-2.69,1.18A2.18,2.18,0,0,1,262,113.26Z" fill="#f28f8f"/>
          <path id="Tracé_335" data-name="Tracé 335" d="M278.63,97.6,275,95.46a2,2,0,0,1,2.82-.79,2.22,2.22,0,0,1,.81,2.93Z" fill="#263238"/>
          <path id="Tracé_336" data-name="Tracé 336" d="M277,101.89a1.7,1.7,0,1,1-1.63-1.83,1.73,1.73,0,0,1,1.63,1.83Z" fill="#263238"/>
          <path id="Tracé_337" data-name="Tracé 337" d="M267.81,99.79l-.23,10.16,5.15-.36Z" fill="#f28f8f"/>
        </g>
        <path id="Tracé_338" data-name="Tracé 338" d="M303.53,242.48a3,3,0,0,0-1.77-2.37l-7.46-4.3-7.7,4.44v4.45l7.46,4.31a8.8,8.8,0,0,0,8,.14,2.54,2.54,0,0,0,1.51-2.22S303.56,243.3,303.53,242.48Z" fill="#37474f"/>
        <path id="Tracé_339" data-name="Tracé 339" d="M294.3,235.81l7.46,4.3c2.26,1.31,2.38,3.37.25,4.59a8.8,8.8,0,0,1-8-.14l-7.45-4.31Z" fill="#455a64"/>
        <path id="Tracé_340" data-name="Tracé 340" d="M293.22,246.51a.84.84,0,0,1-.2.58l-.21.12h0l-9.32,5.39c-1.95,1.13-3.3.81-4.08.36s-1.91-1.69-1.91-4.51c0-1.44-.35-2-.49-2a2.551,2.551,0,0,0-1.24.36l-27,15.58-1.42-2.47,27-15.57c1.95-1.12,3.29-.82,4.08-.36s1.92,1.69,1.92,4.5c0,1.45.35,2,.48,2a2.472,2.472,0,0,0,1.23-.37l9.39-5.42h0l.13-.07a.7.7,0,0,1,.64.09A2.26,2.26,0,0,1,293.22,246.51Z" fill="#e0e0e0"/>
        <path id="Tracé_341" data-name="Tracé 341" d="M246.21,265.72l-3-5.22L256,253.13h0a1.49,1.49,0,0,1,1.53.14,4.7,4.7,0,0,1,2.13,3.69,1.53,1.53,0,0,1-.59,1.36h0Z" fill="#455a64"/>
        <path id="Tracé_342" data-name="Tracé 342" d="M246.83,264.34c0,1.36-1,1.91-2.13,1.23a4.7,4.7,0,0,1-2.13-3.69c0-1.36,1-1.91,2.13-1.23A4.7,4.7,0,0,1,246.83,264.34Z" fill="#263238"/>
        <path id="Tracé_343" data-name="Tracé 343" d="M243.19,239.25c-1.65-7.17-7.93-35.58-8.62-41.26-.38-3.12,3.7-35.89,5.78-49s1-21.46-5-20.85-11.15,5.13-13.33,18.63-6.18,48.94-4.75,56.2c1.13,5.69,12.83,43.18,17.79,49.51C239.33,258,243.19,239.25,243.19,239.25Z" fill="#ffa8a7"/>
        <path id="Tracé_344" data-name="Tracé 344" d="M243.19,239.25c2.2,3.19,10.61,8.88,13.7,11.25s4.2,8.93,2.68,11.53-8.23,5.7-10.56,5.09-2.39-1.62-2.39-1.62l1.83-1c1.23-.76.74-5.11-2.41-5.57l-3.08,1.8c-1.55-.23-4.76-3.39-5.75-6.32Z" fill="#ffa8a7"/>
        <path id="Tracé_345" data-name="Tracé 345" d="M238.37,127.87s-8.46-2.41-13.43,6.83-7.14,38.1-7.14,38.1,2.41,2.41,10.28,3.35,10.51-1.62,10.51-1.62,4.31-30.24,4.09-36.61S240.24,129,238.37,127.87Z" fill="#bbddfd"/>
        <path id="Tracé_346" data-name="Tracé 346" d="M238.37,127.87s-8.46-2.41-13.43,6.83-7.14,38.1-7.14,38.1,2.41,2.41,10.28,3.35,10.51-1.62,10.51-1.62,4.31-30.24,4.09-36.61S240.24,129,238.37,127.87Z" opacity="0.2"/>
      </g>
    </g>
  </g>
</svg>
